<?xml version="1.0" encoding="utf-8" standalone="no"?>
<!DOCTYPE svg PUBLIC "-//W3C//DTD SVG 1.1//EN"
  "http://www.w3.org/Graphics/SVG/1.1/DTD/svg11.dtd">
<svg xmlns:xlink="http://www.w3.org/1999/xlink" width="559.542857pt" height="396pt" viewBox="0 0 559.542857 396" xmlns="http://www.w3.org/2000/svg" version="1.1">
 <metadata>
  <rdf:RDF xmlns:dc="http://purl.org/dc/elements/1.1/" xmlns:cc="http://creativecommons.org/ns#" xmlns:rdf="http://www.w3.org/1999/02/22-rdf-syntax-ns#">
   <cc:Work>
    <dc:type rdf:resource="http://purl.org/dc/dcmitype/StillImage"/>
    <dc:date>2026-08-07T07:45:48.956591</dc:date>
    <dc:format>image/svg+xml</dc:format>
    <dc:creator>
     <cc:Agent>
      <dc:title>Matplotlib v3.10.9, https://matplotlib.org/</dc:title>
     </cc:Agent>
    </dc:creator>
   </cc:Work>
  </rdf:RDF>
 </metadata>
 <defs>
  <style type="text/css">*{stroke-linejoin: round; stroke-linecap: butt}</style>
 </defs>
 <g id="figure_1">
  <g id="patch_1">
   <path d="M 0 396 
L 559.542857 396 
L 559.542857 0 
L 0 0 
z
" style="fill: #ffffff"/>
  </g>
  <g id="axes_1">
   <g id="patch_2">
    <path d="M 127.705263 223.822556 
L 156.396992 223.822556 
Q 159.84 223.822556 159.84 220.379549 
L 159.84 146.928722 
Q 159.84 143.485714 156.396992 143.485714 
L 127.705263 143.485714 
Q 124.262256 143.485714 124.262256 146.928722 
L 124.262256 220.379549 
Q 124.262256 223.822556 127.705263 223.822556 
z
" clip-path="url(#pa8dee78885)" style="fill: #e3edf7; stroke: #7f9dbb; stroke-width: 1.5; stroke-linejoin: miter"/>
   </g>
   <g id="patch_3">
    <path d="M 61.714286 144.633383 
L 222.38797 144.633383 
Q 229.273985 144.633383 229.273985 137.747368 
L 229.273985 83.233083 
Q 229.273985 76.347068 222.38797 76.347068 
L 61.714286 76.347068 
Q 54.828271 76.347068 54.828271 83.233083 
L 54.828271 137.747368 
Q 54.828271 144.633383 61.714286 144.633383 
z
" clip-path="url(#pa8dee78885)" style="fill: #f7f9fb; stroke: #8c98a4; stroke-width: 1.6; stroke-linejoin: miter"/>
   </g>
   <g id="patch_4">
    <path d="M 61.714286 290.961203 
L 222.38797 290.961203 
Q 229.273985 290.961203 229.273985 284.075188 
L 229.273985 229.560902 
Q 229.273985 222.674887 222.38797 222.674887 
L 61.714286 222.674887 
Q 54.828271 222.674887 54.828271 229.560902 
L 54.828271 284.075188 
Q 54.828271 290.961203 61.714286 290.961203 
z
" clip-path="url(#pa8dee78885)" style="fill: #f7f9fb; stroke: #8c98a4; stroke-width: 1.6; stroke-linejoin: miter"/>
   </g>
   <g id="patch_5">
    <path d="M 142.051128 166.439098 
Q 142.051128 183.654135 142.051128 199.080319 
" clip-path="url(#pa8dee78885)" style="fill: none; stroke: #7f9dbb; stroke-width: 1.6; stroke-linecap: round"/>
    <path d="M 145.051128 193.080319 
L 142.051128 199.080319 
L 139.051128 193.080319 
z
" clip-path="url(#pa8dee78885)" style="fill: #7f9dbb; stroke: #7f9dbb; stroke-width: 1.6; stroke-linecap: round"/>
   </g>
   <g id="patch_6">
    <path d="M 307.033055 158.405414 
Q 234.584196 158.405414 163.476979 158.405414 
" style="fill: none; stroke: #6b7684; stroke-width: 1.2; stroke-linecap: round"/>
    <path d="M 168.676979 161.005414 
L 163.476979 158.405414 
L 168.676979 155.805414 
z
" style="fill: #6b7684; stroke: #6b7684; stroke-width: 1.2; stroke-linecap: round"/>
   </g>
   <g id="text_1">
    <!-- both ports green -->
    <g style="fill: #2f9e56" transform="translate(317.070677 151.506554) scale(0.105 -0.105)">
     <defs>
      <path id="DejaVuSans-Bold-62" d="M 2400 722 
Q 2759 722 2948 984 
Q 3138 1247 3138 1747 
Q 3138 2247 2948 2509 
Q 2759 2772 2400 2772 
Q 2041 2772 1848 2508 
Q 1656 2244 1656 1747 
Q 1656 1250 1848 986 
Q 2041 722 2400 722 
z
M 1656 2988 
Q 1888 3294 2169 3439 
Q 2450 3584 2816 3584 
Q 3463 3584 3878 3070 
Q 4294 2556 4294 1747 
Q 4294 938 3878 423 
Q 3463 -91 2816 -91 
Q 2450 -91 2169 54 
Q 1888 200 1656 506 
L 1656 0 
L 538 0 
L 538 4863 
L 1656 4863 
L 1656 2988 
z
" transform="scale(0.015625)"/>
      <path id="DejaVuSans-Bold-6f" d="M 2203 2784 
Q 1831 2784 1636 2517 
Q 1441 2250 1441 1747 
Q 1441 1244 1636 976 
Q 1831 709 2203 709 
Q 2569 709 2762 976 
Q 2956 1244 2956 1747 
Q 2956 2250 2762 2517 
Q 2569 2784 2203 2784 
z
M 2203 3584 
Q 3106 3584 3614 3096 
Q 4122 2609 4122 1747 
Q 4122 884 3614 396 
Q 3106 -91 2203 -91 
Q 1297 -91 786 396 
Q 275 884 275 1747 
Q 275 2609 786 3096 
Q 1297 3584 2203 3584 
z
" transform="scale(0.015625)"/>
      <path id="DejaVuSans-Bold-74" d="M 1759 4494 
L 1759 3500 
L 2913 3500 
L 2913 2700 
L 1759 2700 
L 1759 1216 
Q 1759 972 1856 886 
Q 1953 800 2241 800 
L 2816 800 
L 2816 0 
L 1856 0 
Q 1194 0 917 276 
Q 641 553 641 1216 
L 641 2700 
L 84 2700 
L 84 3500 
L 641 3500 
L 641 4494 
L 1759 4494 
z
" transform="scale(0.015625)"/>
      <path id="DejaVuSans-Bold-68" d="M 4056 2131 
L 4056 0 
L 2931 0 
L 2931 347 
L 2931 1625 
Q 2931 2084 2911 2256 
Q 2891 2428 2841 2509 
Q 2775 2619 2662 2680 
Q 2550 2741 2406 2741 
Q 2056 2741 1856 2470 
Q 1656 2200 1656 1722 
L 1656 0 
L 538 0 
L 538 4863 
L 1656 4863 
L 1656 2988 
Q 1909 3294 2193 3439 
Q 2478 3584 2822 3584 
Q 3428 3584 3742 3212 
Q 4056 2841 4056 2131 
z
" transform="scale(0.015625)"/>
      <path id="DejaVuSans-Bold-20" transform="scale(0.015625)"/>
      <path id="DejaVuSans-Bold-70" d="M 1656 506 
L 1656 -1331 
L 538 -1331 
L 538 3500 
L 1656 3500 
L 1656 2988 
Q 1888 3294 2169 3439 
Q 2450 3584 2816 3584 
Q 3463 3584 3878 3070 
Q 4294 2556 4294 1747 
Q 4294 938 3878 423 
Q 3463 -91 2816 -91 
Q 2450 -91 2169 54 
Q 1888 200 1656 506 
z
M 2400 2772 
Q 2041 2772 1848 2508 
Q 1656 2244 1656 1747 
Q 1656 1250 1848 986 
Q 2041 722 2400 722 
Q 2759 722 2948 984 
Q 3138 1247 3138 1747 
Q 3138 2247 2948 2509 
Q 2759 2772 2400 2772 
z
" transform="scale(0.015625)"/>
      <path id="DejaVuSans-Bold-72" d="M 3138 2547 
Q 2991 2616 2845 2648 
Q 2700 2681 2553 2681 
Q 2122 2681 1889 2404 
Q 1656 2128 1656 1613 
L 1656 0 
L 538 0 
L 538 3500 
L 1656 3500 
L 1656 2925 
Q 1872 3269 2151 3426 
Q 2431 3584 2822 3584 
Q 2878 3584 2943 3579 
Q 3009 3575 3134 3559 
L 3138 2547 
z
" transform="scale(0.015625)"/>
      <path id="DejaVuSans-Bold-73" d="M 3272 3391 
L 3272 2541 
Q 2913 2691 2578 2766 
Q 2244 2841 1947 2841 
Q 1628 2841 1473 2761 
Q 1319 2681 1319 2516 
Q 1319 2381 1436 2309 
Q 1553 2238 1856 2203 
L 2053 2175 
Q 2913 2066 3209 1816 
Q 3506 1566 3506 1031 
Q 3506 472 3093 190 
Q 2681 -91 1863 -91 
Q 1516 -91 1145 -36 
Q 775 19 384 128 
L 384 978 
Q 719 816 1070 734 
Q 1422 653 1784 653 
Q 2113 653 2278 743 
Q 2444 834 2444 1013 
Q 2444 1163 2330 1236 
Q 2216 1309 1875 1350 
L 1678 1375 
Q 931 1469 631 1722 
Q 331 1975 331 2491 
Q 331 3047 712 3315 
Q 1094 3584 1881 3584 
Q 2191 3584 2531 3537 
Q 2872 3491 3272 3391 
z
" transform="scale(0.015625)"/>
      <path id="DejaVuSans-Bold-67" d="M 2919 594 
Q 2688 288 2409 144 
Q 2131 0 1766 0 
Q 1125 0 706 504 
Q 288 1009 288 1791 
Q 288 2575 706 3076 
Q 1125 3578 1766 3578 
Q 2131 3578 2409 3434 
Q 2688 3291 2919 2981 
L 2919 3500 
L 4044 3500 
L 4044 353 
Q 4044 -491 3511 -936 
Q 2978 -1381 1966 -1381 
Q 1638 -1381 1331 -1331 
Q 1025 -1281 716 -1178 
L 716 -306 
Q 1009 -475 1290 -558 
Q 1572 -641 1856 -641 
Q 2406 -641 2662 -400 
Q 2919 -159 2919 353 
L 2919 594 
z
M 2181 2772 
Q 1834 2772 1640 2515 
Q 1447 2259 1447 1791 
Q 1447 1309 1634 1061 
Q 1822 813 2181 813 
Q 2531 813 2725 1069 
Q 2919 1325 2919 1791 
Q 2919 2259 2725 2515 
Q 2531 2772 2181 2772 
z
" transform="scale(0.015625)"/>
      <path id="DejaVuSans-Bold-65" d="M 4031 1759 
L 4031 1441 
L 1416 1441 
Q 1456 1047 1700 850 
Q 1944 653 2381 653 
Q 2734 653 3104 758 
Q 3475 863 3866 1075 
L 3866 213 
Q 3469 63 3072 -14 
Q 2675 -91 2278 -91 
Q 1328 -91 801 392 
Q 275 875 275 1747 
Q 275 2603 792 3093 
Q 1309 3584 2216 3584 
Q 3041 3584 3536 3087 
Q 4031 2591 4031 1759 
z
M 2881 2131 
Q 2881 2450 2695 2645 
Q 2509 2841 2209 2841 
Q 1884 2841 1681 2658 
Q 1478 2475 1428 2131 
L 2881 2131 
z
" transform="scale(0.015625)"/>
      <path id="DejaVuSans-Bold-6e" d="M 4056 2131 
L 4056 0 
L 2931 0 
L 2931 347 
L 2931 1631 
Q 2931 2084 2911 2256 
Q 2891 2428 2841 2509 
Q 2775 2619 2662 2680 
Q 2550 2741 2406 2741 
Q 2056 2741 1856 2470 
Q 1656 2200 1656 1722 
L 1656 0 
L 538 0 
L 538 3500 
L 1656 3500 
L 1656 2988 
Q 1909 3294 2193 3439 
Q 2478 3584 2822 3584 
Q 3428 3584 3742 3212 
Q 4056 2841 4056 2131 
z
" transform="scale(0.015625)"/>
     </defs>
     <use xlink:href="#DejaVuSans-Bold-62"/>
     <use xlink:href="#DejaVuSans-Bold-6f" transform="translate(71.582031 0)"/>
     <use xlink:href="#DejaVuSans-Bold-74" transform="translate(140.283203 0)"/>
     <use xlink:href="#DejaVuSans-Bold-68" transform="translate(188.085938 0)"/>
     <use xlink:href="#DejaVuSans-Bold-20" transform="translate(259.277344 0)"/>
     <use xlink:href="#DejaVuSans-Bold-70" transform="translate(294.091797 0)"/>
     <use xlink:href="#DejaVuSans-Bold-6f" transform="translate(365.673828 0)"/>
     <use xlink:href="#DejaVuSans-Bold-72" transform="translate(434.375 0)"/>
     <use xlink:href="#DejaVuSans-Bold-74" transform="translate(483.691406 0)"/>
     <use xlink:href="#DejaVuSans-Bold-73" transform="translate(531.494141 0)"/>
     <use xlink:href="#DejaVuSans-Bold-20" transform="translate(591.015625 0)"/>
     <use xlink:href="#DejaVuSans-Bold-67" transform="translate(625.830078 0)"/>
     <use xlink:href="#DejaVuSans-Bold-72" transform="translate(697.412109 0)"/>
     <use xlink:href="#DejaVuSans-Bold-65" transform="translate(746.728516 0)"/>
     <use xlink:href="#DejaVuSans-Bold-65" transform="translate(814.550781 0)"/>
     <use xlink:href="#DejaVuSans-Bold-6e" transform="translate(882.373047 0)"/>
    </g>
   </g>
   <g id="text_2">
    <!-- the MMA may start -->
    <g style="fill: #6b7684" transform="translate(317.070677 169.634339) scale(0.095 -0.095)">
     <defs>
      <path id="DejaVuSans-74" d="M 1172 4494 
L 1172 3500 
L 2356 3500 
L 2356 3053 
L 1172 3053 
L 1172 1153 
Q 1172 725 1289 603 
Q 1406 481 1766 481 
L 2356 481 
L 2356 0 
L 1766 0 
Q 1100 0 847 248 
Q 594 497 594 1153 
L 594 3053 
L 172 3053 
L 172 3500 
L 594 3500 
L 594 4494 
L 1172 4494 
z
" transform="scale(0.015625)"/>
      <path id="DejaVuSans-68" d="M 3513 2113 
L 3513 0 
L 2938 0 
L 2938 2094 
Q 2938 2591 2744 2837 
Q 2550 3084 2163 3084 
Q 1697 3084 1428 2787 
Q 1159 2491 1159 1978 
L 1159 0 
L 581 0 
L 581 4863 
L 1159 4863 
L 1159 2956 
Q 1366 3272 1645 3428 
Q 1925 3584 2291 3584 
Q 2894 3584 3203 3211 
Q 3513 2838 3513 2113 
z
" transform="scale(0.015625)"/>
      <path id="DejaVuSans-65" d="M 3597 1894 
L 3597 1613 
L 953 1613 
Q 991 1019 1311 708 
Q 1631 397 2203 397 
Q 2534 397 2845 478 
Q 3156 559 3463 722 
L 3463 178 
Q 3153 47 2828 -22 
Q 2503 -91 2169 -91 
Q 1331 -91 842 396 
Q 353 884 353 1716 
Q 353 2575 817 3079 
Q 1281 3584 2069 3584 
Q 2775 3584 3186 3129 
Q 3597 2675 3597 1894 
z
M 3022 2063 
Q 3016 2534 2758 2815 
Q 2500 3097 2075 3097 
Q 1594 3097 1305 2825 
Q 1016 2553 972 2059 
L 3022 2063 
z
" transform="scale(0.015625)"/>
      <path id="DejaVuSans-20" transform="scale(0.015625)"/>
      <path id="DejaVuSans-4d" d="M 628 4666 
L 1569 4666 
L 2759 1491 
L 3956 4666 
L 4897 4666 
L 4897 0 
L 4281 0 
L 4281 4097 
L 3078 897 
L 2444 897 
L 1241 4097 
L 1241 0 
L 628 0 
L 628 4666 
z
" transform="scale(0.015625)"/>
      <path id="DejaVuSans-41" d="M 2188 4044 
L 1331 1722 
L 3047 1722 
L 2188 4044 
z
M 1831 4666 
L 2547 4666 
L 4325 0 
L 3669 0 
L 3244 1197 
L 1141 1197 
L 716 0 
L 50 0 
L 1831 4666 
z
" transform="scale(0.015625)"/>
      <path id="DejaVuSans-6d" d="M 3328 2828 
Q 3544 3216 3844 3400 
Q 4144 3584 4550 3584 
Q 5097 3584 5394 3201 
Q 5691 2819 5691 2113 
L 5691 0 
L 5113 0 
L 5113 2094 
Q 5113 2597 4934 2840 
Q 4756 3084 4391 3084 
Q 3944 3084 3684 2787 
Q 3425 2491 3425 1978 
L 3425 0 
L 2847 0 
L 2847 2094 
Q 2847 2600 2669 2842 
Q 2491 3084 2119 3084 
Q 1678 3084 1418 2786 
Q 1159 2488 1159 1978 
L 1159 0 
L 581 0 
L 581 3500 
L 1159 3500 
L 1159 2956 
Q 1356 3278 1631 3431 
Q 1906 3584 2284 3584 
Q 2666 3584 2933 3390 
Q 3200 3197 3328 2828 
z
" transform="scale(0.015625)"/>
      <path id="DejaVuSans-61" d="M 2194 1759 
Q 1497 1759 1228 1600 
Q 959 1441 959 1056 
Q 959 750 1161 570 
Q 1363 391 1709 391 
Q 2188 391 2477 730 
Q 2766 1069 2766 1631 
L 2766 1759 
L 2194 1759 
z
M 3341 1997 
L 3341 0 
L 2766 0 
L 2766 531 
Q 2569 213 2275 61 
Q 1981 -91 1556 -91 
Q 1019 -91 701 211 
Q 384 513 384 1019 
Q 384 1609 779 1909 
Q 1175 2209 1959 2209 
L 2766 2209 
L 2766 2266 
Q 2766 2663 2505 2880 
Q 2244 3097 1772 3097 
Q 1472 3097 1187 3025 
Q 903 2953 641 2809 
L 641 3341 
Q 956 3463 1253 3523 
Q 1550 3584 1831 3584 
Q 2591 3584 2966 3190 
Q 3341 2797 3341 1997 
z
" transform="scale(0.015625)"/>
      <path id="DejaVuSans-79" d="M 2059 -325 
Q 1816 -950 1584 -1140 
Q 1353 -1331 966 -1331 
L 506 -1331 
L 506 -850 
L 844 -850 
Q 1081 -850 1212 -737 
Q 1344 -625 1503 -206 
L 1606 56 
L 191 3500 
L 800 3500 
L 1894 763 
L 2988 3500 
L 3597 3500 
L 2059 -325 
z
" transform="scale(0.015625)"/>
      <path id="DejaVuSans-73" d="M 2834 3397 
L 2834 2853 
Q 2591 2978 2328 3040 
Q 2066 3103 1784 3103 
Q 1356 3103 1142 2972 
Q 928 2841 928 2578 
Q 928 2378 1081 2264 
Q 1234 2150 1697 2047 
L 1894 2003 
Q 2506 1872 2764 1633 
Q 3022 1394 3022 966 
Q 3022 478 2636 193 
Q 2250 -91 1575 -91 
Q 1294 -91 989 -36 
Q 684 19 347 128 
L 347 722 
Q 666 556 975 473 
Q 1284 391 1588 391 
Q 1994 391 2212 530 
Q 2431 669 2431 922 
Q 2431 1156 2273 1281 
Q 2116 1406 1581 1522 
L 1381 1569 
Q 847 1681 609 1914 
Q 372 2147 372 2553 
Q 372 3047 722 3315 
Q 1072 3584 1716 3584 
Q 2034 3584 2315 3537 
Q 2597 3491 2834 3397 
z
" transform="scale(0.015625)"/>
      <path id="DejaVuSans-72" d="M 2631 2963 
Q 2534 3019 2420 3045 
Q 2306 3072 2169 3072 
Q 1681 3072 1420 2755 
Q 1159 2438 1159 1844 
L 1159 0 
L 581 0 
L 581 3500 
L 1159 3500 
L 1159 2956 
Q 1341 3275 1631 3429 
Q 1922 3584 2338 3584 
Q 2397 3584 2469 3576 
Q 2541 3569 2628 3553 
L 2631 2963 
z
" transform="scale(0.015625)"/>
     </defs>
     <use xlink:href="#DejaVuSans-74"/>
     <use xlink:href="#DejaVuSans-68" transform="translate(39.208984 0)"/>
     <use xlink:href="#DejaVuSans-65" transform="translate(102.587891 0)"/>
     <use xlink:href="#DejaVuSans-20" transform="translate(164.111328 0)"/>
     <use xlink:href="#DejaVuSans-4d" transform="translate(195.898438 0)"/>
     <use xlink:href="#DejaVuSans-4d" transform="translate(282.177734 0)"/>
     <use xlink:href="#DejaVuSans-41" transform="translate(368.457031 0)"/>
     <use xlink:href="#DejaVuSans-20" transform="translate(436.865234 0)"/>
     <use xlink:href="#DejaVuSans-6d" transform="translate(468.652344 0)"/>
     <use xlink:href="#DejaVuSans-61" transform="translate(566.064453 0)"/>
     <use xlink:href="#DejaVuSans-79" transform="translate(627.34375 0)"/>
     <use xlink:href="#DejaVuSans-20" transform="translate(686.523438 0)"/>
     <use xlink:href="#DejaVuSans-73" transform="translate(718.310547 0)"/>
     <use xlink:href="#DejaVuSans-74" transform="translate(770.410156 0)"/>
     <use xlink:href="#DejaVuSans-61" transform="translate(809.619141 0)"/>
     <use xlink:href="#DejaVuSans-72" transform="translate(870.898438 0)"/>
     <use xlink:href="#DejaVuSans-74" transform="translate(912.011719 0)"/>
    </g>
   </g>
   <g id="text_3">
    <!-- An operation is a pipe between two ports -->
    <g style="fill: #1f2933" transform="translate(24.415038 25.684927) scale(0.15 -0.15)">
     <defs>
      <path id="DejaVuSans-Bold-41" d="M 3419 850 
L 1538 850 
L 1241 0 
L 31 0 
L 1759 4666 
L 3194 4666 
L 4922 0 
L 3713 0 
L 3419 850 
z
M 1838 1716 
L 3116 1716 
L 2478 3572 
L 1838 1716 
z
" transform="scale(0.015625)"/>
      <path id="DejaVuSans-Bold-61" d="M 2106 1575 
Q 1756 1575 1579 1456 
Q 1403 1338 1403 1106 
Q 1403 894 1545 773 
Q 1688 653 1941 653 
Q 2256 653 2472 879 
Q 2688 1106 2688 1447 
L 2688 1575 
L 2106 1575 
z
M 3816 1997 
L 3816 0 
L 2688 0 
L 2688 519 
Q 2463 200 2181 54 
Q 1900 -91 1497 -91 
Q 953 -91 614 226 
Q 275 544 275 1050 
Q 275 1666 698 1953 
Q 1122 2241 2028 2241 
L 2688 2241 
L 2688 2328 
Q 2688 2594 2478 2717 
Q 2269 2841 1825 2841 
Q 1466 2841 1156 2769 
Q 847 2697 581 2553 
L 581 3406 
Q 941 3494 1303 3539 
Q 1666 3584 2028 3584 
Q 2975 3584 3395 3211 
Q 3816 2838 3816 1997 
z
" transform="scale(0.015625)"/>
      <path id="DejaVuSans-Bold-69" d="M 538 3500 
L 1656 3500 
L 1656 0 
L 538 0 
L 538 3500 
z
M 538 4863 
L 1656 4863 
L 1656 3950 
L 538 3950 
L 538 4863 
z
" transform="scale(0.015625)"/>
      <path id="DejaVuSans-Bold-77" d="M 225 3500 
L 1313 3500 
L 1900 1088 
L 2491 3500 
L 3425 3500 
L 4013 1113 
L 4603 3500 
L 5691 3500 
L 4769 0 
L 3547 0 
L 2956 2406 
L 2369 0 
L 1147 0 
L 225 3500 
z
" transform="scale(0.015625)"/>
     </defs>
     <use xlink:href="#DejaVuSans-Bold-41"/>
     <use xlink:href="#DejaVuSans-Bold-6e" transform="translate(77.392578 0)"/>
     <use xlink:href="#DejaVuSans-Bold-20" transform="translate(148.583984 0)"/>
     <use xlink:href="#DejaVuSans-Bold-6f" transform="translate(183.398438 0)"/>
     <use xlink:href="#DejaVuSans-Bold-70" transform="translate(252.099609 0)"/>
     <use xlink:href="#DejaVuSans-Bold-65" transform="translate(323.681641 0)"/>
     <use xlink:href="#DejaVuSans-Bold-72" transform="translate(391.503906 0)"/>
     <use xlink:href="#DejaVuSans-Bold-61" transform="translate(440.820312 0)"/>
     <use xlink:href="#DejaVuSans-Bold-74" transform="translate(508.300781 0)"/>
     <use xlink:href="#DejaVuSans-Bold-69" transform="translate(556.103516 0)"/>
     <use xlink:href="#DejaVuSans-Bold-6f" transform="translate(590.380859 0)"/>
     <use xlink:href="#DejaVuSans-Bold-6e" transform="translate(659.082031 0)"/>
     <use xlink:href="#DejaVuSans-Bold-20" transform="translate(730.273438 0)"/>
     <use xlink:href="#DejaVuSans-Bold-69" transform="translate(765.087891 0)"/>
     <use xlink:href="#DejaVuSans-Bold-73" transform="translate(799.365234 0)"/>
     <use xlink:href="#DejaVuSans-Bold-20" transform="translate(858.886719 0)"/>
     <use xlink:href="#DejaVuSans-Bold-61" transform="translate(893.701172 0)"/>
     <use xlink:href="#DejaVuSans-Bold-20" transform="translate(961.181641 0)"/>
     <use xlink:href="#DejaVuSans-Bold-70" transform="translate(995.996094 0)"/>
     <use xlink:href="#DejaVuSans-Bold-69" transform="translate(1067.578125 0)"/>
     <use xlink:href="#DejaVuSans-Bold-70" transform="translate(1101.855469 0)"/>
     <use xlink:href="#DejaVuSans-Bold-65" transform="translate(1173.4375 0)"/>
     <use xlink:href="#DejaVuSans-Bold-20" transform="translate(1241.259766 0)"/>
     <use xlink:href="#DejaVuSans-Bold-62" transform="translate(1276.074219 0)"/>
     <use xlink:href="#DejaVuSans-Bold-65" transform="translate(1347.65625 0)"/>
     <use xlink:href="#DejaVuSans-Bold-74" transform="translate(1415.478516 0)"/>
     <use xlink:href="#DejaVuSans-Bold-77" transform="translate(1463.28125 0)"/>
     <use xlink:href="#DejaVuSans-Bold-65" transform="translate(1555.664062 0)"/>
     <use xlink:href="#DejaVuSans-Bold-65" transform="translate(1623.486328 0)"/>
     <use xlink:href="#DejaVuSans-Bold-6e" transform="translate(1691.308594 0)"/>
     <use xlink:href="#DejaVuSans-Bold-20" transform="translate(1762.5 0)"/>
     <use xlink:href="#DejaVuSans-Bold-74" transform="translate(1797.314453 0)"/>
     <use xlink:href="#DejaVuSans-Bold-77" transform="translate(1845.117188 0)"/>
     <use xlink:href="#DejaVuSans-Bold-6f" transform="translate(1937.5 0)"/>
     <use xlink:href="#DejaVuSans-Bold-20" transform="translate(2006.201172 0)"/>
     <use xlink:href="#DejaVuSans-Bold-70" transform="translate(2041.015625 0)"/>
     <use xlink:href="#DejaVuSans-Bold-6f" transform="translate(2112.597656 0)"/>
     <use xlink:href="#DejaVuSans-Bold-72" transform="translate(2181.298828 0)"/>
     <use xlink:href="#DejaVuSans-Bold-74" transform="translate(2230.615234 0)"/>
     <use xlink:href="#DejaVuSans-Bold-73" transform="translate(2278.417969 0)"/>
    </g>
   </g>
   <g id="text_4">
    <!-- from the source buffer's output port to the destination buffer's input port -->
    <g style="fill: #6b7684" transform="translate(24.415038 45.675088) scale(0.105 -0.105)">
     <defs>
      <path id="DejaVuSans-66" d="M 2375 4863 
L 2375 4384 
L 1825 4384 
Q 1516 4384 1395 4259 
Q 1275 4134 1275 3809 
L 1275 3500 
L 2222 3500 
L 2222 3053 
L 1275 3053 
L 1275 0 
L 697 0 
L 697 3053 
L 147 3053 
L 147 3500 
L 697 3500 
L 697 3744 
Q 697 4328 969 4595 
Q 1241 4863 1831 4863 
L 2375 4863 
z
" transform="scale(0.015625)"/>
      <path id="DejaVuSans-6f" d="M 1959 3097 
Q 1497 3097 1228 2736 
Q 959 2375 959 1747 
Q 959 1119 1226 758 
Q 1494 397 1959 397 
Q 2419 397 2687 759 
Q 2956 1122 2956 1747 
Q 2956 2369 2687 2733 
Q 2419 3097 1959 3097 
z
M 1959 3584 
Q 2709 3584 3137 3096 
Q 3566 2609 3566 1747 
Q 3566 888 3137 398 
Q 2709 -91 1959 -91 
Q 1206 -91 779 398 
Q 353 888 353 1747 
Q 353 2609 779 3096 
Q 1206 3584 1959 3584 
z
" transform="scale(0.015625)"/>
      <path id="DejaVuSans-75" d="M 544 1381 
L 544 3500 
L 1119 3500 
L 1119 1403 
Q 1119 906 1312 657 
Q 1506 409 1894 409 
Q 2359 409 2629 706 
Q 2900 1003 2900 1516 
L 2900 3500 
L 3475 3500 
L 3475 0 
L 2900 0 
L 2900 538 
Q 2691 219 2414 64 
Q 2138 -91 1772 -91 
Q 1169 -91 856 284 
Q 544 659 544 1381 
z
M 1991 3584 
L 1991 3584 
z
" transform="scale(0.015625)"/>
      <path id="DejaVuSans-63" d="M 3122 3366 
L 3122 2828 
Q 2878 2963 2633 3030 
Q 2388 3097 2138 3097 
Q 1578 3097 1268 2742 
Q 959 2388 959 1747 
Q 959 1106 1268 751 
Q 1578 397 2138 397 
Q 2388 397 2633 464 
Q 2878 531 3122 666 
L 3122 134 
Q 2881 22 2623 -34 
Q 2366 -91 2075 -91 
Q 1284 -91 818 406 
Q 353 903 353 1747 
Q 353 2603 823 3093 
Q 1294 3584 2113 3584 
Q 2378 3584 2631 3529 
Q 2884 3475 3122 3366 
z
" transform="scale(0.015625)"/>
      <path id="DejaVuSans-62" d="M 3116 1747 
Q 3116 2381 2855 2742 
Q 2594 3103 2138 3103 
Q 1681 3103 1420 2742 
Q 1159 2381 1159 1747 
Q 1159 1113 1420 752 
Q 1681 391 2138 391 
Q 2594 391 2855 752 
Q 3116 1113 3116 1747 
z
M 1159 2969 
Q 1341 3281 1617 3432 
Q 1894 3584 2278 3584 
Q 2916 3584 3314 3078 
Q 3713 2572 3713 1747 
Q 3713 922 3314 415 
Q 2916 -91 2278 -91 
Q 1894 -91 1617 61 
Q 1341 213 1159 525 
L 1159 0 
L 581 0 
L 581 4863 
L 1159 4863 
L 1159 2969 
z
" transform="scale(0.015625)"/>
      <path id="DejaVuSans-27" d="M 1147 4666 
L 1147 2931 
L 616 2931 
L 616 4666 
L 1147 4666 
z
" transform="scale(0.015625)"/>
      <path id="DejaVuSans-70" d="M 1159 525 
L 1159 -1331 
L 581 -1331 
L 581 3500 
L 1159 3500 
L 1159 2969 
Q 1341 3281 1617 3432 
Q 1894 3584 2278 3584 
Q 2916 3584 3314 3078 
Q 3713 2572 3713 1747 
Q 3713 922 3314 415 
Q 2916 -91 2278 -91 
Q 1894 -91 1617 61 
Q 1341 213 1159 525 
z
M 3116 1747 
Q 3116 2381 2855 2742 
Q 2594 3103 2138 3103 
Q 1681 3103 1420 2742 
Q 1159 2381 1159 1747 
Q 1159 1113 1420 752 
Q 1681 391 2138 391 
Q 2594 391 2855 752 
Q 3116 1113 3116 1747 
z
" transform="scale(0.015625)"/>
      <path id="DejaVuSans-64" d="M 2906 2969 
L 2906 4863 
L 3481 4863 
L 3481 0 
L 2906 0 
L 2906 525 
Q 2725 213 2448 61 
Q 2172 -91 1784 -91 
Q 1150 -91 751 415 
Q 353 922 353 1747 
Q 353 2572 751 3078 
Q 1150 3584 1784 3584 
Q 2172 3584 2448 3432 
Q 2725 3281 2906 2969 
z
M 947 1747 
Q 947 1113 1208 752 
Q 1469 391 1925 391 
Q 2381 391 2643 752 
Q 2906 1113 2906 1747 
Q 2906 2381 2643 2742 
Q 2381 3103 1925 3103 
Q 1469 3103 1208 2742 
Q 947 2381 947 1747 
z
" transform="scale(0.015625)"/>
      <path id="DejaVuSans-69" d="M 603 3500 
L 1178 3500 
L 1178 0 
L 603 0 
L 603 3500 
z
M 603 4863 
L 1178 4863 
L 1178 4134 
L 603 4134 
L 603 4863 
z
" transform="scale(0.015625)"/>
      <path id="DejaVuSans-6e" d="M 3513 2113 
L 3513 0 
L 2938 0 
L 2938 2094 
Q 2938 2591 2744 2837 
Q 2550 3084 2163 3084 
Q 1697 3084 1428 2787 
Q 1159 2491 1159 1978 
L 1159 0 
L 581 0 
L 581 3500 
L 1159 3500 
L 1159 2956 
Q 1366 3272 1645 3428 
Q 1925 3584 2291 3584 
Q 2894 3584 3203 3211 
Q 3513 2838 3513 2113 
z
" transform="scale(0.015625)"/>
     </defs>
     <use xlink:href="#DejaVuSans-66"/>
     <use xlink:href="#DejaVuSans-72" transform="translate(35.205078 0)"/>
     <use xlink:href="#DejaVuSans-6f" transform="translate(74.068359 0)"/>
     <use xlink:href="#DejaVuSans-6d" transform="translate(135.25 0)"/>
     <use xlink:href="#DejaVuSans-20" transform="translate(232.662109 0)"/>
     <use xlink:href="#DejaVuSans-74" transform="translate(264.449219 0)"/>
     <use xlink:href="#DejaVuSans-68" transform="translate(303.658203 0)"/>
     <use xlink:href="#DejaVuSans-65" transform="translate(367.037109 0)"/>
     <use xlink:href="#DejaVuSans-20" transform="translate(428.560547 0)"/>
     <use xlink:href="#DejaVuSans-73" transform="translate(460.347656 0)"/>
     <use xlink:href="#DejaVuSans-6f" transform="translate(512.447266 0)"/>
     <use xlink:href="#DejaVuSans-75" transform="translate(573.628906 0)"/>
     <use xlink:href="#DejaVuSans-72" transform="translate(637.007812 0)"/>
     <use xlink:href="#DejaVuSans-63" transform="translate(675.871094 0)"/>
     <use xlink:href="#DejaVuSans-65" transform="translate(730.851562 0)"/>
     <use xlink:href="#DejaVuSans-20" transform="translate(792.375 0)"/>
     <use xlink:href="#DejaVuSans-62" transform="translate(824.162109 0)"/>
     <use xlink:href="#DejaVuSans-75" transform="translate(887.638672 0)"/>
     <use xlink:href="#DejaVuSans-66" transform="translate(951.017578 0)"/>
     <use xlink:href="#DejaVuSans-66" transform="translate(986.222656 0)"/>
     <use xlink:href="#DejaVuSans-65" transform="translate(1021.427734 0)"/>
     <use xlink:href="#DejaVuSans-72" transform="translate(1082.951172 0)"/>
     <use xlink:href="#DejaVuSans-27" transform="translate(1124.064453 0)"/>
     <use xlink:href="#DejaVuSans-73" transform="translate(1151.554688 0)"/>
     <use xlink:href="#DejaVuSans-20" transform="translate(1203.654297 0)"/>
     <use xlink:href="#DejaVuSans-6f" transform="translate(1235.441406 0)"/>
     <use xlink:href="#DejaVuSans-75" transform="translate(1296.623047 0)"/>
     <use xlink:href="#DejaVuSans-74" transform="translate(1360.001953 0)"/>
     <use xlink:href="#DejaVuSans-70" transform="translate(1399.210938 0)"/>
     <use xlink:href="#DejaVuSans-75" transform="translate(1462.6875 0)"/>
     <use xlink:href="#DejaVuSans-74" transform="translate(1526.066406 0)"/>
     <use xlink:href="#DejaVuSans-20" transform="translate(1565.275391 0)"/>
     <use xlink:href="#DejaVuSans-70" transform="translate(1597.0625 0)"/>
     <use xlink:href="#DejaVuSans-6f" transform="translate(1660.539062 0)"/>
     <use xlink:href="#DejaVuSans-72" transform="translate(1721.720703 0)"/>
     <use xlink:href="#DejaVuSans-74" transform="translate(1762.833984 0)"/>
     <use xlink:href="#DejaVuSans-20" transform="translate(1802.042969 0)"/>
     <use xlink:href="#DejaVuSans-74" transform="translate(1833.830078 0)"/>
     <use xlink:href="#DejaVuSans-6f" transform="translate(1873.039062 0)"/>
     <use xlink:href="#DejaVuSans-20" transform="translate(1934.220703 0)"/>
     <use xlink:href="#DejaVuSans-74" transform="translate(1966.007812 0)"/>
     <use xlink:href="#DejaVuSans-68" transform="translate(2005.216797 0)"/>
     <use xlink:href="#DejaVuSans-65" transform="translate(2068.595703 0)"/>
     <use xlink:href="#DejaVuSans-20" transform="translate(2130.119141 0)"/>
     <use xlink:href="#DejaVuSans-64" transform="translate(2161.90625 0)"/>
     <use xlink:href="#DejaVuSans-65" transform="translate(2225.382812 0)"/>
     <use xlink:href="#DejaVuSans-73" transform="translate(2286.90625 0)"/>
     <use xlink:href="#DejaVuSans-74" transform="translate(2339.005859 0)"/>
     <use xlink:href="#DejaVuSans-69" transform="translate(2378.214844 0)"/>
     <use xlink:href="#DejaVuSans-6e" transform="translate(2405.998047 0)"/>
     <use xlink:href="#DejaVuSans-61" transform="translate(2469.376953 0)"/>
     <use xlink:href="#DejaVuSans-74" transform="translate(2530.65625 0)"/>
     <use xlink:href="#DejaVuSans-69" transform="translate(2569.865234 0)"/>
     <use xlink:href="#DejaVuSans-6f" transform="translate(2597.648438 0)"/>
     <use xlink:href="#DejaVuSans-6e" transform="translate(2658.830078 0)"/>
     <use xlink:href="#DejaVuSans-20" transform="translate(2722.208984 0)"/>
     <use xlink:href="#DejaVuSans-62" transform="translate(2753.996094 0)"/>
     <use xlink:href="#DejaVuSans-75" transform="translate(2817.472656 0)"/>
     <use xlink:href="#DejaVuSans-66" transform="translate(2880.851562 0)"/>
     <use xlink:href="#DejaVuSans-66" transform="translate(2916.056641 0)"/>
     <use xlink:href="#DejaVuSans-65" transform="translate(2951.261719 0)"/>
     <use xlink:href="#DejaVuSans-72" transform="translate(3012.785156 0)"/>
     <use xlink:href="#DejaVuSans-27" transform="translate(3053.898438 0)"/>
     <use xlink:href="#DejaVuSans-73" transform="translate(3081.388672 0)"/>
     <use xlink:href="#DejaVuSans-20" transform="translate(3133.488281 0)"/>
     <use xlink:href="#DejaVuSans-69" transform="translate(3165.275391 0)"/>
     <use xlink:href="#DejaVuSans-6e" transform="translate(3193.058594 0)"/>
     <use xlink:href="#DejaVuSans-70" transform="translate(3256.4375 0)"/>
     <use xlink:href="#DejaVuSans-75" transform="translate(3319.914062 0)"/>
     <use xlink:href="#DejaVuSans-74" transform="translate(3383.292969 0)"/>
     <use xlink:href="#DejaVuSans-20" transform="translate(3422.501953 0)"/>
     <use xlink:href="#DejaVuSans-70" transform="translate(3454.289062 0)"/>
     <use xlink:href="#DejaVuSans-6f" transform="translate(3517.765625 0)"/>
     <use xlink:href="#DejaVuSans-72" transform="translate(3578.947266 0)"/>
     <use xlink:href="#DejaVuSans-74" transform="translate(3620.060547 0)"/>
    </g>
   </g>
   <g id="text_5">
    <!-- Port states -->
    <g style="fill: #1f2933" transform="translate(315.923008 219.982834) scale(0.1 -0.1)">
     <defs>
      <path id="DejaVuSans-Bold-50" d="M 588 4666 
L 2584 4666 
Q 3475 4666 3951 4270 
Q 4428 3875 4428 3144 
Q 4428 2409 3951 2014 
Q 3475 1619 2584 1619 
L 1791 1619 
L 1791 0 
L 588 0 
L 588 4666 
z
M 1791 3794 
L 1791 2491 
L 2456 2491 
Q 2806 2491 2997 2661 
Q 3188 2831 3188 3144 
Q 3188 3456 2997 3625 
Q 2806 3794 2456 3794 
L 1791 3794 
z
" transform="scale(0.015625)"/>
     </defs>
     <use xlink:href="#DejaVuSans-Bold-50"/>
     <use xlink:href="#DejaVuSans-Bold-6f" transform="translate(73.291016 0)"/>
     <use xlink:href="#DejaVuSans-Bold-72" transform="translate(141.992188 0)"/>
     <use xlink:href="#DejaVuSans-Bold-74" transform="translate(191.308594 0)"/>
     <use xlink:href="#DejaVuSans-Bold-20" transform="translate(239.111328 0)"/>
     <use xlink:href="#DejaVuSans-Bold-73" transform="translate(273.925781 0)"/>
     <use xlink:href="#DejaVuSans-Bold-74" transform="translate(333.447266 0)"/>
     <use xlink:href="#DejaVuSans-Bold-61" transform="translate(381.25 0)"/>
     <use xlink:href="#DejaVuSans-Bold-74" transform="translate(448.730469 0)"/>
     <use xlink:href="#DejaVuSans-Bold-65" transform="translate(496.533203 0)"/>
     <use xlink:href="#DejaVuSans-Bold-73" transform="translate(564.355469 0)"/>
    </g>
   </g>
   <g id="text_6">
    <!-- input port -->
    <g style="fill: #1f2933" transform="translate(331.990376 243.234114) scale(0.09 -0.09)">
     <defs>
      <path id="DejaVuSans-Bold-75" d="M 500 1363 
L 500 3500 
L 1625 3500 
L 1625 3150 
Q 1625 2866 1622 2436 
Q 1619 2006 1619 1863 
Q 1619 1441 1641 1255 
Q 1663 1069 1716 984 
Q 1784 875 1895 815 
Q 2006 756 2150 756 
Q 2500 756 2700 1025 
Q 2900 1294 2900 1772 
L 2900 3500 
L 4019 3500 
L 4019 0 
L 2900 0 
L 2900 506 
Q 2647 200 2364 54 
Q 2081 -91 1741 -91 
Q 1134 -91 817 281 
Q 500 653 500 1363 
z
" transform="scale(0.015625)"/>
     </defs>
     <use xlink:href="#DejaVuSans-Bold-69"/>
     <use xlink:href="#DejaVuSans-Bold-6e" transform="translate(34.277344 0)"/>
     <use xlink:href="#DejaVuSans-Bold-70" transform="translate(105.46875 0)"/>
     <use xlink:href="#DejaVuSans-Bold-75" transform="translate(177.050781 0)"/>
     <use xlink:href="#DejaVuSans-Bold-74" transform="translate(248.242188 0)"/>
     <use xlink:href="#DejaVuSans-Bold-20" transform="translate(296.044922 0)"/>
     <use xlink:href="#DejaVuSans-Bold-70" transform="translate(330.859375 0)"/>
     <use xlink:href="#DejaVuSans-Bold-6f" transform="translate(402.441406 0)"/>
     <use xlink:href="#DejaVuSans-Bold-72" transform="translate(471.142578 0)"/>
     <use xlink:href="#DejaVuSans-Bold-74" transform="translate(520.458984 0)"/>
    </g>
   </g>
   <g id="text_7">
    <!-- buffer is free to be overwritten -->
    <g style="fill: #6b7684" transform="translate(331.990376 256.868176) scale(0.085 -0.085)">
     <defs>
      <path id="DejaVuSans-76" d="M 191 3500 
L 800 3500 
L 1894 563 
L 2988 3500 
L 3597 3500 
L 2284 0 
L 1503 0 
L 191 3500 
z
" transform="scale(0.015625)"/>
      <path id="DejaVuSans-77" d="M 269 3500 
L 844 3500 
L 1563 769 
L 2278 3500 
L 2956 3500 
L 3675 769 
L 4391 3500 
L 4966 3500 
L 4050 0 
L 3372 0 
L 2619 2869 
L 1863 0 
L 1184 0 
L 269 3500 
z
" transform="scale(0.015625)"/>
     </defs>
     <use xlink:href="#DejaVuSans-62"/>
     <use xlink:href="#DejaVuSans-75" transform="translate(63.476562 0)"/>
     <use xlink:href="#DejaVuSans-66" transform="translate(126.855469 0)"/>
     <use xlink:href="#DejaVuSans-66" transform="translate(162.060547 0)"/>
     <use xlink:href="#DejaVuSans-65" transform="translate(197.265625 0)"/>
     <use xlink:href="#DejaVuSans-72" transform="translate(258.789062 0)"/>
     <use xlink:href="#DejaVuSans-20" transform="translate(299.902344 0)"/>
     <use xlink:href="#DejaVuSans-69" transform="translate(331.689453 0)"/>
     <use xlink:href="#DejaVuSans-73" transform="translate(359.472656 0)"/>
     <use xlink:href="#DejaVuSans-20" transform="translate(411.572266 0)"/>
     <use xlink:href="#DejaVuSans-66" transform="translate(443.359375 0)"/>
     <use xlink:href="#DejaVuSans-72" transform="translate(478.564453 0)"/>
     <use xlink:href="#DejaVuSans-65" transform="translate(517.427734 0)"/>
     <use xlink:href="#DejaVuSans-65" transform="translate(578.951172 0)"/>
     <use xlink:href="#DejaVuSans-20" transform="translate(640.474609 0)"/>
     <use xlink:href="#DejaVuSans-74" transform="translate(672.261719 0)"/>
     <use xlink:href="#DejaVuSans-6f" transform="translate(711.470703 0)"/>
     <use xlink:href="#DejaVuSans-20" transform="translate(772.652344 0)"/>
     <use xlink:href="#DejaVuSans-62" transform="translate(804.439453 0)"/>
     <use xlink:href="#DejaVuSans-65" transform="translate(867.916016 0)"/>
     <use xlink:href="#DejaVuSans-20" transform="translate(929.439453 0)"/>
     <use xlink:href="#DejaVuSans-6f" transform="translate(961.226562 0)"/>
     <use xlink:href="#DejaVuSans-76" transform="translate(1022.408203 0)"/>
     <use xlink:href="#DejaVuSans-65" transform="translate(1081.587891 0)"/>
     <use xlink:href="#DejaVuSans-72" transform="translate(1143.111328 0)"/>
     <use xlink:href="#DejaVuSans-77" transform="translate(1184.224609 0)"/>
     <use xlink:href="#DejaVuSans-72" transform="translate(1266.011719 0)"/>
     <use xlink:href="#DejaVuSans-69" transform="translate(1307.125 0)"/>
     <use xlink:href="#DejaVuSans-74" transform="translate(1334.908203 0)"/>
     <use xlink:href="#DejaVuSans-74" transform="translate(1374.117188 0)"/>
     <use xlink:href="#DejaVuSans-65" transform="translate(1413.326172 0)"/>
     <use xlink:href="#DejaVuSans-6e" transform="translate(1474.849609 0)"/>
    </g>
   </g>
   <g id="text_8">
    <!-- input port -->
    <g style="fill: #1f2933" transform="translate(331.990376 269.630505) scale(0.09 -0.09)">
     <use xlink:href="#DejaVuSans-Bold-69"/>
     <use xlink:href="#DejaVuSans-Bold-6e" transform="translate(34.277344 0)"/>
     <use xlink:href="#DejaVuSans-Bold-70" transform="translate(105.46875 0)"/>
     <use xlink:href="#DejaVuSans-Bold-75" transform="translate(177.050781 0)"/>
     <use xlink:href="#DejaVuSans-Bold-74" transform="translate(248.242188 0)"/>
     <use xlink:href="#DejaVuSans-Bold-20" transform="translate(296.044922 0)"/>
     <use xlink:href="#DejaVuSans-Bold-70" transform="translate(330.859375 0)"/>
     <use xlink:href="#DejaVuSans-Bold-6f" transform="translate(402.441406 0)"/>
     <use xlink:href="#DejaVuSans-Bold-72" transform="translate(471.142578 0)"/>
     <use xlink:href="#DejaVuSans-Bold-74" transform="translate(520.458984 0)"/>
    </g>
   </g>
   <g id="text_9">
    <!-- buffer still holds data in use -->
    <g style="fill: #6b7684" transform="translate(331.990376 283.264566) scale(0.085 -0.085)">
     <defs>
      <path id="DejaVuSans-6c" d="M 603 4863 
L 1178 4863 
L 1178 0 
L 603 0 
L 603 4863 
z
" transform="scale(0.015625)"/>
     </defs>
     <use xlink:href="#DejaVuSans-62"/>
     <use xlink:href="#DejaVuSans-75" transform="translate(63.476562 0)"/>
     <use xlink:href="#DejaVuSans-66" transform="translate(126.855469 0)"/>
     <use xlink:href="#DejaVuSans-66" transform="translate(162.060547 0)"/>
     <use xlink:href="#DejaVuSans-65" transform="translate(197.265625 0)"/>
     <use xlink:href="#DejaVuSans-72" transform="translate(258.789062 0)"/>
     <use xlink:href="#DejaVuSans-20" transform="translate(299.902344 0)"/>
     <use xlink:href="#DejaVuSans-73" transform="translate(331.689453 0)"/>
     <use xlink:href="#DejaVuSans-74" transform="translate(383.789062 0)"/>
     <use xlink:href="#DejaVuSans-69" transform="translate(422.998047 0)"/>
     <use xlink:href="#DejaVuSans-6c" transform="translate(450.78125 0)"/>
     <use xlink:href="#DejaVuSans-6c" transform="translate(478.564453 0)"/>
     <use xlink:href="#DejaVuSans-20" transform="translate(506.347656 0)"/>
     <use xlink:href="#DejaVuSans-68" transform="translate(538.134766 0)"/>
     <use xlink:href="#DejaVuSans-6f" transform="translate(601.513672 0)"/>
     <use xlink:href="#DejaVuSans-6c" transform="translate(662.695312 0)"/>
     <use xlink:href="#DejaVuSans-64" transform="translate(690.478516 0)"/>
     <use xlink:href="#DejaVuSans-73" transform="translate(753.955078 0)"/>
     <use xlink:href="#DejaVuSans-20" transform="translate(806.054688 0)"/>
     <use xlink:href="#DejaVuSans-64" transform="translate(837.841797 0)"/>
     <use xlink:href="#DejaVuSans-61" transform="translate(901.318359 0)"/>
     <use xlink:href="#DejaVuSans-74" transform="translate(962.597656 0)"/>
     <use xlink:href="#DejaVuSans-61" transform="translate(1001.806641 0)"/>
     <use xlink:href="#DejaVuSans-20" transform="translate(1063.085938 0)"/>
     <use xlink:href="#DejaVuSans-69" transform="translate(1094.873047 0)"/>
     <use xlink:href="#DejaVuSans-6e" transform="translate(1122.65625 0)"/>
     <use xlink:href="#DejaVuSans-20" transform="translate(1186.035156 0)"/>
     <use xlink:href="#DejaVuSans-75" transform="translate(1217.822266 0)"/>
     <use xlink:href="#DejaVuSans-73" transform="translate(1281.201172 0)"/>
     <use xlink:href="#DejaVuSans-65" transform="translate(1333.300781 0)"/>
    </g>
   </g>
   <g id="text_10">
    <!-- output port -->
    <g style="fill: #1f2933" transform="translate(331.990376 296.026896) scale(0.09 -0.09)">
     <use xlink:href="#DejaVuSans-Bold-6f"/>
     <use xlink:href="#DejaVuSans-Bold-75" transform="translate(68.701172 0)"/>
     <use xlink:href="#DejaVuSans-Bold-74" transform="translate(139.892578 0)"/>
     <use xlink:href="#DejaVuSans-Bold-70" transform="translate(187.695312 0)"/>
     <use xlink:href="#DejaVuSans-Bold-75" transform="translate(259.277344 0)"/>
     <use xlink:href="#DejaVuSans-Bold-74" transform="translate(330.46875 0)"/>
     <use xlink:href="#DejaVuSans-Bold-20" transform="translate(378.271484 0)"/>
     <use xlink:href="#DejaVuSans-Bold-70" transform="translate(413.085938 0)"/>
     <use xlink:href="#DejaVuSans-Bold-6f" transform="translate(484.667969 0)"/>
     <use xlink:href="#DejaVuSans-Bold-72" transform="translate(553.369141 0)"/>
     <use xlink:href="#DejaVuSans-Bold-74" transform="translate(602.685547 0)"/>
    </g>
   </g>
   <g id="text_11">
    <!-- data is ready to be consumed -->
    <g style="fill: #6b7684" transform="translate(331.990376 309.660957) scale(0.085 -0.085)">
     <use xlink:href="#DejaVuSans-64"/>
     <use xlink:href="#DejaVuSans-61" transform="translate(63.476562 0)"/>
     <use xlink:href="#DejaVuSans-74" transform="translate(124.755859 0)"/>
     <use xlink:href="#DejaVuSans-61" transform="translate(163.964844 0)"/>
     <use xlink:href="#DejaVuSans-20" transform="translate(225.244141 0)"/>
     <use xlink:href="#DejaVuSans-69" transform="translate(257.03125 0)"/>
     <use xlink:href="#DejaVuSans-73" transform="translate(284.814453 0)"/>
     <use xlink:href="#DejaVuSans-20" transform="translate(336.914062 0)"/>
     <use xlink:href="#DejaVuSans-72" transform="translate(368.701172 0)"/>
     <use xlink:href="#DejaVuSans-65" transform="translate(407.564453 0)"/>
     <use xlink:href="#DejaVuSans-61" transform="translate(469.087891 0)"/>
     <use xlink:href="#DejaVuSans-64" transform="translate(530.367188 0)"/>
     <use xlink:href="#DejaVuSans-79" transform="translate(593.84375 0)"/>
     <use xlink:href="#DejaVuSans-20" transform="translate(653.023438 0)"/>
     <use xlink:href="#DejaVuSans-74" transform="translate(684.810547 0)"/>
     <use xlink:href="#DejaVuSans-6f" transform="translate(724.019531 0)"/>
     <use xlink:href="#DejaVuSans-20" transform="translate(785.201172 0)"/>
     <use xlink:href="#DejaVuSans-62" transform="translate(816.988281 0)"/>
     <use xlink:href="#DejaVuSans-65" transform="translate(880.464844 0)"/>
     <use xlink:href="#DejaVuSans-20" transform="translate(941.988281 0)"/>
     <use xlink:href="#DejaVuSans-63" transform="translate(973.775391 0)"/>
     <use xlink:href="#DejaVuSans-6f" transform="translate(1028.755859 0)"/>
     <use xlink:href="#DejaVuSans-6e" transform="translate(1089.9375 0)"/>
     <use xlink:href="#DejaVuSans-73" transform="translate(1153.316406 0)"/>
     <use xlink:href="#DejaVuSans-75" transform="translate(1205.416016 0)"/>
     <use xlink:href="#DejaVuSans-6d" transform="translate(1268.794922 0)"/>
     <use xlink:href="#DejaVuSans-65" transform="translate(1366.207031 0)"/>
     <use xlink:href="#DejaVuSans-64" transform="translate(1427.730469 0)"/>
    </g>
   </g>
   <g id="text_12">
    <!-- output port -->
    <g style="fill: #1f2933" transform="translate(331.990376 322.423287) scale(0.09 -0.09)">
     <use xlink:href="#DejaVuSans-Bold-6f"/>
     <use xlink:href="#DejaVuSans-Bold-75" transform="translate(68.701172 0)"/>
     <use xlink:href="#DejaVuSans-Bold-74" transform="translate(139.892578 0)"/>
     <use xlink:href="#DejaVuSans-Bold-70" transform="translate(187.695312 0)"/>
     <use xlink:href="#DejaVuSans-Bold-75" transform="translate(259.277344 0)"/>
     <use xlink:href="#DejaVuSans-Bold-74" transform="translate(330.46875 0)"/>
     <use xlink:href="#DejaVuSans-Bold-20" transform="translate(378.271484 0)"/>
     <use xlink:href="#DejaVuSans-Bold-70" transform="translate(413.085938 0)"/>
     <use xlink:href="#DejaVuSans-Bold-6f" transform="translate(484.667969 0)"/>
     <use xlink:href="#DejaVuSans-Bold-72" transform="translate(553.369141 0)"/>
     <use xlink:href="#DejaVuSans-Bold-74" transform="translate(602.685547 0)"/>
    </g>
   </g>
   <g id="text_13">
    <!-- data is not ready yet -->
    <g style="fill: #6b7684" transform="translate(331.990376 336.057348) scale(0.085 -0.085)">
     <use xlink:href="#DejaVuSans-64"/>
     <use xlink:href="#DejaVuSans-61" transform="translate(63.476562 0)"/>
     <use xlink:href="#DejaVuSans-74" transform="translate(124.755859 0)"/>
     <use xlink:href="#DejaVuSans-61" transform="translate(163.964844 0)"/>
     <use xlink:href="#DejaVuSans-20" transform="translate(225.244141 0)"/>
     <use xlink:href="#DejaVuSans-69" transform="translate(257.03125 0)"/>
     <use xlink:href="#DejaVuSans-73" transform="translate(284.814453 0)"/>
     <use xlink:href="#DejaVuSans-20" transform="translate(336.914062 0)"/>
     <use xlink:href="#DejaVuSans-6e" transform="translate(368.701172 0)"/>
     <use xlink:href="#DejaVuSans-6f" transform="translate(432.080078 0)"/>
     <use xlink:href="#DejaVuSans-74" transform="translate(493.261719 0)"/>
     <use xlink:href="#DejaVuSans-20" transform="translate(532.470703 0)"/>
     <use xlink:href="#DejaVuSans-72" transform="translate(564.257812 0)"/>
     <use xlink:href="#DejaVuSans-65" transform="translate(603.121094 0)"/>
     <use xlink:href="#DejaVuSans-61" transform="translate(664.644531 0)"/>
     <use xlink:href="#DejaVuSans-64" transform="translate(725.923828 0)"/>
     <use xlink:href="#DejaVuSans-79" transform="translate(789.400391 0)"/>
     <use xlink:href="#DejaVuSans-20" transform="translate(848.580078 0)"/>
     <use xlink:href="#DejaVuSans-79" transform="translate(880.367188 0)"/>
     <use xlink:href="#DejaVuSans-65" transform="translate(939.546875 0)"/>
     <use xlink:href="#DejaVuSans-74" transform="translate(1001.070312 0)"/>
    </g>
   </g>
   <g id="text_14">
    <!-- The pipe is only the connection — it holds no state of its own. The operation may start only when the -->
    <g style="fill: #1f2933" transform="translate(24.415038 360.543746) scale(0.09 -0.09)">
     <defs>
      <path id="DejaVuSans-54" d="M -19 4666 
L 3928 4666 
L 3928 4134 
L 2272 4134 
L 2272 0 
L 1638 0 
L 1638 4134 
L -19 4134 
L -19 4666 
z
" transform="scale(0.015625)"/>
      <path id="DejaVuSans-2014" d="M 313 1978 
L 6088 1978 
L 6088 1528 
L 313 1528 
L 313 1978 
z
" transform="scale(0.015625)"/>
      <path id="DejaVuSans-2e" d="M 684 794 
L 1344 794 
L 1344 0 
L 684 0 
L 684 794 
z
" transform="scale(0.015625)"/>
     </defs>
     <use xlink:href="#DejaVuSans-54"/>
     <use xlink:href="#DejaVuSans-68" transform="translate(61.083984 0)"/>
     <use xlink:href="#DejaVuSans-65" transform="translate(124.462891 0)"/>
     <use xlink:href="#DejaVuSans-20" transform="translate(185.986328 0)"/>
     <use xlink:href="#DejaVuSans-70" transform="translate(217.773438 0)"/>
     <use xlink:href="#DejaVuSans-69" transform="translate(281.25 0)"/>
     <use xlink:href="#DejaVuSans-70" transform="translate(309.033203 0)"/>
     <use xlink:href="#DejaVuSans-65" transform="translate(372.509766 0)"/>
     <use xlink:href="#DejaVuSans-20" transform="translate(434.033203 0)"/>
     <use xlink:href="#DejaVuSans-69" transform="translate(465.820312 0)"/>
     <use xlink:href="#DejaVuSans-73" transform="translate(493.603516 0)"/>
     <use xlink:href="#DejaVuSans-20" transform="translate(545.703125 0)"/>
     <use xlink:href="#DejaVuSans-6f" transform="translate(577.490234 0)"/>
     <use xlink:href="#DejaVuSans-6e" transform="translate(638.671875 0)"/>
     <use xlink:href="#DejaVuSans-6c" transform="translate(702.050781 0)"/>
     <use xlink:href="#DejaVuSans-79" transform="translate(729.833984 0)"/>
     <use xlink:href="#DejaVuSans-20" transform="translate(789.013672 0)"/>
     <use xlink:href="#DejaVuSans-74" transform="translate(820.800781 0)"/>
     <use xlink:href="#DejaVuSans-68" transform="translate(860.009766 0)"/>
     <use xlink:href="#DejaVuSans-65" transform="translate(923.388672 0)"/>
     <use xlink:href="#DejaVuSans-20" transform="translate(984.912109 0)"/>
     <use xlink:href="#DejaVuSans-63" transform="translate(1016.699219 0)"/>
     <use xlink:href="#DejaVuSans-6f" transform="translate(1071.679688 0)"/>
     <use xlink:href="#DejaVuSans-6e" transform="translate(1132.861328 0)"/>
     <use xlink:href="#DejaVuSans-6e" transform="translate(1196.240234 0)"/>
     <use xlink:href="#DejaVuSans-65" transform="translate(1259.619141 0)"/>
     <use xlink:href="#DejaVuSans-63" transform="translate(1321.142578 0)"/>
     <use xlink:href="#DejaVuSans-74" transform="translate(1376.123047 0)"/>
     <use xlink:href="#DejaVuSans-69" transform="translate(1415.332031 0)"/>
     <use xlink:href="#DejaVuSans-6f" transform="translate(1443.115234 0)"/>
     <use xlink:href="#DejaVuSans-6e" transform="translate(1504.296875 0)"/>
     <use xlink:href="#DejaVuSans-20" transform="translate(1567.675781 0)"/>
     <use xlink:href="#DejaVuSans-2014" transform="translate(1599.462891 0)"/>
     <use xlink:href="#DejaVuSans-20" transform="translate(1699.462891 0)"/>
     <use xlink:href="#DejaVuSans-69" transform="translate(1731.25 0)"/>
     <use xlink:href="#DejaVuSans-74" transform="translate(1759.033203 0)"/>
     <use xlink:href="#DejaVuSans-20" transform="translate(1798.242188 0)"/>
     <use xlink:href="#DejaVuSans-68" transform="translate(1830.029297 0)"/>
     <use xlink:href="#DejaVuSans-6f" transform="translate(1893.408203 0)"/>
     <use xlink:href="#DejaVuSans-6c" transform="translate(1954.589844 0)"/>
     <use xlink:href="#DejaVuSans-64" transform="translate(1982.373047 0)"/>
     <use xlink:href="#DejaVuSans-73" transform="translate(2045.849609 0)"/>
     <use xlink:href="#DejaVuSans-20" transform="translate(2097.949219 0)"/>
     <use xlink:href="#DejaVuSans-6e" transform="translate(2129.736328 0)"/>
     <use xlink:href="#DejaVuSans-6f" transform="translate(2193.115234 0)"/>
     <use xlink:href="#DejaVuSans-20" transform="translate(2254.296875 0)"/>
     <use xlink:href="#DejaVuSans-73" transform="translate(2286.083984 0)"/>
     <use xlink:href="#DejaVuSans-74" transform="translate(2338.183594 0)"/>
     <use xlink:href="#DejaVuSans-61" transform="translate(2377.392578 0)"/>
     <use xlink:href="#DejaVuSans-74" transform="translate(2438.671875 0)"/>
     <use xlink:href="#DejaVuSans-65" transform="translate(2477.880859 0)"/>
     <use xlink:href="#DejaVuSans-20" transform="translate(2539.404297 0)"/>
     <use xlink:href="#DejaVuSans-6f" transform="translate(2571.191406 0)"/>
     <use xlink:href="#DejaVuSans-66" transform="translate(2632.373047 0)"/>
     <use xlink:href="#DejaVuSans-20" transform="translate(2667.578125 0)"/>
     <use xlink:href="#DejaVuSans-69" transform="translate(2699.365234 0)"/>
     <use xlink:href="#DejaVuSans-74" transform="translate(2727.148438 0)"/>
     <use xlink:href="#DejaVuSans-73" transform="translate(2766.357422 0)"/>
     <use xlink:href="#DejaVuSans-20" transform="translate(2818.457031 0)"/>
     <use xlink:href="#DejaVuSans-6f" transform="translate(2850.244141 0)"/>
     <use xlink:href="#DejaVuSans-77" transform="translate(2911.425781 0)"/>
     <use xlink:href="#DejaVuSans-6e" transform="translate(2993.212891 0)"/>
     <use xlink:href="#DejaVuSans-2e" transform="translate(3056.591797 0)"/>
     <use xlink:href="#DejaVuSans-20" transform="translate(3088.378906 0)"/>
     <use xlink:href="#DejaVuSans-54" transform="translate(3120.166016 0)"/>
     <use xlink:href="#DejaVuSans-68" transform="translate(3181.25 0)"/>
     <use xlink:href="#DejaVuSans-65" transform="translate(3244.628906 0)"/>
     <use xlink:href="#DejaVuSans-20" transform="translate(3306.152344 0)"/>
     <use xlink:href="#DejaVuSans-6f" transform="translate(3337.939453 0)"/>
     <use xlink:href="#DejaVuSans-70" transform="translate(3399.121094 0)"/>
     <use xlink:href="#DejaVuSans-65" transform="translate(3462.597656 0)"/>
     <use xlink:href="#DejaVuSans-72" transform="translate(3524.121094 0)"/>
     <use xlink:href="#DejaVuSans-61" transform="translate(3565.234375 0)"/>
     <use xlink:href="#DejaVuSans-74" transform="translate(3626.513672 0)"/>
     <use xlink:href="#DejaVuSans-69" transform="translate(3665.722656 0)"/>
     <use xlink:href="#DejaVuSans-6f" transform="translate(3693.505859 0)"/>
     <use xlink:href="#DejaVuSans-6e" transform="translate(3754.6875 0)"/>
     <use xlink:href="#DejaVuSans-20" transform="translate(3818.066406 0)"/>
     <use xlink:href="#DejaVuSans-6d" transform="translate(3849.853516 0)"/>
     <use xlink:href="#DejaVuSans-61" transform="translate(3947.265625 0)"/>
     <use xlink:href="#DejaVuSans-79" transform="translate(4008.544922 0)"/>
     <use xlink:href="#DejaVuSans-20" transform="translate(4067.724609 0)"/>
     <use xlink:href="#DejaVuSans-73" transform="translate(4099.511719 0)"/>
     <use xlink:href="#DejaVuSans-74" transform="translate(4151.611328 0)"/>
     <use xlink:href="#DejaVuSans-61" transform="translate(4190.820312 0)"/>
     <use xlink:href="#DejaVuSans-72" transform="translate(4252.099609 0)"/>
     <use xlink:href="#DejaVuSans-74" transform="translate(4293.212891 0)"/>
     <use xlink:href="#DejaVuSans-20" transform="translate(4332.421875 0)"/>
     <use xlink:href="#DejaVuSans-6f" transform="translate(4364.208984 0)"/>
     <use xlink:href="#DejaVuSans-6e" transform="translate(4425.390625 0)"/>
     <use xlink:href="#DejaVuSans-6c" transform="translate(4488.769531 0)"/>
     <use xlink:href="#DejaVuSans-79" transform="translate(4516.552734 0)"/>
     <use xlink:href="#DejaVuSans-20" transform="translate(4575.732422 0)"/>
     <use xlink:href="#DejaVuSans-77" transform="translate(4607.519531 0)"/>
     <use xlink:href="#DejaVuSans-68" transform="translate(4689.306641 0)"/>
     <use xlink:href="#DejaVuSans-65" transform="translate(4752.685547 0)"/>
     <use xlink:href="#DejaVuSans-6e" transform="translate(4814.208984 0)"/>
     <use xlink:href="#DejaVuSans-20" transform="translate(4877.587891 0)"/>
     <use xlink:href="#DejaVuSans-74" transform="translate(4909.375 0)"/>
     <use xlink:href="#DejaVuSans-68" transform="translate(4948.583984 0)"/>
     <use xlink:href="#DejaVuSans-65" transform="translate(5011.962891 0)"/>
    </g>
    <!-- output port feeding it and the input port it feeds are both green, and it is the ports that then flip. -->
    <g style="fill: #1f2933" transform="translate(24.415038 372.673355) scale(0.09 -0.09)">
     <defs>
      <path id="DejaVuSans-67" d="M 2906 1791 
Q 2906 2416 2648 2759 
Q 2391 3103 1925 3103 
Q 1463 3103 1205 2759 
Q 947 2416 947 1791 
Q 947 1169 1205 825 
Q 1463 481 1925 481 
Q 2391 481 2648 825 
Q 2906 1169 2906 1791 
z
M 3481 434 
Q 3481 -459 3084 -895 
Q 2688 -1331 1869 -1331 
Q 1566 -1331 1297 -1286 
Q 1028 -1241 775 -1147 
L 775 -588 
Q 1028 -725 1275 -790 
Q 1522 -856 1778 -856 
Q 2344 -856 2625 -561 
Q 2906 -266 2906 331 
L 2906 616 
Q 2728 306 2450 153 
Q 2172 0 1784 0 
Q 1141 0 747 490 
Q 353 981 353 1791 
Q 353 2603 747 3093 
Q 1141 3584 1784 3584 
Q 2172 3584 2450 3431 
Q 2728 3278 2906 2969 
L 2906 3500 
L 3481 3500 
L 3481 434 
z
" transform="scale(0.015625)"/>
      <path id="DejaVuSans-2c" d="M 750 794 
L 1409 794 
L 1409 256 
L 897 -744 
L 494 -744 
L 750 256 
L 750 794 
z
" transform="scale(0.015625)"/>
     </defs>
     <use xlink:href="#DejaVuSans-6f"/>
     <use xlink:href="#DejaVuSans-75" transform="translate(61.181641 0)"/>
     <use xlink:href="#DejaVuSans-74" transform="translate(124.560547 0)"/>
     <use xlink:href="#DejaVuSans-70" transform="translate(163.769531 0)"/>
     <use xlink:href="#DejaVuSans-75" transform="translate(227.246094 0)"/>
     <use xlink:href="#DejaVuSans-74" transform="translate(290.625 0)"/>
     <use xlink:href="#DejaVuSans-20" transform="translate(329.833984 0)"/>
     <use xlink:href="#DejaVuSans-70" transform="translate(361.621094 0)"/>
     <use xlink:href="#DejaVuSans-6f" transform="translate(425.097656 0)"/>
     <use xlink:href="#DejaVuSans-72" transform="translate(486.279297 0)"/>
     <use xlink:href="#DejaVuSans-74" transform="translate(527.392578 0)"/>
     <use xlink:href="#DejaVuSans-20" transform="translate(566.601562 0)"/>
     <use xlink:href="#DejaVuSans-66" transform="translate(598.388672 0)"/>
     <use xlink:href="#DejaVuSans-65" transform="translate(633.59375 0)"/>
     <use xlink:href="#DejaVuSans-65" transform="translate(695.117188 0)"/>
     <use xlink:href="#DejaVuSans-64" transform="translate(756.640625 0)"/>
     <use xlink:href="#DejaVuSans-69" transform="translate(820.117188 0)"/>
     <use xlink:href="#DejaVuSans-6e" transform="translate(847.900391 0)"/>
     <use xlink:href="#DejaVuSans-67" transform="translate(911.279297 0)"/>
     <use xlink:href="#DejaVuSans-20" transform="translate(974.755859 0)"/>
     <use xlink:href="#DejaVuSans-69" transform="translate(1006.542969 0)"/>
     <use xlink:href="#DejaVuSans-74" transform="translate(1034.326172 0)"/>
     <use xlink:href="#DejaVuSans-20" transform="translate(1073.535156 0)"/>
     <use xlink:href="#DejaVuSans-61" transform="translate(1105.322266 0)"/>
     <use xlink:href="#DejaVuSans-6e" transform="translate(1166.601562 0)"/>
     <use xlink:href="#DejaVuSans-64" transform="translate(1229.980469 0)"/>
     <use xlink:href="#DejaVuSans-20" transform="translate(1293.457031 0)"/>
     <use xlink:href="#DejaVuSans-74" transform="translate(1325.244141 0)"/>
     <use xlink:href="#DejaVuSans-68" transform="translate(1364.453125 0)"/>
     <use xlink:href="#DejaVuSans-65" transform="translate(1427.832031 0)"/>
     <use xlink:href="#DejaVuSans-20" transform="translate(1489.355469 0)"/>
     <use xlink:href="#DejaVuSans-69" transform="translate(1521.142578 0)"/>
     <use xlink:href="#DejaVuSans-6e" transform="translate(1548.925781 0)"/>
     <use xlink:href="#DejaVuSans-70" transform="translate(1612.304688 0)"/>
     <use xlink:href="#DejaVuSans-75" transform="translate(1675.78125 0)"/>
     <use xlink:href="#DejaVuSans-74" transform="translate(1739.160156 0)"/>
     <use xlink:href="#DejaVuSans-20" transform="translate(1778.369141 0)"/>
     <use xlink:href="#DejaVuSans-70" transform="translate(1810.15625 0)"/>
     <use xlink:href="#DejaVuSans-6f" transform="translate(1873.632812 0)"/>
     <use xlink:href="#DejaVuSans-72" transform="translate(1934.814453 0)"/>
     <use xlink:href="#DejaVuSans-74" transform="translate(1975.927734 0)"/>
     <use xlink:href="#DejaVuSans-20" transform="translate(2015.136719 0)"/>
     <use xlink:href="#DejaVuSans-69" transform="translate(2046.923828 0)"/>
     <use xlink:href="#DejaVuSans-74" transform="translate(2074.707031 0)"/>
     <use xlink:href="#DejaVuSans-20" transform="translate(2113.916016 0)"/>
     <use xlink:href="#DejaVuSans-66" transform="translate(2145.703125 0)"/>
     <use xlink:href="#DejaVuSans-65" transform="translate(2180.908203 0)"/>
     <use xlink:href="#DejaVuSans-65" transform="translate(2242.431641 0)"/>
     <use xlink:href="#DejaVuSans-64" transform="translate(2303.955078 0)"/>
     <use xlink:href="#DejaVuSans-73" transform="translate(2367.431641 0)"/>
     <use xlink:href="#DejaVuSans-20" transform="translate(2419.53125 0)"/>
     <use xlink:href="#DejaVuSans-61" transform="translate(2451.318359 0)"/>
     <use xlink:href="#DejaVuSans-72" transform="translate(2512.597656 0)"/>
     <use xlink:href="#DejaVuSans-65" transform="translate(2551.460938 0)"/>
     <use xlink:href="#DejaVuSans-20" transform="translate(2612.984375 0)"/>
     <use xlink:href="#DejaVuSans-62" transform="translate(2644.771484 0)"/>
     <use xlink:href="#DejaVuSans-6f" transform="translate(2708.248047 0)"/>
     <use xlink:href="#DejaVuSans-74" transform="translate(2769.429688 0)"/>
     <use xlink:href="#DejaVuSans-68" transform="translate(2808.638672 0)"/>
     <use xlink:href="#DejaVuSans-20" transform="translate(2872.017578 0)"/>
     <use xlink:href="#DejaVuSans-67" transform="translate(2903.804688 0)"/>
     <use xlink:href="#DejaVuSans-72" transform="translate(2967.28125 0)"/>
     <use xlink:href="#DejaVuSans-65" transform="translate(3006.144531 0)"/>
     <use xlink:href="#DejaVuSans-65" transform="translate(3067.667969 0)"/>
     <use xlink:href="#DejaVuSans-6e" transform="translate(3129.191406 0)"/>
     <use xlink:href="#DejaVuSans-2c" transform="translate(3192.570312 0)"/>
     <use xlink:href="#DejaVuSans-20" transform="translate(3224.357422 0)"/>
     <use xlink:href="#DejaVuSans-61" transform="translate(3256.144531 0)"/>
     <use xlink:href="#DejaVuSans-6e" transform="translate(3317.423828 0)"/>
     <use xlink:href="#DejaVuSans-64" transform="translate(3380.802734 0)"/>
     <use xlink:href="#DejaVuSans-20" transform="translate(3444.279297 0)"/>
     <use xlink:href="#DejaVuSans-69" transform="translate(3476.066406 0)"/>
     <use xlink:href="#DejaVuSans-74" transform="translate(3503.849609 0)"/>
     <use xlink:href="#DejaVuSans-20" transform="translate(3543.058594 0)"/>
     <use xlink:href="#DejaVuSans-69" transform="translate(3574.845703 0)"/>
     <use xlink:href="#DejaVuSans-73" transform="translate(3602.628906 0)"/>
     <use xlink:href="#DejaVuSans-20" transform="translate(3654.728516 0)"/>
     <use xlink:href="#DejaVuSans-74" transform="translate(3686.515625 0)"/>
     <use xlink:href="#DejaVuSans-68" transform="translate(3725.724609 0)"/>
     <use xlink:href="#DejaVuSans-65" transform="translate(3789.103516 0)"/>
     <use xlink:href="#DejaVuSans-20" transform="translate(3850.626953 0)"/>
     <use xlink:href="#DejaVuSans-70" transform="translate(3882.414062 0)"/>
     <use xlink:href="#DejaVuSans-6f" transform="translate(3945.890625 0)"/>
     <use xlink:href="#DejaVuSans-72" transform="translate(4007.072266 0)"/>
     <use xlink:href="#DejaVuSans-74" transform="translate(4048.185547 0)"/>
     <use xlink:href="#DejaVuSans-73" transform="translate(4087.394531 0)"/>
     <use xlink:href="#DejaVuSans-20" transform="translate(4139.494141 0)"/>
     <use xlink:href="#DejaVuSans-74" transform="translate(4171.28125 0)"/>
     <use xlink:href="#DejaVuSans-68" transform="translate(4210.490234 0)"/>
     <use xlink:href="#DejaVuSans-61" transform="translate(4273.869141 0)"/>
     <use xlink:href="#DejaVuSans-74" transform="translate(4335.148438 0)"/>
     <use xlink:href="#DejaVuSans-20" transform="translate(4374.357422 0)"/>
     <use xlink:href="#DejaVuSans-74" transform="translate(4406.144531 0)"/>
     <use xlink:href="#DejaVuSans-68" transform="translate(4445.353516 0)"/>
     <use xlink:href="#DejaVuSans-65" transform="translate(4508.732422 0)"/>
     <use xlink:href="#DejaVuSans-6e" transform="translate(4570.255859 0)"/>
     <use xlink:href="#DejaVuSans-20" transform="translate(4633.634766 0)"/>
     <use xlink:href="#DejaVuSans-66" transform="translate(4665.421875 0)"/>
     <use xlink:href="#DejaVuSans-6c" transform="translate(4700.626953 0)"/>
     <use xlink:href="#DejaVuSans-69" transform="translate(4728.410156 0)"/>
     <use xlink:href="#DejaVuSans-70" transform="translate(4756.193359 0)"/>
     <use xlink:href="#DejaVuSans-2e" transform="translate(4819.669922 0)"/>
    </g>
   </g>
   <g id="text_15">
    <!-- TMA buffer -->
    <g style="fill: #1f2933" transform="translate(102.873393 104.758091) scale(0.125 -0.125)">
     <defs>
      <path id="DejaVuSans-Bold-54" d="M 31 4666 
L 4331 4666 
L 4331 3756 
L 2784 3756 
L 2784 0 
L 1581 0 
L 1581 3756 
L 31 3756 
L 31 4666 
z
" transform="scale(0.015625)"/>
      <path id="DejaVuSans-Bold-4d" d="M 588 4666 
L 2119 4666 
L 3181 2169 
L 4250 4666 
L 5778 4666 
L 5778 0 
L 4641 0 
L 4641 3413 
L 3566 897 
L 2803 897 
L 1728 3413 
L 1728 0 
L 588 0 
L 588 4666 
z
" transform="scale(0.015625)"/>
      <path id="DejaVuSans-Bold-66" d="M 2841 4863 
L 2841 4128 
L 2222 4128 
Q 1984 4128 1890 4042 
Q 1797 3956 1797 3744 
L 1797 3500 
L 2753 3500 
L 2753 2700 
L 1797 2700 
L 1797 0 
L 678 0 
L 678 2700 
L 122 2700 
L 122 3500 
L 678 3500 
L 678 3744 
Q 678 4316 997 4589 
Q 1316 4863 1984 4863 
L 2841 4863 
z
" transform="scale(0.015625)"/>
     </defs>
     <use xlink:href="#DejaVuSans-Bold-54"/>
     <use xlink:href="#DejaVuSans-Bold-4d" transform="translate(68.212891 0)"/>
     <use xlink:href="#DejaVuSans-Bold-41" transform="translate(167.724609 0)"/>
     <use xlink:href="#DejaVuSans-Bold-20" transform="translate(245.117188 0)"/>
     <use xlink:href="#DejaVuSans-Bold-62" transform="translate(279.931641 0)"/>
     <use xlink:href="#DejaVuSans-Bold-75" transform="translate(351.513672 0)"/>
     <use xlink:href="#DejaVuSans-Bold-66" transform="translate(422.705078 0)"/>
     <use xlink:href="#DejaVuSans-Bold-66" transform="translate(466.210938 0)"/>
     <use xlink:href="#DejaVuSans-Bold-65" transform="translate(509.716797 0)"/>
     <use xlink:href="#DejaVuSans-Bold-72" transform="translate(577.539062 0)"/>
    </g>
   </g>
   <g id="text_16">
    <!-- SMEM  ·  A / B input tiles -->
    <g style="fill: #6b7684" transform="translate(87.080112 125.024189) scale(0.09 -0.09)">
     <defs>
      <path id="DejaVuSans-53" d="M 3425 4513 
L 3425 3897 
Q 3066 4069 2747 4153 
Q 2428 4238 2131 4238 
Q 1616 4238 1336 4038 
Q 1056 3838 1056 3469 
Q 1056 3159 1242 3001 
Q 1428 2844 1947 2747 
L 2328 2669 
Q 3034 2534 3370 2195 
Q 3706 1856 3706 1288 
Q 3706 609 3251 259 
Q 2797 -91 1919 -91 
Q 1588 -91 1214 -16 
Q 841 59 441 206 
L 441 856 
Q 825 641 1194 531 
Q 1563 422 1919 422 
Q 2459 422 2753 634 
Q 3047 847 3047 1241 
Q 3047 1584 2836 1778 
Q 2625 1972 2144 2069 
L 1759 2144 
Q 1053 2284 737 2584 
Q 422 2884 422 3419 
Q 422 4038 858 4394 
Q 1294 4750 2059 4750 
Q 2388 4750 2728 4690 
Q 3069 4631 3425 4513 
z
" transform="scale(0.015625)"/>
      <path id="DejaVuSans-45" d="M 628 4666 
L 3578 4666 
L 3578 4134 
L 1259 4134 
L 1259 2753 
L 3481 2753 
L 3481 2222 
L 1259 2222 
L 1259 531 
L 3634 531 
L 3634 0 
L 628 0 
L 628 4666 
z
" transform="scale(0.015625)"/>
      <path id="DejaVuSans-b7" d="M 684 2619 
L 1344 2619 
L 1344 1825 
L 684 1825 
L 684 2619 
z
" transform="scale(0.015625)"/>
      <path id="DejaVuSans-2f" d="M 1625 4666 
L 2156 4666 
L 531 -594 
L 0 -594 
L 1625 4666 
z
" transform="scale(0.015625)"/>
      <path id="DejaVuSans-42" d="M 1259 2228 
L 1259 519 
L 2272 519 
Q 2781 519 3026 730 
Q 3272 941 3272 1375 
Q 3272 1813 3026 2020 
Q 2781 2228 2272 2228 
L 1259 2228 
z
M 1259 4147 
L 1259 2741 
L 2194 2741 
Q 2656 2741 2882 2914 
Q 3109 3088 3109 3444 
Q 3109 3797 2882 3972 
Q 2656 4147 2194 4147 
L 1259 4147 
z
M 628 4666 
L 2241 4666 
Q 2963 4666 3353 4366 
Q 3744 4066 3744 3513 
Q 3744 3084 3544 2831 
Q 3344 2578 2956 2516 
Q 3422 2416 3680 2098 
Q 3938 1781 3938 1306 
Q 3938 681 3513 340 
Q 3088 0 2303 0 
L 628 0 
L 628 4666 
z
" transform="scale(0.015625)"/>
     </defs>
     <use xlink:href="#DejaVuSans-53"/>
     <use xlink:href="#DejaVuSans-4d" transform="translate(63.476562 0)"/>
     <use xlink:href="#DejaVuSans-45" transform="translate(149.755859 0)"/>
     <use xlink:href="#DejaVuSans-4d" transform="translate(212.939453 0)"/>
     <use xlink:href="#DejaVuSans-20" transform="translate(299.21875 0)"/>
     <use xlink:href="#DejaVuSans-20" transform="translate(331.005859 0)"/>
     <use xlink:href="#DejaVuSans-b7" transform="translate(362.792969 0)"/>
     <use xlink:href="#DejaVuSans-20" transform="translate(394.580078 0)"/>
     <use xlink:href="#DejaVuSans-20" transform="translate(426.367188 0)"/>
     <use xlink:href="#DejaVuSans-41" transform="translate(458.154297 0)"/>
     <use xlink:href="#DejaVuSans-20" transform="translate(526.5625 0)"/>
     <use xlink:href="#DejaVuSans-2f" transform="translate(558.349609 0)"/>
     <use xlink:href="#DejaVuSans-20" transform="translate(592.041016 0)"/>
     <use xlink:href="#DejaVuSans-42" transform="translate(623.828125 0)"/>
     <use xlink:href="#DejaVuSans-20" transform="translate(692.431641 0)"/>
     <use xlink:href="#DejaVuSans-69" transform="translate(724.21875 0)"/>
     <use xlink:href="#DejaVuSans-6e" transform="translate(752.001953 0)"/>
     <use xlink:href="#DejaVuSans-70" transform="translate(815.380859 0)"/>
     <use xlink:href="#DejaVuSans-75" transform="translate(878.857422 0)"/>
     <use xlink:href="#DejaVuSans-74" transform="translate(942.236328 0)"/>
     <use xlink:href="#DejaVuSans-20" transform="translate(981.445312 0)"/>
     <use xlink:href="#DejaVuSans-74" transform="translate(1013.232422 0)"/>
     <use xlink:href="#DejaVuSans-69" transform="translate(1052.441406 0)"/>
     <use xlink:href="#DejaVuSans-6c" transform="translate(1080.224609 0)"/>
     <use xlink:href="#DejaVuSans-65" transform="translate(1108.007812 0)"/>
     <use xlink:href="#DejaVuSans-73" transform="translate(1169.53125 0)"/>
    </g>
   </g>
   <g id="text_17">
    <!-- MMA buffer -->
    <g style="fill: #1f2933" transform="translate(100.917339 251.08591) scale(0.125 -0.125)">
     <use xlink:href="#DejaVuSans-Bold-4d"/>
     <use xlink:href="#DejaVuSans-Bold-4d" transform="translate(99.511719 0)"/>
     <use xlink:href="#DejaVuSans-Bold-41" transform="translate(199.023438 0)"/>
     <use xlink:href="#DejaVuSans-Bold-20" transform="translate(276.416016 0)"/>
     <use xlink:href="#DejaVuSans-Bold-62" transform="translate(311.230469 0)"/>
     <use xlink:href="#DejaVuSans-Bold-75" transform="translate(382.8125 0)"/>
     <use xlink:href="#DejaVuSans-Bold-66" transform="translate(454.003906 0)"/>
     <use xlink:href="#DejaVuSans-Bold-66" transform="translate(497.509766 0)"/>
     <use xlink:href="#DejaVuSans-Bold-65" transform="translate(541.015625 0)"/>
     <use xlink:href="#DejaVuSans-Bold-72" transform="translate(608.837891 0)"/>
    </g>
   </g>
   <g id="text_18">
    <!-- TMEM  ·  accumulator -->
    <g style="fill: #6b7684" transform="translate(93.374487 271.352009) scale(0.09 -0.09)">
     <use xlink:href="#DejaVuSans-54"/>
     <use xlink:href="#DejaVuSans-4d" transform="translate(61.083984 0)"/>
     <use xlink:href="#DejaVuSans-45" transform="translate(147.363281 0)"/>
     <use xlink:href="#DejaVuSans-4d" transform="translate(210.546875 0)"/>
     <use xlink:href="#DejaVuSans-20" transform="translate(296.826172 0)"/>
     <use xlink:href="#DejaVuSans-20" transform="translate(328.613281 0)"/>
     <use xlink:href="#DejaVuSans-b7" transform="translate(360.400391 0)"/>
     <use xlink:href="#DejaVuSans-20" transform="translate(392.1875 0)"/>
     <use xlink:href="#DejaVuSans-20" transform="translate(423.974609 0)"/>
     <use xlink:href="#DejaVuSans-61" transform="translate(455.761719 0)"/>
     <use xlink:href="#DejaVuSans-63" transform="translate(517.041016 0)"/>
     <use xlink:href="#DejaVuSans-63" transform="translate(572.021484 0)"/>
     <use xlink:href="#DejaVuSans-75" transform="translate(627.001953 0)"/>
     <use xlink:href="#DejaVuSans-6d" transform="translate(690.380859 0)"/>
     <use xlink:href="#DejaVuSans-75" transform="translate(787.792969 0)"/>
     <use xlink:href="#DejaVuSans-6c" transform="translate(851.171875 0)"/>
     <use xlink:href="#DejaVuSans-61" transform="translate(878.955078 0)"/>
     <use xlink:href="#DejaVuSans-74" transform="translate(940.234375 0)"/>
     <use xlink:href="#DejaVuSans-6f" transform="translate(979.443359 0)"/>
     <use xlink:href="#DejaVuSans-72" transform="translate(1040.625 0)"/>
    </g>
   </g>
   <g id="text_19">
    <!-- MMA -->
    <g style="fill: #1f2933" transform="translate(177.628872 179.367567) scale(0.115 -0.115)">
     <use xlink:href="#DejaVuSans-Bold-4d"/>
     <use xlink:href="#DejaVuSans-Bold-4d" transform="translate(99.511719 0)"/>
     <use xlink:href="#DejaVuSans-Bold-41" transform="translate(199.023438 0)"/>
    </g>
   </g>
   <g id="text_20">
    <!-- input tiles  →  accumulator -->
    <g style="fill: #6b7684" transform="translate(177.628872 194.607123) scale(0.085 -0.085)">
     <defs>
      <path id="DejaVuSans-2192" d="M 5050 2147 
L 5050 1866 
L 3822 638 
L 3447 1013 
L 4175 1741 
L 366 1741 
L 366 2272 
L 4175 2272 
L 3447 3000 
L 3822 3375 
L 5050 2147 
z
" transform="scale(0.015625)"/>
     </defs>
     <use xlink:href="#DejaVuSans-69"/>
     <use xlink:href="#DejaVuSans-6e" transform="translate(27.783203 0)"/>
     <use xlink:href="#DejaVuSans-70" transform="translate(91.162109 0)"/>
     <use xlink:href="#DejaVuSans-75" transform="translate(154.638672 0)"/>
     <use xlink:href="#DejaVuSans-74" transform="translate(218.017578 0)"/>
     <use xlink:href="#DejaVuSans-20" transform="translate(257.226562 0)"/>
     <use xlink:href="#DejaVuSans-74" transform="translate(289.013672 0)"/>
     <use xlink:href="#DejaVuSans-69" transform="translate(328.222656 0)"/>
     <use xlink:href="#DejaVuSans-6c" transform="translate(356.005859 0)"/>
     <use xlink:href="#DejaVuSans-65" transform="translate(383.789062 0)"/>
     <use xlink:href="#DejaVuSans-73" transform="translate(445.3125 0)"/>
     <use xlink:href="#DejaVuSans-20" transform="translate(497.412109 0)"/>
     <use xlink:href="#DejaVuSans-20" transform="translate(529.199219 0)"/>
     <use xlink:href="#DejaVuSans-2192" transform="translate(560.986328 0)"/>
     <use xlink:href="#DejaVuSans-20" transform="translate(644.775391 0)"/>
     <use xlink:href="#DejaVuSans-20" transform="translate(676.5625 0)"/>
     <use xlink:href="#DejaVuSans-61" transform="translate(708.349609 0)"/>
     <use xlink:href="#DejaVuSans-63" transform="translate(769.628906 0)"/>
     <use xlink:href="#DejaVuSans-63" transform="translate(824.609375 0)"/>
     <use xlink:href="#DejaVuSans-75" transform="translate(879.589844 0)"/>
     <use xlink:href="#DejaVuSans-6d" transform="translate(942.96875 0)"/>
     <use xlink:href="#DejaVuSans-75" transform="translate(1040.380859 0)"/>
     <use xlink:href="#DejaVuSans-6c" transform="translate(1103.759766 0)"/>
     <use xlink:href="#DejaVuSans-61" transform="translate(1131.542969 0)"/>
     <use xlink:href="#DejaVuSans-74" transform="translate(1192.822266 0)"/>
     <use xlink:href="#DejaVuSans-6f" transform="translate(1232.03125 0)"/>
     <use xlink:href="#DejaVuSans-72" transform="translate(1293.212891 0)"/>
    </g>
   </g>
   <g id="patch_7">
    <path d="M 142.051128 85.241504 
C 144.105594 85.241504 146.076192 84.425256 147.528919 82.972528 
C 148.981647 81.519801 149.797895 79.549203 149.797895 77.494737 
C 149.797895 75.44027 148.981647 73.469673 147.528919 72.016945 
C 146.076192 70.564218 144.105594 69.74797 142.051128 69.74797 
C 139.996661 69.74797 138.026064 70.564218 136.573336 72.016945 
C 135.120609 73.469673 134.304361 75.44027 134.304361 77.494737 
C 134.304361 79.549203 135.120609 81.519801 136.573336 82.972528 
C 138.026064 84.425256 139.996661 85.241504 142.051128 85.241504 
z
" clip-path="url(#pa8dee78885)" style="fill: #d1495b; stroke: #1f2933; stroke-width: 1.2; stroke-linejoin: miter"/>
   </g>
   <g id="patch_8">
    <path d="M 142.051128 151.232481 
C 144.105594 151.232481 146.076192 150.416233 147.528919 148.963506 
C 148.981647 147.510778 149.797895 145.540181 149.797895 143.485714 
C 149.797895 141.431248 148.981647 139.46065 147.528919 138.007923 
C 146.076192 136.555196 144.105594 135.738947 142.051128 135.738947 
C 139.996661 135.738947 138.026064 136.555196 136.573336 138.007923 
C 135.120609 139.46065 134.304361 141.431248 134.304361 143.485714 
C 134.304361 145.540181 135.120609 147.510778 136.573336 148.963506 
C 138.026064 150.416233 139.996661 151.232481 142.051128 151.232481 
z
" clip-path="url(#pa8dee78885)" style="fill: #2f9e56; stroke: #1f2933; stroke-width: 1.2; stroke-linejoin: miter"/>
   </g>
   <g id="patch_9">
    <path d="M 142.051128 231.569323 
C 144.105594 231.569323 146.076192 230.753075 147.528919 229.300348 
C 148.981647 227.847621 149.797895 225.877023 149.797895 223.822556 
C 149.797895 221.76809 148.981647 219.797492 147.528919 218.344765 
C 146.076192 216.892038 144.105594 216.075789 142.051128 216.075789 
C 139.996661 216.075789 138.026064 216.892038 136.573336 218.344765 
C 135.120609 219.797492 134.304361 221.76809 134.304361 223.822556 
C 134.304361 225.877023 135.120609 227.847621 136.573336 229.300348 
C 138.026064 230.753075 139.996661 231.569323 142.051128 231.569323 
z
" clip-path="url(#pa8dee78885)" style="fill: #2f9e56; stroke: #1f2933; stroke-width: 1.2; stroke-linejoin: miter"/>
   </g>
   <g id="patch_10">
    <path d="M 142.051128 297.560301 
C 144.105594 297.560301 146.076192 296.744053 147.528919 295.291325 
C 148.981647 293.838598 149.797895 291.868 149.797895 289.813534 
C 149.797895 287.759067 148.981647 285.78847 147.528919 284.335742 
C 146.076192 282.883015 144.105594 282.066767 142.051128 282.066767 
C 139.996661 282.066767 138.026064 282.883015 136.573336 284.335742 
C 135.120609 285.78847 134.304361 287.759067 134.304361 289.813534 
C 134.304361 291.868 135.120609 293.838598 136.573336 295.291325 
C 138.026064 296.744053 139.996661 297.560301 142.051128 297.560301 
z
" clip-path="url(#pa8dee78885)" style="fill: #d1495b; stroke: #1f2933; stroke-width: 1.2; stroke-linejoin: miter"/>
   </g>
   <g id="patch_11">
    <path d="M 317.070677 253.647609 
C 318.816973 253.647609 320.491981 252.953798 321.726799 251.71898 
C 322.961618 250.484162 323.655429 248.809154 323.655429 247.062857 
C 323.655429 245.316561 322.961618 243.641553 321.726799 242.406734 
C 320.491981 241.171916 318.816973 240.478105 317.070677 240.478105 
C 315.32438 240.478105 313.649372 241.171916 312.414554 242.406734 
C 311.179736 243.641553 310.485925 245.316561 310.485925 247.062857 
C 310.485925 248.809154 311.179736 250.484162 312.414554 251.71898 
C 313.649372 252.953798 315.32438 253.647609 317.070677 253.647609 
z
" clip-path="url(#pa8dee78885)" style="fill: #2f9e56; stroke: #1f2933; stroke-width: 1.2; stroke-linejoin: miter"/>
   </g>
   <g id="patch_12">
    <path d="M 317.070677 280.044 
C 318.816973 280.044 320.491981 279.350189 321.726799 278.115371 
C 322.961618 276.880553 323.655429 275.205545 323.655429 273.459248 
C 323.655429 271.712952 322.961618 270.037944 321.726799 268.803125 
C 320.491981 267.568307 318.816973 266.874496 317.070677 266.874496 
C 315.32438 266.874496 313.649372 267.568307 312.414554 268.803125 
C 311.179736 270.037944 310.485925 271.712952 310.485925 273.459248 
C 310.485925 275.205545 311.179736 276.880553 312.414554 278.115371 
C 313.649372 279.350189 315.32438 280.044 317.070677 280.044 
z
" clip-path="url(#pa8dee78885)" style="fill: #d1495b; stroke: #1f2933; stroke-width: 1.2; stroke-linejoin: miter"/>
   </g>
   <g id="patch_13">
    <path d="M 317.070677 306.440391 
C 318.816973 306.440391 320.491981 305.74658 321.726799 304.511762 
C 322.961618 303.276944 323.655429 301.601936 323.655429 299.855639 
C 323.655429 298.109342 322.961618 296.434335 321.726799 295.199516 
C 320.491981 293.964698 318.816973 293.270887 317.070677 293.270887 
C 315.32438 293.270887 313.649372 293.964698 312.414554 295.199516 
C 311.179736 296.434335 310.485925 298.109342 310.485925 299.855639 
C 310.485925 301.601936 311.179736 303.276944 312.414554 304.511762 
C 313.649372 305.74658 315.32438 306.440391 317.070677 306.440391 
z
" clip-path="url(#pa8dee78885)" style="fill: #2f9e56; stroke: #1f2933; stroke-width: 1.2; stroke-linejoin: miter"/>
   </g>
   <g id="patch_14">
    <path d="M 317.070677 332.836782 
C 318.816973 332.836782 320.491981 332.142971 321.726799 330.908153 
C 322.961618 329.673335 323.655429 327.998327 323.655429 326.25203 
C 323.655429 324.505733 322.961618 322.830726 321.726799 321.595907 
C 320.491981 320.361089 318.816973 319.667278 317.070677 319.667278 
C 315.32438 319.667278 313.649372 320.361089 312.414554 321.595907 
C 311.179736 322.830726 310.485925 324.505733 310.485925 326.25203 
C 310.485925 327.998327 311.179736 329.673335 312.414554 330.908153 
C 313.649372 332.142971 315.32438 332.836782 317.070677 332.836782 
z
" clip-path="url(#pa8dee78885)" style="fill: #d1495b; stroke: #1f2933; stroke-width: 1.2; stroke-linejoin: miter"/>
   </g>
   <g id="line2d_1">
    <path d="M 138.022809 77.494737 
L 146.079447 77.494737 
" clip-path="url(#pa8dee78885)" style="fill: none; stroke: #ffffff; stroke-width: 2.025; stroke-linecap: round"/>
   </g>
   <g id="line2d_2">
    <path d="M 142.051128 147.514033 
L 142.051128 139.457395 
" clip-path="url(#pa8dee78885)" style="fill: none; stroke: #ffffff; stroke-width: 2.025; stroke-linecap: round"/>
   </g>
   <g id="line2d_3">
    <path d="M 142.051128 227.850875 
L 142.051128 219.794238 
" clip-path="url(#pa8dee78885)" style="fill: none; stroke: #ffffff; stroke-width: 2.025; stroke-linecap: round"/>
   </g>
   <g id="line2d_4">
    <path d="M 138.022809 289.813534 
L 146.079447 289.813534 
" clip-path="url(#pa8dee78885)" style="fill: none; stroke: #ffffff; stroke-width: 2.025; stroke-linecap: round"/>
   </g>
   <g id="line2d_5">
    <path d="M 317.070677 250.486928 
L 317.070677 243.638786 
" clip-path="url(#pa8dee78885)" style="fill: none; stroke: #ffffff; stroke-width: 1.72125; stroke-linecap: round"/>
   </g>
   <g id="line2d_6">
    <path d="M 313.646606 273.459248 
L 320.494748 273.459248 
" clip-path="url(#pa8dee78885)" style="fill: none; stroke: #ffffff; stroke-width: 1.72125; stroke-linecap: round"/>
   </g>
   <g id="line2d_7">
    <path d="M 317.070677 303.27971 
L 317.070677 296.431568 
" clip-path="url(#pa8dee78885)" style="fill: none; stroke: #ffffff; stroke-width: 1.72125; stroke-linecap: round"/>
   </g>
   <g id="line2d_8">
    <path d="M 313.646606 326.25203 
L 320.494748 326.25203 
" clip-path="url(#pa8dee78885)" style="fill: none; stroke: #ffffff; stroke-width: 1.72125; stroke-linecap: round"/>
   </g>
  </g>
 </g>
 <defs>
  <clipPath id="pa8dee78885">
   <rect x="7.2" y="7.2" width="545.142857" height="381.6"/>
  </clipPath>
 </defs>
</svg>
