<?xml version="1.0" encoding="utf-8" standalone="no"?>
<!DOCTYPE svg PUBLIC "-//W3C//DTD SVG 1.1//EN"
  "http://www.w3.org/Graphics/SVG/1.1/DTD/svg11.dtd">
<svg xmlns:xlink="http://www.w3.org/1999/xlink" width="1014.958125pt" height="374.990221pt" viewBox="0 0 1014.958125 374.990221" xmlns="http://www.w3.org/2000/svg" version="1.1">
 <metadata>
  <rdf:RDF xmlns:dc="http://purl.org/dc/elements/1.1/" xmlns:cc="http://creativecommons.org/ns#" xmlns:rdf="http://www.w3.org/1999/02/22-rdf-syntax-ns#">
   <cc:Work>
    <dc:type rdf:resource="http://purl.org/dc/dcmitype/StillImage"/>
    <dc:date>2026-08-13T07:24:25.860810</dc:date>
    <dc:format>image/svg+xml</dc:format>
    <dc:creator>
     <cc:Agent>
      <dc:title>Matplotlib v3.10.9, https://matplotlib.org/</dc:title>
     </cc:Agent>
    </dc:creator>
   </cc:Work>
  </rdf:RDF>
 </metadata>
 <defs>
  <style type="text/css">*{stroke-linejoin: round; stroke-linecap: butt}</style>
 </defs>
 <g id="figure_1">
  <g id="patch_1">
   <path d="M 0 374.990221 
L 1014.958125 374.990221 
L 1014.958125 0 
L 0 0 
z
" style="fill: #ffffff"/>
  </g>
  <g id="axes_1">
   <g id="patch_2">
    <path d="M 49.828125 290.477809 
L 1007.758125 290.477809 
L 1007.758125 29.077969 
L 49.828125 29.077969 
z
" style="fill: #ffffff"/>
   </g>
   <g id="matplotlib.axis_1">
    <g id="xtick_1">
     <g id="line2d_1"/>
     <g id="text_1">
      <!-- 3K -->
      <g style="fill: #6b7684" transform="translate(108.35173 300.816402) scale(0.09 -0.09)">
       <defs>
        <path id="DejaVuSans-33" d="M 2597 2516 
Q 3050 2419 3304 2112 
Q 3559 1806 3559 1356 
Q 3559 666 3084 287 
Q 2609 -91 1734 -91 
Q 1441 -91 1130 -33 
Q 819 25 488 141 
L 488 750 
Q 750 597 1062 519 
Q 1375 441 1716 441 
Q 2309 441 2620 675 
Q 2931 909 2931 1356 
Q 2931 1769 2642 2001 
Q 2353 2234 1838 2234 
L 1294 2234 
L 1294 2753 
L 1863 2753 
Q 2328 2753 2575 2939 
Q 2822 3125 2822 3475 
Q 2822 3834 2567 4026 
Q 2313 4219 1838 4219 
Q 1578 4219 1281 4162 
Q 984 4106 628 3988 
L 628 4550 
Q 988 4650 1302 4700 
Q 1616 4750 1894 4750 
Q 2613 4750 3031 4423 
Q 3450 4097 3450 3541 
Q 3450 3153 3228 2886 
Q 3006 2619 2597 2516 
z
" transform="scale(0.015625)"/>
        <path id="DejaVuSans-4b" d="M 628 4666 
L 1259 4666 
L 1259 2694 
L 3353 4666 
L 4166 4666 
L 1850 2491 
L 4331 0 
L 3500 0 
L 1259 2247 
L 1259 0 
L 628 0 
L 628 4666 
z
" transform="scale(0.015625)"/>
       </defs>
       <use xlink:href="#DejaVuSans-33"/>
       <use xlink:href="#DejaVuSans-4b" transform="translate(63.623047 0)"/>
      </g>
     </g>
    </g>
    <g id="xtick_2">
     <g id="line2d_2"/>
     <g id="text_2">
      <!-- 4K -->
      <g style="fill: #6b7684" transform="translate(157.131407 300.816402) scale(0.09 -0.09)">
       <defs>
        <path id="DejaVuSans-34" d="M 2419 4116 
L 825 1625 
L 2419 1625 
L 2419 4116 
z
M 2253 4666 
L 3047 4666 
L 3047 1625 
L 3713 1625 
L 3713 1100 
L 3047 1100 
L 3047 0 
L 2419 0 
L 2419 1100 
L 313 1100 
L 313 1709 
L 2253 4666 
z
" transform="scale(0.015625)"/>
       </defs>
       <use xlink:href="#DejaVuSans-34"/>
       <use xlink:href="#DejaVuSans-4b" transform="translate(63.623047 0)"/>
      </g>
     </g>
    </g>
    <g id="xtick_3">
     <g id="line2d_3"/>
     <g id="text_3">
      <!-- 5K -->
      <g style="fill: #6b7684" transform="translate(205.911084 300.816402) scale(0.09 -0.09)">
       <defs>
        <path id="DejaVuSans-35" d="M 691 4666 
L 3169 4666 
L 3169 4134 
L 1269 4134 
L 1269 2991 
Q 1406 3038 1543 3061 
Q 1681 3084 1819 3084 
Q 2600 3084 3056 2656 
Q 3513 2228 3513 1497 
Q 3513 744 3044 326 
Q 2575 -91 1722 -91 
Q 1428 -91 1123 -41 
Q 819 9 494 109 
L 494 744 
Q 775 591 1075 516 
Q 1375 441 1709 441 
Q 2250 441 2565 725 
Q 2881 1009 2881 1497 
Q 2881 1984 2565 2268 
Q 2250 2553 1709 2553 
Q 1456 2553 1204 2497 
Q 953 2441 691 2322 
L 691 4666 
z
" transform="scale(0.015625)"/>
       </defs>
       <use xlink:href="#DejaVuSans-35"/>
       <use xlink:href="#DejaVuSans-4b" transform="translate(63.623047 0)"/>
      </g>
     </g>
    </g>
    <g id="xtick_4">
     <g id="line2d_4"/>
     <g id="text_4">
      <!-- 6K -->
      <g style="fill: #6b7684" transform="translate(254.690761 300.816402) scale(0.09 -0.09)">
       <defs>
        <path id="DejaVuSans-36" d="M 2113 2584 
Q 1688 2584 1439 2293 
Q 1191 2003 1191 1497 
Q 1191 994 1439 701 
Q 1688 409 2113 409 
Q 2538 409 2786 701 
Q 3034 994 3034 1497 
Q 3034 2003 2786 2293 
Q 2538 2584 2113 2584 
z
M 3366 4563 
L 3366 3988 
Q 3128 4100 2886 4159 
Q 2644 4219 2406 4219 
Q 1781 4219 1451 3797 
Q 1122 3375 1075 2522 
Q 1259 2794 1537 2939 
Q 1816 3084 2150 3084 
Q 2853 3084 3261 2657 
Q 3669 2231 3669 1497 
Q 3669 778 3244 343 
Q 2819 -91 2113 -91 
Q 1303 -91 875 529 
Q 447 1150 447 2328 
Q 447 3434 972 4092 
Q 1497 4750 2381 4750 
Q 2619 4750 2861 4703 
Q 3103 4656 3366 4563 
z
" transform="scale(0.015625)"/>
       </defs>
       <use xlink:href="#DejaVuSans-36"/>
       <use xlink:href="#DejaVuSans-4b" transform="translate(63.623047 0)"/>
      </g>
     </g>
    </g>
    <g id="xtick_5">
     <g id="line2d_5"/>
     <g id="text_5">
      <!-- 7K -->
      <g style="fill: #6b7684" transform="translate(303.470438 300.816402) scale(0.09 -0.09)">
       <defs>
        <path id="DejaVuSans-37" d="M 525 4666 
L 3525 4666 
L 3525 4397 
L 1831 0 
L 1172 0 
L 2766 4134 
L 525 4134 
L 525 4666 
z
" transform="scale(0.015625)"/>
       </defs>
       <use xlink:href="#DejaVuSans-37"/>
       <use xlink:href="#DejaVuSans-4b" transform="translate(63.623047 0)"/>
      </g>
     </g>
    </g>
    <g id="xtick_6">
     <g id="line2d_6"/>
     <g id="text_6">
      <!-- 8K -->
      <g style="fill: #6b7684" transform="translate(352.250115 300.816402) scale(0.09 -0.09)">
       <defs>
        <path id="DejaVuSans-38" d="M 2034 2216 
Q 1584 2216 1326 1975 
Q 1069 1734 1069 1313 
Q 1069 891 1326 650 
Q 1584 409 2034 409 
Q 2484 409 2743 651 
Q 3003 894 3003 1313 
Q 3003 1734 2745 1975 
Q 2488 2216 2034 2216 
z
M 1403 2484 
Q 997 2584 770 2862 
Q 544 3141 544 3541 
Q 544 4100 942 4425 
Q 1341 4750 2034 4750 
Q 2731 4750 3128 4425 
Q 3525 4100 3525 3541 
Q 3525 3141 3298 2862 
Q 3072 2584 2669 2484 
Q 3125 2378 3379 2068 
Q 3634 1759 3634 1313 
Q 3634 634 3220 271 
Q 2806 -91 2034 -91 
Q 1263 -91 848 271 
Q 434 634 434 1313 
Q 434 1759 690 2068 
Q 947 2378 1403 2484 
z
M 1172 3481 
Q 1172 3119 1398 2916 
Q 1625 2713 2034 2713 
Q 2441 2713 2670 2916 
Q 2900 3119 2900 3481 
Q 2900 3844 2670 4047 
Q 2441 4250 2034 4250 
Q 1625 4250 1398 4047 
Q 1172 3844 1172 3481 
z
" transform="scale(0.015625)"/>
       </defs>
       <use xlink:href="#DejaVuSans-38"/>
       <use xlink:href="#DejaVuSans-4b" transform="translate(63.623047 0)"/>
      </g>
     </g>
    </g>
    <g id="xtick_7">
     <g id="line2d_7"/>
     <g id="text_7">
      <!-- 9K -->
      <g style="fill: #6b7684" transform="translate(401.029792 300.816402) scale(0.09 -0.09)">
       <defs>
        <path id="DejaVuSans-39" d="M 703 97 
L 703 672 
Q 941 559 1184 500 
Q 1428 441 1663 441 
Q 2288 441 2617 861 
Q 2947 1281 2994 2138 
Q 2813 1869 2534 1725 
Q 2256 1581 1919 1581 
Q 1219 1581 811 2004 
Q 403 2428 403 3163 
Q 403 3881 828 4315 
Q 1253 4750 1959 4750 
Q 2769 4750 3195 4129 
Q 3622 3509 3622 2328 
Q 3622 1225 3098 567 
Q 2575 -91 1691 -91 
Q 1453 -91 1209 -44 
Q 966 3 703 97 
z
M 1959 2075 
Q 2384 2075 2632 2365 
Q 2881 2656 2881 3163 
Q 2881 3666 2632 3958 
Q 2384 4250 1959 4250 
Q 1534 4250 1286 3958 
Q 1038 3666 1038 3163 
Q 1038 2656 1286 2365 
Q 1534 2075 1959 2075 
z
" transform="scale(0.015625)"/>
       </defs>
       <use xlink:href="#DejaVuSans-39"/>
       <use xlink:href="#DejaVuSans-4b" transform="translate(63.623047 0)"/>
      </g>
     </g>
    </g>
    <g id="xtick_8">
     <g id="line2d_8"/>
     <g id="text_8">
      <!-- 10K -->
      <g style="fill: #6b7684" transform="translate(446.946344 300.816402) scale(0.09 -0.09)">
       <defs>
        <path id="DejaVuSans-31" d="M 794 531 
L 1825 531 
L 1825 4091 
L 703 3866 
L 703 4441 
L 1819 4666 
L 2450 4666 
L 2450 531 
L 3481 531 
L 3481 0 
L 794 0 
L 794 531 
z
" transform="scale(0.015625)"/>
        <path id="DejaVuSans-30" d="M 2034 4250 
Q 1547 4250 1301 3770 
Q 1056 3291 1056 2328 
Q 1056 1369 1301 889 
Q 1547 409 2034 409 
Q 2525 409 2770 889 
Q 3016 1369 3016 2328 
Q 3016 3291 2770 3770 
Q 2525 4250 2034 4250 
z
M 2034 4750 
Q 2819 4750 3233 4129 
Q 3647 3509 3647 2328 
Q 3647 1150 3233 529 
Q 2819 -91 2034 -91 
Q 1250 -91 836 529 
Q 422 1150 422 2328 
Q 422 3509 836 4129 
Q 1250 4750 2034 4750 
z
" transform="scale(0.015625)"/>
       </defs>
       <use xlink:href="#DejaVuSans-31"/>
       <use xlink:href="#DejaVuSans-30" transform="translate(63.623047 0)"/>
       <use xlink:href="#DejaVuSans-4b" transform="translate(127.246094 0)"/>
      </g>
     </g>
    </g>
    <g id="xtick_9">
     <g id="line2d_9"/>
     <g id="text_9">
      <!-- 11K -->
      <g style="fill: #6b7684" transform="translate(495.726021 300.816402) scale(0.09 -0.09)">
       <use xlink:href="#DejaVuSans-31"/>
       <use xlink:href="#DejaVuSans-31" transform="translate(63.623047 0)"/>
       <use xlink:href="#DejaVuSans-4b" transform="translate(127.246094 0)"/>
      </g>
     </g>
    </g>
    <g id="xtick_10">
     <g id="line2d_10"/>
     <g id="text_10">
      <!-- 12K -->
      <g style="fill: #6b7684" transform="translate(544.505698 300.816402) scale(0.09 -0.09)">
       <defs>
        <path id="DejaVuSans-32" d="M 1228 531 
L 3431 531 
L 3431 0 
L 469 0 
L 469 531 
Q 828 903 1448 1529 
Q 2069 2156 2228 2338 
Q 2531 2678 2651 2914 
Q 2772 3150 2772 3378 
Q 2772 3750 2511 3984 
Q 2250 4219 1831 4219 
Q 1534 4219 1204 4116 
Q 875 4013 500 3803 
L 500 4441 
Q 881 4594 1212 4672 
Q 1544 4750 1819 4750 
Q 2544 4750 2975 4387 
Q 3406 4025 3406 3419 
Q 3406 3131 3298 2873 
Q 3191 2616 2906 2266 
Q 2828 2175 2409 1742 
Q 1991 1309 1228 531 
z
" transform="scale(0.015625)"/>
       </defs>
       <use xlink:href="#DejaVuSans-31"/>
       <use xlink:href="#DejaVuSans-32" transform="translate(63.623047 0)"/>
       <use xlink:href="#DejaVuSans-4b" transform="translate(127.246094 0)"/>
      </g>
     </g>
    </g>
    <g id="xtick_11">
     <g id="line2d_11"/>
     <g id="text_11">
      <!-- 13K -->
      <g style="fill: #6b7684" transform="translate(593.285375 300.816402) scale(0.09 -0.09)">
       <use xlink:href="#DejaVuSans-31"/>
       <use xlink:href="#DejaVuSans-33" transform="translate(63.623047 0)"/>
       <use xlink:href="#DejaVuSans-4b" transform="translate(127.246094 0)"/>
      </g>
     </g>
    </g>
    <g id="xtick_12">
     <g id="line2d_12"/>
     <g id="text_12">
      <!-- 14K -->
      <g style="fill: #6b7684" transform="translate(642.065052 300.816402) scale(0.09 -0.09)">
       <use xlink:href="#DejaVuSans-31"/>
       <use xlink:href="#DejaVuSans-34" transform="translate(63.623047 0)"/>
       <use xlink:href="#DejaVuSans-4b" transform="translate(127.246094 0)"/>
      </g>
     </g>
    </g>
    <g id="xtick_13">
     <g id="line2d_13"/>
     <g id="text_13">
      <!-- 15K -->
      <g style="fill: #6b7684" transform="translate(690.844729 300.816402) scale(0.09 -0.09)">
       <use xlink:href="#DejaVuSans-31"/>
       <use xlink:href="#DejaVuSans-35" transform="translate(63.623047 0)"/>
       <use xlink:href="#DejaVuSans-4b" transform="translate(127.246094 0)"/>
      </g>
     </g>
    </g>
    <g id="xtick_14">
     <g id="line2d_14"/>
     <g id="text_14">
      <!-- 16K -->
      <g style="fill: #6b7684" transform="translate(739.624406 300.816402) scale(0.09 -0.09)">
       <use xlink:href="#DejaVuSans-31"/>
       <use xlink:href="#DejaVuSans-36" transform="translate(63.623047 0)"/>
       <use xlink:href="#DejaVuSans-4b" transform="translate(127.246094 0)"/>
      </g>
     </g>
    </g>
    <g id="xtick_15">
     <g id="line2d_15"/>
     <g id="text_15">
      <!-- 17K -->
      <g style="fill: #6b7684" transform="translate(788.404083 300.816402) scale(0.09 -0.09)">
       <use xlink:href="#DejaVuSans-31"/>
       <use xlink:href="#DejaVuSans-37" transform="translate(63.623047 0)"/>
       <use xlink:href="#DejaVuSans-4b" transform="translate(127.246094 0)"/>
      </g>
     </g>
    </g>
    <g id="xtick_16">
     <g id="line2d_16"/>
     <g id="text_16">
      <!-- 18K -->
      <g style="fill: #6b7684" transform="translate(837.18376 300.816402) scale(0.09 -0.09)">
       <use xlink:href="#DejaVuSans-31"/>
       <use xlink:href="#DejaVuSans-38" transform="translate(63.623047 0)"/>
       <use xlink:href="#DejaVuSans-4b" transform="translate(127.246094 0)"/>
      </g>
     </g>
    </g>
    <g id="xtick_17">
     <g id="line2d_17"/>
     <g id="text_17">
      <!-- 19K -->
      <g style="fill: #6b7684" transform="translate(885.963437 300.816402) scale(0.09 -0.09)">
       <use xlink:href="#DejaVuSans-31"/>
       <use xlink:href="#DejaVuSans-39" transform="translate(63.623047 0)"/>
       <use xlink:href="#DejaVuSans-4b" transform="translate(127.246094 0)"/>
      </g>
     </g>
    </g>
    <g id="xtick_18">
     <g id="line2d_18"/>
     <g id="text_18">
      <!-- 20K -->
      <g style="fill: #6b7684" transform="translate(934.743114 300.816402) scale(0.09 -0.09)">
       <use xlink:href="#DejaVuSans-32"/>
       <use xlink:href="#DejaVuSans-30" transform="translate(63.623047 0)"/>
       <use xlink:href="#DejaVuSans-4b" transform="translate(127.246094 0)"/>
      </g>
     </g>
    </g>
    <g id="text_19">
     <!-- square shape (M = N = K) -->
     <g style="fill: #6b7684" transform="translate(463.524375 318.286559) scale(0.1 -0.1)">
      <defs>
       <path id="DejaVuSans-73" d="M 2834 3397 
L 2834 2853 
Q 2591 2978 2328 3040 
Q 2066 3103 1784 3103 
Q 1356 3103 1142 2972 
Q 928 2841 928 2578 
Q 928 2378 1081 2264 
Q 1234 2150 1697 2047 
L 1894 2003 
Q 2506 1872 2764 1633 
Q 3022 1394 3022 966 
Q 3022 478 2636 193 
Q 2250 -91 1575 -91 
Q 1294 -91 989 -36 
Q 684 19 347 128 
L 347 722 
Q 666 556 975 473 
Q 1284 391 1588 391 
Q 1994 391 2212 530 
Q 2431 669 2431 922 
Q 2431 1156 2273 1281 
Q 2116 1406 1581 1522 
L 1381 1569 
Q 847 1681 609 1914 
Q 372 2147 372 2553 
Q 372 3047 722 3315 
Q 1072 3584 1716 3584 
Q 2034 3584 2315 3537 
Q 2597 3491 2834 3397 
z
" transform="scale(0.015625)"/>
       <path id="DejaVuSans-71" d="M 947 1747 
Q 947 1113 1208 752 
Q 1469 391 1925 391 
Q 2381 391 2643 752 
Q 2906 1113 2906 1747 
Q 2906 2381 2643 2742 
Q 2381 3103 1925 3103 
Q 1469 3103 1208 2742 
Q 947 2381 947 1747 
z
M 2906 525 
Q 2725 213 2448 61 
Q 2172 -91 1784 -91 
Q 1150 -91 751 415 
Q 353 922 353 1747 
Q 353 2572 751 3078 
Q 1150 3584 1784 3584 
Q 2172 3584 2448 3432 
Q 2725 3281 2906 2969 
L 2906 3500 
L 3481 3500 
L 3481 -1331 
L 2906 -1331 
L 2906 525 
z
" transform="scale(0.015625)"/>
       <path id="DejaVuSans-75" d="M 544 1381 
L 544 3500 
L 1119 3500 
L 1119 1403 
Q 1119 906 1312 657 
Q 1506 409 1894 409 
Q 2359 409 2629 706 
Q 2900 1003 2900 1516 
L 2900 3500 
L 3475 3500 
L 3475 0 
L 2900 0 
L 2900 538 
Q 2691 219 2414 64 
Q 2138 -91 1772 -91 
Q 1169 -91 856 284 
Q 544 659 544 1381 
z
M 1991 3584 
L 1991 3584 
z
" transform="scale(0.015625)"/>
       <path id="DejaVuSans-61" d="M 2194 1759 
Q 1497 1759 1228 1600 
Q 959 1441 959 1056 
Q 959 750 1161 570 
Q 1363 391 1709 391 
Q 2188 391 2477 730 
Q 2766 1069 2766 1631 
L 2766 1759 
L 2194 1759 
z
M 3341 1997 
L 3341 0 
L 2766 0 
L 2766 531 
Q 2569 213 2275 61 
Q 1981 -91 1556 -91 
Q 1019 -91 701 211 
Q 384 513 384 1019 
Q 384 1609 779 1909 
Q 1175 2209 1959 2209 
L 2766 2209 
L 2766 2266 
Q 2766 2663 2505 2880 
Q 2244 3097 1772 3097 
Q 1472 3097 1187 3025 
Q 903 2953 641 2809 
L 641 3341 
Q 956 3463 1253 3523 
Q 1550 3584 1831 3584 
Q 2591 3584 2966 3190 
Q 3341 2797 3341 1997 
z
" transform="scale(0.015625)"/>
       <path id="DejaVuSans-72" d="M 2631 2963 
Q 2534 3019 2420 3045 
Q 2306 3072 2169 3072 
Q 1681 3072 1420 2755 
Q 1159 2438 1159 1844 
L 1159 0 
L 581 0 
L 581 3500 
L 1159 3500 
L 1159 2956 
Q 1341 3275 1631 3429 
Q 1922 3584 2338 3584 
Q 2397 3584 2469 3576 
Q 2541 3569 2628 3553 
L 2631 2963 
z
" transform="scale(0.015625)"/>
       <path id="DejaVuSans-65" d="M 3597 1894 
L 3597 1613 
L 953 1613 
Q 991 1019 1311 708 
Q 1631 397 2203 397 
Q 2534 397 2845 478 
Q 3156 559 3463 722 
L 3463 178 
Q 3153 47 2828 -22 
Q 2503 -91 2169 -91 
Q 1331 -91 842 396 
Q 353 884 353 1716 
Q 353 2575 817 3079 
Q 1281 3584 2069 3584 
Q 2775 3584 3186 3129 
Q 3597 2675 3597 1894 
z
M 3022 2063 
Q 3016 2534 2758 2815 
Q 2500 3097 2075 3097 
Q 1594 3097 1305 2825 
Q 1016 2553 972 2059 
L 3022 2063 
z
" transform="scale(0.015625)"/>
       <path id="DejaVuSans-20" transform="scale(0.015625)"/>
       <path id="DejaVuSans-68" d="M 3513 2113 
L 3513 0 
L 2938 0 
L 2938 2094 
Q 2938 2591 2744 2837 
Q 2550 3084 2163 3084 
Q 1697 3084 1428 2787 
Q 1159 2491 1159 1978 
L 1159 0 
L 581 0 
L 581 4863 
L 1159 4863 
L 1159 2956 
Q 1366 3272 1645 3428 
Q 1925 3584 2291 3584 
Q 2894 3584 3203 3211 
Q 3513 2838 3513 2113 
z
" transform="scale(0.015625)"/>
       <path id="DejaVuSans-70" d="M 1159 525 
L 1159 -1331 
L 581 -1331 
L 581 3500 
L 1159 3500 
L 1159 2969 
Q 1341 3281 1617 3432 
Q 1894 3584 2278 3584 
Q 2916 3584 3314 3078 
Q 3713 2572 3713 1747 
Q 3713 922 3314 415 
Q 2916 -91 2278 -91 
Q 1894 -91 1617 61 
Q 1341 213 1159 525 
z
M 3116 1747 
Q 3116 2381 2855 2742 
Q 2594 3103 2138 3103 
Q 1681 3103 1420 2742 
Q 1159 2381 1159 1747 
Q 1159 1113 1420 752 
Q 1681 391 2138 391 
Q 2594 391 2855 752 
Q 3116 1113 3116 1747 
z
" transform="scale(0.015625)"/>
       <path id="DejaVuSans-28" d="M 1984 4856 
Q 1566 4138 1362 3434 
Q 1159 2731 1159 2009 
Q 1159 1288 1364 580 
Q 1569 -128 1984 -844 
L 1484 -844 
Q 1016 -109 783 600 
Q 550 1309 550 2009 
Q 550 2706 781 3412 
Q 1013 4119 1484 4856 
L 1984 4856 
z
" transform="scale(0.015625)"/>
       <path id="DejaVuSans-4d" d="M 628 4666 
L 1569 4666 
L 2759 1491 
L 3956 4666 
L 4897 4666 
L 4897 0 
L 4281 0 
L 4281 4097 
L 3078 897 
L 2444 897 
L 1241 4097 
L 1241 0 
L 628 0 
L 628 4666 
z
" transform="scale(0.015625)"/>
       <path id="DejaVuSans-3d" d="M 678 2906 
L 4684 2906 
L 4684 2381 
L 678 2381 
L 678 2906 
z
M 678 1631 
L 4684 1631 
L 4684 1100 
L 678 1100 
L 678 1631 
z
" transform="scale(0.015625)"/>
       <path id="DejaVuSans-4e" d="M 628 4666 
L 1478 4666 
L 3547 763 
L 3547 4666 
L 4159 4666 
L 4159 0 
L 3309 0 
L 1241 3903 
L 1241 0 
L 628 0 
L 628 4666 
z
" transform="scale(0.015625)"/>
       <path id="DejaVuSans-29" d="M 513 4856 
L 1013 4856 
Q 1481 4119 1714 3412 
Q 1947 2706 1947 2009 
Q 1947 1309 1714 600 
Q 1481 -109 1013 -844 
L 513 -844 
Q 928 -128 1133 580 
Q 1338 1288 1338 2009 
Q 1338 2731 1133 3434 
Q 928 4138 513 4856 
z
" transform="scale(0.015625)"/>
      </defs>
      <use xlink:href="#DejaVuSans-73"/>
      <use xlink:href="#DejaVuSans-71" transform="translate(52.099609 0)"/>
      <use xlink:href="#DejaVuSans-75" transform="translate(115.576172 0)"/>
      <use xlink:href="#DejaVuSans-61" transform="translate(178.955078 0)"/>
      <use xlink:href="#DejaVuSans-72" transform="translate(240.234375 0)"/>
      <use xlink:href="#DejaVuSans-65" transform="translate(279.097656 0)"/>
      <use xlink:href="#DejaVuSans-20" transform="translate(340.621094 0)"/>
      <use xlink:href="#DejaVuSans-73" transform="translate(372.408203 0)"/>
      <use xlink:href="#DejaVuSans-68" transform="translate(424.507812 0)"/>
      <use xlink:href="#DejaVuSans-61" transform="translate(487.886719 0)"/>
      <use xlink:href="#DejaVuSans-70" transform="translate(549.166016 0)"/>
      <use xlink:href="#DejaVuSans-65" transform="translate(612.642578 0)"/>
      <use xlink:href="#DejaVuSans-20" transform="translate(674.166016 0)"/>
      <use xlink:href="#DejaVuSans-28" transform="translate(705.953125 0)"/>
      <use xlink:href="#DejaVuSans-4d" transform="translate(744.966797 0)"/>
      <use xlink:href="#DejaVuSans-20" transform="translate(831.246094 0)"/>
      <use xlink:href="#DejaVuSans-3d" transform="translate(863.033203 0)"/>
      <use xlink:href="#DejaVuSans-20" transform="translate(946.822266 0)"/>
      <use xlink:href="#DejaVuSans-4e" transform="translate(978.609375 0)"/>
      <use xlink:href="#DejaVuSans-20" transform="translate(1053.414062 0)"/>
      <use xlink:href="#DejaVuSans-3d" transform="translate(1085.201172 0)"/>
      <use xlink:href="#DejaVuSans-20" transform="translate(1168.990234 0)"/>
      <use xlink:href="#DejaVuSans-4b" transform="translate(1200.777344 0)"/>
      <use xlink:href="#DejaVuSans-29" transform="translate(1266.353516 0)"/>
     </g>
    </g>
   </g>
   <g id="matplotlib.axis_2">
    <g id="ytick_1">
     <g id="line2d_19">
      <path d="M 49.828125 269.397176 
L 1007.758125 269.397176 
" clip-path="url(#pa877f7354e)" style="fill: none; stroke: #e3e7ec; stroke-linecap: square"/>
     </g>
     <g id="line2d_20"/>
     <g id="text_20">
      <!-- 1200 -->
      <g style="fill: #6b7684" transform="translate(20.878125 273.196395) scale(0.1 -0.1)">
       <use xlink:href="#DejaVuSans-31"/>
       <use xlink:href="#DejaVuSans-32" transform="translate(63.623047 0)"/>
       <use xlink:href="#DejaVuSans-30" transform="translate(127.246094 0)"/>
       <use xlink:href="#DejaVuSans-30" transform="translate(190.869141 0)"/>
      </g>
     </g>
    </g>
    <g id="ytick_2">
     <g id="line2d_21">
      <path d="M 49.828125 234.262789 
L 1007.758125 234.262789 
" clip-path="url(#pa877f7354e)" style="fill: none; stroke: #e3e7ec; stroke-linecap: square"/>
     </g>
     <g id="line2d_22"/>
     <g id="text_21">
      <!-- 1250 -->
      <g style="fill: #6b7684" transform="translate(20.878125 238.062008) scale(0.1 -0.1)">
       <use xlink:href="#DejaVuSans-31"/>
       <use xlink:href="#DejaVuSans-32" transform="translate(63.623047 0)"/>
       <use xlink:href="#DejaVuSans-35" transform="translate(127.246094 0)"/>
       <use xlink:href="#DejaVuSans-30" transform="translate(190.869141 0)"/>
      </g>
     </g>
    </g>
    <g id="ytick_3">
     <g id="line2d_23">
      <path d="M 49.828125 199.128402 
L 1007.758125 199.128402 
" clip-path="url(#pa877f7354e)" style="fill: none; stroke: #e3e7ec; stroke-linecap: square"/>
     </g>
     <g id="line2d_24"/>
     <g id="text_22">
      <!-- 1300 -->
      <g style="fill: #6b7684" transform="translate(20.878125 202.927621) scale(0.1 -0.1)">
       <use xlink:href="#DejaVuSans-31"/>
       <use xlink:href="#DejaVuSans-33" transform="translate(63.623047 0)"/>
       <use xlink:href="#DejaVuSans-30" transform="translate(127.246094 0)"/>
       <use xlink:href="#DejaVuSans-30" transform="translate(190.869141 0)"/>
      </g>
     </g>
    </g>
    <g id="ytick_4">
     <g id="line2d_25">
      <path d="M 49.828125 163.994015 
L 1007.758125 163.994015 
" clip-path="url(#pa877f7354e)" style="fill: none; stroke: #e3e7ec; stroke-linecap: square"/>
     </g>
     <g id="line2d_26"/>
     <g id="text_23">
      <!-- 1350 -->
      <g style="fill: #6b7684" transform="translate(20.878125 167.793234) scale(0.1 -0.1)">
       <use xlink:href="#DejaVuSans-31"/>
       <use xlink:href="#DejaVuSans-33" transform="translate(63.623047 0)"/>
       <use xlink:href="#DejaVuSans-35" transform="translate(127.246094 0)"/>
       <use xlink:href="#DejaVuSans-30" transform="translate(190.869141 0)"/>
      </g>
     </g>
    </g>
    <g id="ytick_5">
     <g id="line2d_27">
      <path d="M 49.828125 128.859628 
L 1007.758125 128.859628 
" clip-path="url(#pa877f7354e)" style="fill: none; stroke: #e3e7ec; stroke-linecap: square"/>
     </g>
     <g id="line2d_28"/>
     <g id="text_24">
      <!-- 1400 -->
      <g style="fill: #6b7684" transform="translate(20.878125 132.658847) scale(0.1 -0.1)">
       <use xlink:href="#DejaVuSans-31"/>
       <use xlink:href="#DejaVuSans-34" transform="translate(63.623047 0)"/>
       <use xlink:href="#DejaVuSans-30" transform="translate(127.246094 0)"/>
       <use xlink:href="#DejaVuSans-30" transform="translate(190.869141 0)"/>
      </g>
     </g>
    </g>
    <g id="ytick_6">
     <g id="line2d_29">
      <path d="M 49.828125 93.725241 
L 1007.758125 93.725241 
" clip-path="url(#pa877f7354e)" style="fill: none; stroke: #e3e7ec; stroke-linecap: square"/>
     </g>
     <g id="line2d_30"/>
     <g id="text_25">
      <!-- 1450 -->
      <g style="fill: #6b7684" transform="translate(20.878125 97.52446) scale(0.1 -0.1)">
       <use xlink:href="#DejaVuSans-31"/>
       <use xlink:href="#DejaVuSans-34" transform="translate(63.623047 0)"/>
       <use xlink:href="#DejaVuSans-35" transform="translate(127.246094 0)"/>
       <use xlink:href="#DejaVuSans-30" transform="translate(190.869141 0)"/>
      </g>
     </g>
    </g>
    <g id="ytick_7">
     <g id="line2d_31">
      <path d="M 49.828125 58.590854 
L 1007.758125 58.590854 
" clip-path="url(#pa877f7354e)" style="fill: none; stroke: #e3e7ec; stroke-linecap: square"/>
     </g>
     <g id="line2d_32"/>
     <g id="text_26">
      <!-- 1500 -->
      <g style="fill: #6b7684" transform="translate(20.878125 62.390073) scale(0.1 -0.1)">
       <use xlink:href="#DejaVuSans-31"/>
       <use xlink:href="#DejaVuSans-35" transform="translate(63.623047 0)"/>
       <use xlink:href="#DejaVuSans-30" transform="translate(127.246094 0)"/>
       <use xlink:href="#DejaVuSans-30" transform="translate(190.869141 0)"/>
      </g>
     </g>
    </g>
    <g id="text_27">
     <!-- TFLOP/s -->
     <g style="fill: #6b7684" transform="translate(14.798438 179.552107) rotate(-90) scale(0.1 -0.1)">
      <defs>
       <path id="DejaVuSans-54" d="M -19 4666 
L 3928 4666 
L 3928 4134 
L 2272 4134 
L 2272 0 
L 1638 0 
L 1638 4134 
L -19 4134 
L -19 4666 
z
" transform="scale(0.015625)"/>
       <path id="DejaVuSans-46" d="M 628 4666 
L 3309 4666 
L 3309 4134 
L 1259 4134 
L 1259 2759 
L 3109 2759 
L 3109 2228 
L 1259 2228 
L 1259 0 
L 628 0 
L 628 4666 
z
" transform="scale(0.015625)"/>
       <path id="DejaVuSans-4c" d="M 628 4666 
L 1259 4666 
L 1259 531 
L 3531 531 
L 3531 0 
L 628 0 
L 628 4666 
z
" transform="scale(0.015625)"/>
       <path id="DejaVuSans-4f" d="M 2522 4238 
Q 1834 4238 1429 3725 
Q 1025 3213 1025 2328 
Q 1025 1447 1429 934 
Q 1834 422 2522 422 
Q 3209 422 3611 934 
Q 4013 1447 4013 2328 
Q 4013 3213 3611 3725 
Q 3209 4238 2522 4238 
z
M 2522 4750 
Q 3503 4750 4090 4092 
Q 4678 3434 4678 2328 
Q 4678 1225 4090 567 
Q 3503 -91 2522 -91 
Q 1538 -91 948 565 
Q 359 1222 359 2328 
Q 359 3434 948 4092 
Q 1538 4750 2522 4750 
z
" transform="scale(0.015625)"/>
       <path id="DejaVuSans-50" d="M 1259 4147 
L 1259 2394 
L 2053 2394 
Q 2494 2394 2734 2622 
Q 2975 2850 2975 3272 
Q 2975 3691 2734 3919 
Q 2494 4147 2053 4147 
L 1259 4147 
z
M 628 4666 
L 2053 4666 
Q 2838 4666 3239 4311 
Q 3641 3956 3641 3272 
Q 3641 2581 3239 2228 
Q 2838 1875 2053 1875 
L 1259 1875 
L 1259 0 
L 628 0 
L 628 4666 
z
" transform="scale(0.015625)"/>
       <path id="DejaVuSans-2f" d="M 1625 4666 
L 2156 4666 
L 531 -594 
L 0 -594 
L 1625 4666 
z
" transform="scale(0.015625)"/>
      </defs>
      <use xlink:href="#DejaVuSans-54"/>
      <use xlink:href="#DejaVuSans-46" transform="translate(61.083984 0)"/>
      <use xlink:href="#DejaVuSans-4c" transform="translate(118.603516 0)"/>
      <use xlink:href="#DejaVuSans-4f" transform="translate(170.691406 0)"/>
      <use xlink:href="#DejaVuSans-50" transform="translate(249.402344 0)"/>
      <use xlink:href="#DejaVuSans-2f" transform="translate(309.705078 0)"/>
      <use xlink:href="#DejaVuSans-73" transform="translate(343.396484 0)"/>
     </g>
    </g>
   </g>
   <g id="patch_3">
    <path d="M 49.828125 290.477809 
L 1007.758125 290.477809 
" style="fill: none; stroke: #e3e7ec; stroke-width: 0.8; stroke-linejoin: miter; stroke-linecap: square"/>
   </g>
   <g id="patch_4">
    <path d="M 93.370398 1112.622467 
L 99.003754 1112.622467 
L 99.003754 143.616071 
L 93.370398 143.616071 
z
" clip-path="url(#pa877f7354e)" style="fill: #b7bfc9; stroke: #ffffff; stroke-width: 0.5; stroke-linejoin: miter"/>
   </g>
   <g id="patch_5">
    <path d="M 142.150075 1112.622467 
L 147.783431 1112.622467 
L 147.783431 140.80532 
L 142.150075 140.80532 
z
" clip-path="url(#pa877f7354e)" style="fill: #b7bfc9; stroke: #ffffff; stroke-width: 0.5; stroke-linejoin: miter"/>
   </g>
   <g id="patch_6">
    <path d="M 190.929752 1112.622467 
L 196.563107 1112.622467 
L 196.563107 106.37362 
L 190.929752 106.37362 
z
" clip-path="url(#pa877f7354e)" style="fill: #b7bfc9; stroke: #ffffff; stroke-width: 0.5; stroke-linejoin: miter"/>
   </g>
   <g id="patch_7">
    <path d="M 239.709429 1112.622467 
L 245.342784 1112.622467 
L 245.342784 82.482237 
L 239.709429 82.482237 
z
" clip-path="url(#pa877f7354e)" style="fill: #b7bfc9; stroke: #ffffff; stroke-width: 0.5; stroke-linejoin: miter"/>
   </g>
   <g id="patch_8">
    <path d="M 288.489106 1112.622467 
L 294.122461 1112.622467 
L 294.122461 100.049431 
L 288.489106 100.049431 
z
" clip-path="url(#pa877f7354e)" style="fill: #b7bfc9; stroke: #ffffff; stroke-width: 0.5; stroke-linejoin: miter"/>
   </g>
   <g id="patch_9">
    <path d="M 337.268783 1112.622467 
L 342.902138 1112.622467 
L 342.902138 110.589747 
L 337.268783 110.589747 
z
" clip-path="url(#pa877f7354e)" style="fill: #b7bfc9; stroke: #ffffff; stroke-width: 0.5; stroke-linejoin: miter"/>
   </g>
   <g id="patch_10">
    <path d="M 386.048459 1112.622467 
L 391.681815 1112.622467 
L 391.681815 115.508561 
L 386.048459 115.508561 
z
" clip-path="url(#pa877f7354e)" style="fill: #b7bfc9; stroke: #ffffff; stroke-width: 0.5; stroke-linejoin: miter"/>
   </g>
   <g id="patch_11">
    <path d="M 434.828136 1112.622467 
L 440.461492 1112.622467 
L 440.461492 118.319312 
L 434.828136 118.319312 
z
" clip-path="url(#pa877f7354e)" style="fill: #b7bfc9; stroke: #ffffff; stroke-width: 0.5; stroke-linejoin: miter"/>
   </g>
   <g id="patch_12">
    <path d="M 483.607813 1112.622467 
L 489.241169 1112.622467 
L 489.241169 125.346189 
L 483.607813 125.346189 
z
" clip-path="url(#pa877f7354e)" style="fill: #b7bfc9; stroke: #ffffff; stroke-width: 0.5; stroke-linejoin: miter"/>
   </g>
   <g id="patch_13">
    <path d="M 532.38749 1112.622467 
L 538.020846 1112.622467 
L 538.020846 81.779549 
L 532.38749 81.779549 
z
" clip-path="url(#pa877f7354e)" style="fill: #b7bfc9; stroke: #ffffff; stroke-width: 0.5; stroke-linejoin: miter"/>
   </g>
   <g id="patch_14">
    <path d="M 581.167167 1112.622467 
L 586.800523 1112.622467 
L 586.800523 130.265004 
L 581.167167 130.265004 
z
" clip-path="url(#pa877f7354e)" style="fill: #b7bfc9; stroke: #ffffff; stroke-width: 0.5; stroke-linejoin: miter"/>
   </g>
   <g id="patch_15">
    <path d="M 629.946844 1112.622467 
L 635.5802 1112.622467 
L 635.5802 116.211249 
L 629.946844 116.211249 
z
" clip-path="url(#pa877f7354e)" style="fill: #b7bfc9; stroke: #ffffff; stroke-width: 0.5; stroke-linejoin: miter"/>
   </g>
   <g id="patch_16">
    <path d="M 678.726521 1112.622467 
L 684.359877 1112.622467 
L 684.359877 80.374174 
L 678.726521 80.374174 
z
" clip-path="url(#pa877f7354e)" style="fill: #b7bfc9; stroke: #ffffff; stroke-width: 0.5; stroke-linejoin: miter"/>
   </g>
   <g id="patch_17">
    <path d="M 727.506198 1112.622467 
L 733.139554 1112.622467 
L 733.139554 83.887613 
L 727.506198 83.887613 
z
" clip-path="url(#pa877f7354e)" style="fill: #b7bfc9; stroke: #ffffff; stroke-width: 0.5; stroke-linejoin: miter"/>
   </g>
   <g id="patch_18">
    <path d="M 776.285875 1112.622467 
L 781.919231 1112.622467 
L 781.919231 81.076862 
L 776.285875 81.076862 
z
" clip-path="url(#pa877f7354e)" style="fill: #b7bfc9; stroke: #ffffff; stroke-width: 0.5; stroke-linejoin: miter"/>
   </g>
   <g id="patch_19">
    <path d="M 825.065552 1112.622467 
L 830.698908 1112.622467 
L 830.698908 129.562316 
L 825.065552 129.562316 
z
" clip-path="url(#pa877f7354e)" style="fill: #b7bfc9; stroke: #ffffff; stroke-width: 0.5; stroke-linejoin: miter"/>
   </g>
   <g id="patch_20">
    <path d="M 873.845229 1112.622467 
L 879.478585 1112.622467 
L 879.478585 133.075755 
L 873.845229 133.075755 
z
" clip-path="url(#pa877f7354e)" style="fill: #b7bfc9; stroke: #ffffff; stroke-width: 0.5; stroke-linejoin: miter"/>
   </g>
   <g id="patch_21">
    <path d="M 922.624906 1112.622467 
L 928.258262 1112.622467 
L 928.258262 84.5903 
L 922.624906 84.5903 
z
" clip-path="url(#pa877f7354e)" style="fill: #b7bfc9; stroke: #ffffff; stroke-width: 0.5; stroke-linejoin: miter"/>
   </g>
   <g id="patch_22">
    <path d="M 99.363329 1112.622467 
L 104.996685 1112.622467 
L 104.996685 166.804766 
L 99.363329 166.804766 
z
" clip-path="url(#pa877f7354e)" style="fill: #c3d3e2; stroke: #ffffff; stroke-width: 0.5; stroke-linejoin: miter"/>
   </g>
   <g id="patch_23">
    <path d="M 148.143006 1112.622467 
L 153.776362 1112.622467 
L 153.776362 160.480576 
L 148.143006 160.480576 
z
" clip-path="url(#pa877f7354e)" style="fill: #c3d3e2; stroke: #ffffff; stroke-width: 0.5; stroke-linejoin: miter"/>
   </g>
   <g id="patch_24">
    <path d="M 196.922683 1112.622467 
L 202.556039 1112.622467 
L 202.556039 147.832197 
L 196.922683 147.832197 
z
" clip-path="url(#pa877f7354e)" style="fill: #c3d3e2; stroke: #ffffff; stroke-width: 0.5; stroke-linejoin: miter"/>
   </g>
   <g id="patch_25">
    <path d="M 245.70236 1112.622467 
L 251.335716 1112.622467 
L 251.335716 102.157494 
L 245.70236 102.157494 
z
" clip-path="url(#pa877f7354e)" style="fill: #c3d3e2; stroke: #ffffff; stroke-width: 0.5; stroke-linejoin: miter"/>
   </g>
   <g id="patch_26">
    <path d="M 294.482037 1112.622467 
L 300.115393 1112.622467 
L 300.115393 156.967138 
L 294.482037 156.967138 
z
" clip-path="url(#pa877f7354e)" style="fill: #c3d3e2; stroke: #ffffff; stroke-width: 0.5; stroke-linejoin: miter"/>
   </g>
   <g id="patch_27">
    <path d="M 343.261714 1112.622467 
L 348.89507 1112.622467 
L 348.89507 116.211249 
L 343.261714 116.211249 
z
" clip-path="url(#pa877f7354e)" style="fill: #c3d3e2; stroke: #ffffff; stroke-width: 0.5; stroke-linejoin: miter"/>
   </g>
   <g id="patch_28">
    <path d="M 392.041391 1112.622467 
L 397.674747 1112.622467 
L 397.674747 103.562869 
L 392.041391 103.562869 
z
" clip-path="url(#pa877f7354e)" style="fill: #c3d3e2; stroke: #ffffff; stroke-width: 0.5; stroke-linejoin: miter"/>
   </g>
   <g id="patch_29">
    <path d="M 440.821068 1112.622467 
L 446.454424 1112.622467 
L 446.454424 102.157494 
L 440.821068 102.157494 
z
" clip-path="url(#pa877f7354e)" style="fill: #c3d3e2; stroke: #ffffff; stroke-width: 0.5; stroke-linejoin: miter"/>
   </g>
   <g id="patch_30">
    <path d="M 489.600745 1112.622467 
L 495.234101 1112.622467 
L 495.234101 142.913383 
L 489.600745 142.913383 
z
" clip-path="url(#pa877f7354e)" style="fill: #c3d3e2; stroke: #ffffff; stroke-width: 0.5; stroke-linejoin: miter"/>
   </g>
   <g id="patch_31">
    <path d="M 538.380422 1112.622467 
L 544.013778 1112.622467 
L 544.013778 116.913936 
L 538.380422 116.913936 
z
" clip-path="url(#pa877f7354e)" style="fill: #c3d3e2; stroke: #ffffff; stroke-width: 0.5; stroke-linejoin: miter"/>
   </g>
   <g id="patch_32">
    <path d="M 587.160099 1112.622467 
L 592.793455 1112.622467 
L 592.793455 136.589193 
L 587.160099 136.589193 
z
" clip-path="url(#pa877f7354e)" style="fill: #c3d3e2; stroke: #ffffff; stroke-width: 0.5; stroke-linejoin: miter"/>
   </g>
   <g id="patch_33">
    <path d="M 635.939776 1112.622467 
L 641.573132 1112.622467 
L 641.573132 131.670379 
L 635.939776 131.670379 
z
" clip-path="url(#pa877f7354e)" style="fill: #c3d3e2; stroke: #ffffff; stroke-width: 0.5; stroke-linejoin: miter"/>
   </g>
   <g id="patch_34">
    <path d="M 684.719453 1112.622467 
L 690.352809 1112.622467 
L 690.352809 139.399944 
L 684.719453 139.399944 
z
" clip-path="url(#pa877f7354e)" style="fill: #c3d3e2; stroke: #ffffff; stroke-width: 0.5; stroke-linejoin: miter"/>
   </g>
   <g id="patch_35">
    <path d="M 733.49913 1112.622467 
L 739.132486 1112.622467 
L 739.132486 150.642948 
L 733.49913 150.642948 
z
" clip-path="url(#pa877f7354e)" style="fill: #c3d3e2; stroke: #ffffff; stroke-width: 0.5; stroke-linejoin: miter"/>
   </g>
   <g id="patch_36">
    <path d="M 782.278807 1112.622467 
L 787.912163 1112.622467 
L 787.912163 181.561209 
L 782.278807 181.561209 
z
" clip-path="url(#pa877f7354e)" style="fill: #c3d3e2; stroke: #ffffff; stroke-width: 0.5; stroke-linejoin: miter"/>
   </g>
   <g id="patch_37">
    <path d="M 831.058484 1112.622467 
L 836.69184 1112.622467 
L 836.69184 197.020339 
L 831.058484 197.020339 
z
" clip-path="url(#pa877f7354e)" style="fill: #c3d3e2; stroke: #ffffff; stroke-width: 0.5; stroke-linejoin: miter"/>
   </g>
   <g id="patch_38">
    <path d="M 879.838161 1112.622467 
L 885.471517 1112.622467 
L 885.471517 198.425715 
L 879.838161 198.425715 
z
" clip-path="url(#pa877f7354e)" style="fill: #c3d3e2; stroke: #ffffff; stroke-width: 0.5; stroke-linejoin: miter"/>
   </g>
   <g id="patch_39">
    <path d="M 928.617838 1112.622467 
L 934.251194 1112.622467 
L 934.251194 201.939153 
L 928.617838 201.939153 
z
" clip-path="url(#pa877f7354e)" style="fill: #c3d3e2; stroke: #ffffff; stroke-width: 0.5; stroke-linejoin: miter"/>
   </g>
   <g id="patch_40">
    <path d="M 105.356261 1112.622467 
L 110.989617 1112.622467 
L 110.989617 181.561209 
L 105.356261 181.561209 
z
" clip-path="url(#pa877f7354e)" style="fill: #8babc8; stroke: #ffffff; stroke-width: 0.5; stroke-linejoin: miter"/>
   </g>
   <g id="patch_41">
    <path d="M 154.135938 1112.622467 
L 159.769294 1112.622467 
L 159.769294 161.183264 
L 154.135938 161.183264 
z
" clip-path="url(#pa877f7354e)" style="fill: #8babc8; stroke: #ffffff; stroke-width: 0.5; stroke-linejoin: miter"/>
   </g>
   <g id="patch_42">
    <path d="M 202.915615 1112.622467 
L 208.548971 1112.622467 
L 208.548971 128.15694 
L 202.915615 128.15694 
z
" clip-path="url(#pa877f7354e)" style="fill: #8babc8; stroke: #ffffff; stroke-width: 0.5; stroke-linejoin: miter"/>
   </g>
   <g id="patch_43">
    <path d="M 251.695292 1112.622467 
L 257.328648 1112.622467 
L 257.328648 82.482237 
L 251.695292 82.482237 
z
" clip-path="url(#pa877f7354e)" style="fill: #8babc8; stroke: #ffffff; stroke-width: 0.5; stroke-linejoin: miter"/>
   </g>
   <g id="patch_44">
    <path d="M 300.474969 1112.622467 
L 306.108325 1112.622467 
L 306.108325 156.967138 
L 300.474969 156.967138 
z
" clip-path="url(#pa877f7354e)" style="fill: #8babc8; stroke: #ffffff; stroke-width: 0.5; stroke-linejoin: miter"/>
   </g>
   <g id="patch_45">
    <path d="M 349.254646 1112.622467 
L 354.888002 1112.622467 
L 354.888002 97.23868 
L 349.254646 97.23868 
z
" clip-path="url(#pa877f7354e)" style="fill: #8babc8; stroke: #ffffff; stroke-width: 0.5; stroke-linejoin: miter"/>
   </g>
   <g id="patch_46">
    <path d="M 398.034323 1112.622467 
L 403.667679 1112.622467 
L 403.667679 93.022553 
L 398.034323 93.022553 
z
" clip-path="url(#pa877f7354e)" style="fill: #8babc8; stroke: #ffffff; stroke-width: 0.5; stroke-linejoin: miter"/>
   </g>
   <g id="patch_47">
    <path d="M 446.814 1112.622467 
L 452.447356 1112.622467 
L 452.447356 102.157494 
L 446.814 102.157494 
z
" clip-path="url(#pa877f7354e)" style="fill: #8babc8; stroke: #ffffff; stroke-width: 0.5; stroke-linejoin: miter"/>
   </g>
   <g id="patch_48">
    <path d="M 495.593677 1112.622467 
L 501.227033 1112.622467 
L 501.227033 126.751565 
L 495.593677 126.751565 
z
" clip-path="url(#pa877f7354e)" style="fill: #8babc8; stroke: #ffffff; stroke-width: 0.5; stroke-linejoin: miter"/>
   </g>
   <g id="patch_49">
    <path d="M 544.373354 1112.622467 
L 550.00671 1112.622467 
L 550.00671 104.265557 
L 544.373354 104.265557 
z
" clip-path="url(#pa877f7354e)" style="fill: #8babc8; stroke: #ffffff; stroke-width: 0.5; stroke-linejoin: miter"/>
   </g>
   <g id="patch_50">
    <path d="M 593.153031 1112.622467 
L 598.786387 1112.622467 
L 598.786387 117.616624 
L 593.153031 117.616624 
z
" clip-path="url(#pa877f7354e)" style="fill: #8babc8; stroke: #ffffff; stroke-width: 0.5; stroke-linejoin: miter"/>
   </g>
   <g id="patch_51">
    <path d="M 641.932708 1112.622467 
L 647.566064 1112.622467 
L 647.566064 110.589747 
L 641.932708 110.589747 
z
" clip-path="url(#pa877f7354e)" style="fill: #8babc8; stroke: #ffffff; stroke-width: 0.5; stroke-linejoin: miter"/>
   </g>
   <g id="patch_52">
    <path d="M 690.712385 1112.622467 
L 696.345741 1112.622467 
L 696.345741 119.022 
L 690.712385 119.022 
z
" clip-path="url(#pa877f7354e)" style="fill: #8babc8; stroke: #ffffff; stroke-width: 0.5; stroke-linejoin: miter"/>
   </g>
   <g id="patch_53">
    <path d="M 739.492062 1112.622467 
L 745.125417 1112.622467 
L 745.125417 121.130063 
L 739.492062 121.130063 
z
" clip-path="url(#pa877f7354e)" style="fill: #8babc8; stroke: #ffffff; stroke-width: 0.5; stroke-linejoin: miter"/>
   </g>
   <g id="patch_54">
    <path d="M 788.271739 1112.622467 
L 793.905094 1112.622467 
L 793.905094 133.075755 
L 788.271739 133.075755 
z
" clip-path="url(#pa877f7354e)" style="fill: #8babc8; stroke: #ffffff; stroke-width: 0.5; stroke-linejoin: miter"/>
   </g>
   <g id="patch_55">
    <path d="M 837.051416 1112.622467 
L 842.684771 1112.622467 
L 842.684771 164.696703 
L 837.051416 164.696703 
z
" clip-path="url(#pa877f7354e)" style="fill: #8babc8; stroke: #ffffff; stroke-width: 0.5; stroke-linejoin: miter"/>
   </g>
   <g id="patch_56">
    <path d="M 885.831093 1112.622467 
L 891.464448 1112.622467 
L 891.464448 180.858521 
L 885.831093 180.858521 
z
" clip-path="url(#pa877f7354e)" style="fill: #8babc8; stroke: #ffffff; stroke-width: 0.5; stroke-linejoin: miter"/>
   </g>
   <g id="patch_57">
    <path d="M 934.610769 1112.622467 
L 940.244125 1112.622467 
L 940.244125 185.777335 
L 934.610769 185.777335 
z
" clip-path="url(#pa877f7354e)" style="fill: #8babc8; stroke: #ffffff; stroke-width: 0.5; stroke-linejoin: miter"/>
   </g>
   <g id="patch_58">
    <path d="M 111.349193 1112.622467 
L 116.982549 1112.622467 
L 116.982549 184.37196 
L 111.349193 184.37196 
z
" clip-path="url(#pa877f7354e)" style="fill: #4f7396; stroke: #ffffff; stroke-width: 0.5; stroke-linejoin: miter"/>
   </g>
   <g id="patch_59">
    <path d="M 160.12887 1112.622467 
L 165.762226 1112.622467 
L 165.762226 159.777889 
L 160.12887 159.777889 
z
" clip-path="url(#pa877f7354e)" style="fill: #4f7396; stroke: #ffffff; stroke-width: 0.5; stroke-linejoin: miter"/>
   </g>
   <g id="patch_60">
    <path d="M 208.908547 1112.622467 
L 214.541903 1112.622467 
L 214.541903 128.15694 
L 208.908547 128.15694 
z
" clip-path="url(#pa877f7354e)" style="fill: #4f7396; stroke: #ffffff; stroke-width: 0.5; stroke-linejoin: miter"/>
   </g>
   <g id="patch_61">
    <path d="M 257.688224 1112.622467 
L 263.32158 1112.622467 
L 263.32158 102.157494 
L 257.688224 102.157494 
z
" clip-path="url(#pa877f7354e)" style="fill: #4f7396; stroke: #ffffff; stroke-width: 0.5; stroke-linejoin: miter"/>
   </g>
   <g id="patch_62">
    <path d="M 306.467901 1112.622467 
L 312.101257 1112.622467 
L 312.101257 147.832197 
L 306.467901 147.832197 
z
" clip-path="url(#pa877f7354e)" style="fill: #4f7396; stroke: #ffffff; stroke-width: 0.5; stroke-linejoin: miter"/>
   </g>
   <g id="patch_63">
    <path d="M 355.247578 1112.622467 
L 360.880934 1112.622467 
L 360.880934 97.23868 
L 355.247578 97.23868 
z
" clip-path="url(#pa877f7354e)" style="fill: #4f7396; stroke: #ffffff; stroke-width: 0.5; stroke-linejoin: miter"/>
   </g>
   <g id="patch_64">
    <path d="M 404.027255 1112.622467 
L 409.660611 1112.622467 
L 409.660611 102.860182 
L 404.027255 102.860182 
z
" clip-path="url(#pa877f7354e)" style="fill: #4f7396; stroke: #ffffff; stroke-width: 0.5; stroke-linejoin: miter"/>
   </g>
   <g id="patch_65">
    <path d="M 452.806932 1112.622467 
L 458.440287 1112.622467 
L 458.440287 102.157494 
L 452.806932 102.157494 
z
" clip-path="url(#pa877f7354e)" style="fill: #4f7396; stroke: #ffffff; stroke-width: 0.5; stroke-linejoin: miter"/>
   </g>
   <g id="patch_66">
    <path d="M 501.586609 1112.622467 
L 507.219964 1112.622467 
L 507.219964 111.995122 
L 501.586609 111.995122 
z
" clip-path="url(#pa877f7354e)" style="fill: #4f7396; stroke: #ffffff; stroke-width: 0.5; stroke-linejoin: miter"/>
   </g>
   <g id="patch_67">
    <path d="M 550.366286 1112.622467 
L 555.999641 1112.622467 
L 555.999641 103.562869 
L 550.366286 103.562869 
z
" clip-path="url(#pa877f7354e)" style="fill: #4f7396; stroke: #ffffff; stroke-width: 0.5; stroke-linejoin: miter"/>
   </g>
   <g id="patch_68">
    <path d="M 599.145963 1112.622467 
L 604.779318 1112.622467 
L 604.779318 117.616624 
L 599.145963 117.616624 
z
" clip-path="url(#pa877f7354e)" style="fill: #4f7396; stroke: #ffffff; stroke-width: 0.5; stroke-linejoin: miter"/>
   </g>
   <g id="patch_69">
    <path d="M 647.925639 1112.622467 
L 653.558995 1112.622467 
L 653.558995 109.887059 
L 647.925639 109.887059 
z
" clip-path="url(#pa877f7354e)" style="fill: #4f7396; stroke: #ffffff; stroke-width: 0.5; stroke-linejoin: miter"/>
   </g>
   <g id="patch_70">
    <path d="M 696.705316 1112.622467 
L 702.338672 1112.622467 
L 702.338672 119.022 
L 696.705316 119.022 
z
" clip-path="url(#pa877f7354e)" style="fill: #4f7396; stroke: #ffffff; stroke-width: 0.5; stroke-linejoin: miter"/>
   </g>
   <g id="patch_71">
    <path d="M 745.484993 1112.622467 
L 751.118349 1112.622467 
L 751.118349 100.752118 
L 745.484993 100.752118 
z
" clip-path="url(#pa877f7354e)" style="fill: #4f7396; stroke: #ffffff; stroke-width: 0.5; stroke-linejoin: miter"/>
   </g>
   <g id="patch_72">
    <path d="M 794.26467 1112.622467 
L 799.898026 1112.622467 
L 799.898026 130.967691 
L 794.26467 130.967691 
z
" clip-path="url(#pa877f7354e)" style="fill: #4f7396; stroke: #ffffff; stroke-width: 0.5; stroke-linejoin: miter"/>
   </g>
   <g id="patch_73">
    <path d="M 843.044347 1112.622467 
L 848.677703 1112.622467 
L 848.677703 144.318758 
L 843.044347 144.318758 
z
" clip-path="url(#pa877f7354e)" style="fill: #4f7396; stroke: #ffffff; stroke-width: 0.5; stroke-linejoin: miter"/>
   </g>
   <g id="patch_74">
    <path d="M 891.824024 1112.622467 
L 897.45738 1112.622467 
L 897.45738 159.777889 
L 891.824024 159.777889 
z
" clip-path="url(#pa877f7354e)" style="fill: #4f7396; stroke: #ffffff; stroke-width: 0.5; stroke-linejoin: miter"/>
   </g>
   <g id="patch_75">
    <path d="M 940.603701 1112.622467 
L 946.237057 1112.622467 
L 946.237057 153.453699 
L 940.603701 153.453699 
z
" clip-path="url(#pa877f7354e)" style="fill: #4f7396; stroke: #ffffff; stroke-width: 0.5; stroke-linejoin: miter"/>
   </g>
   <g id="patch_76">
    <path d="M 117.342125 1112.622467 
L 122.975481 1112.622467 
L 122.975481 210.371406 
L 117.342125 210.371406 
z
" clip-path="url(#pa877f7354e)" style="fill: #b3d2b7; stroke: #ffffff; stroke-width: 0.5; stroke-linejoin: miter"/>
   </g>
   <g id="patch_77">
    <path d="M 166.121802 1112.622467 
L 171.755157 1112.622467 
L 171.755157 197.020339 
L 166.121802 197.020339 
z
" clip-path="url(#pa877f7354e)" style="fill: #b3d2b7; stroke: #ffffff; stroke-width: 0.5; stroke-linejoin: miter"/>
   </g>
   <g id="patch_78">
    <path d="M 214.901479 1112.622467 
L 220.534834 1112.622467 
L 220.534834 177.345082 
L 214.901479 177.345082 
z
" clip-path="url(#pa877f7354e)" style="fill: #b3d2b7; stroke: #ffffff; stroke-width: 0.5; stroke-linejoin: miter"/>
   </g>
   <g id="patch_79">
    <path d="M 263.681156 1112.622467 
L 269.314511 1112.622467 
L 269.314511 126.751565 
L 263.681156 126.751565 
z
" clip-path="url(#pa877f7354e)" style="fill: #b3d2b7; stroke: #ffffff; stroke-width: 0.5; stroke-linejoin: miter"/>
   </g>
   <g id="patch_80">
    <path d="M 312.460833 1112.622467 
L 318.094188 1112.622467 
L 318.094188 185.074647 
L 312.460833 185.074647 
z
" clip-path="url(#pa877f7354e)" style="fill: #b3d2b7; stroke: #ffffff; stroke-width: 0.5; stroke-linejoin: miter"/>
   </g>
   <g id="patch_81">
    <path d="M 361.240509 1112.622467 
L 366.873865 1112.622467 
L 366.873865 118.319312 
L 361.240509 118.319312 
z
" clip-path="url(#pa877f7354e)" style="fill: #b3d2b7; stroke: #ffffff; stroke-width: 0.5; stroke-linejoin: miter"/>
   </g>
   <g id="patch_82">
    <path d="M 410.020186 1112.622467 
L 415.653542 1112.622467 
L 415.653542 121.832751 
L 410.020186 121.832751 
z
" clip-path="url(#pa877f7354e)" style="fill: #b3d2b7; stroke: #ffffff; stroke-width: 0.5; stroke-linejoin: miter"/>
   </g>
   <g id="patch_83">
    <path d="M 458.799863 1112.622467 
L 464.433219 1112.622467 
L 464.433219 114.805873 
L 458.799863 114.805873 
z
" clip-path="url(#pa877f7354e)" style="fill: #b3d2b7; stroke: #ffffff; stroke-width: 0.5; stroke-linejoin: miter"/>
   </g>
   <g id="patch_84">
    <path d="M 507.57954 1112.622467 
L 513.212896 1112.622467 
L 513.212896 145.724134 
L 507.57954 145.724134 
z
" clip-path="url(#pa877f7354e)" style="fill: #b3d2b7; stroke: #ffffff; stroke-width: 0.5; stroke-linejoin: miter"/>
   </g>
   <g id="patch_85">
    <path d="M 556.359217 1112.622467 
L 561.992573 1112.622467 
L 561.992573 119.724687 
L 556.359217 119.724687 
z
" clip-path="url(#pa877f7354e)" style="fill: #b3d2b7; stroke: #ffffff; stroke-width: 0.5; stroke-linejoin: miter"/>
   </g>
   <g id="patch_86">
    <path d="M 605.138894 1112.622467 
L 610.77225 1112.622467 
L 610.77225 136.589193 
L 605.138894 136.589193 
z
" clip-path="url(#pa877f7354e)" style="fill: #b3d2b7; stroke: #ffffff; stroke-width: 0.5; stroke-linejoin: miter"/>
   </g>
   <g id="patch_87">
    <path d="M 653.918571 1112.622467 
L 659.551927 1112.622467 
L 659.551927 116.913936 
L 653.918571 116.913936 
z
" clip-path="url(#pa877f7354e)" style="fill: #b3d2b7; stroke: #ffffff; stroke-width: 0.5; stroke-linejoin: miter"/>
   </g>
   <g id="patch_88">
    <path d="M 702.698248 1112.622467 
L 708.331604 1112.622467 
L 708.331604 116.211249 
L 702.698248 116.211249 
z
" clip-path="url(#pa877f7354e)" style="fill: #b3d2b7; stroke: #ffffff; stroke-width: 0.5; stroke-linejoin: miter"/>
   </g>
   <g id="patch_89">
    <path d="M 751.477925 1112.622467 
L 757.111281 1112.622467 
L 757.111281 106.37362 
L 751.477925 106.37362 
z
" clip-path="url(#pa877f7354e)" style="fill: #b3d2b7; stroke: #ffffff; stroke-width: 0.5; stroke-linejoin: miter"/>
   </g>
   <g id="patch_90">
    <path d="M 800.257602 1112.622467 
L 805.890958 1112.622467 
L 805.890958 116.211249 
L 800.257602 116.211249 
z
" clip-path="url(#pa877f7354e)" style="fill: #b3d2b7; stroke: #ffffff; stroke-width: 0.5; stroke-linejoin: miter"/>
   </g>
   <g id="patch_91">
    <path d="M 849.037279 1112.622467 
L 854.670635 1112.622467 
L 854.670635 116.913936 
L 849.037279 116.913936 
z
" clip-path="url(#pa877f7354e)" style="fill: #b3d2b7; stroke: #ffffff; stroke-width: 0.5; stroke-linejoin: miter"/>
   </g>
   <g id="patch_92">
    <path d="M 897.816956 1112.622467 
L 903.450312 1112.622467 
L 903.450312 116.913936 
L 897.816956 116.913936 
z
" clip-path="url(#pa877f7354e)" style="fill: #b3d2b7; stroke: #ffffff; stroke-width: 0.5; stroke-linejoin: miter"/>
   </g>
   <g id="patch_93">
    <path d="M 946.596633 1112.622467 
L 952.229989 1112.622467 
L 952.229989 112.69781 
L 946.596633 112.69781 
z
" clip-path="url(#pa877f7354e)" style="fill: #b3d2b7; stroke: #ffffff; stroke-width: 0.5; stroke-linejoin: miter"/>
   </g>
   <g id="patch_94">
    <path d="M 123.335056 1112.622467 
L 128.968412 1112.622467 
L 128.968412 226.533224 
L 123.335056 226.533224 
z
" clip-path="url(#pa877f7354e)" style="fill: #7aa881; stroke: #ffffff; stroke-width: 0.5; stroke-linejoin: miter"/>
   </g>
   <g id="patch_95">
    <path d="M 172.114733 1112.622467 
L 177.748089 1112.622467 
L 177.748089 211.074094 
L 172.114733 211.074094 
z
" clip-path="url(#pa877f7354e)" style="fill: #7aa881; stroke: #ffffff; stroke-width: 0.5; stroke-linejoin: miter"/>
   </g>
   <g id="patch_96">
    <path d="M 220.89441 1112.622467 
L 226.527766 1112.622467 
L 226.527766 168.210142 
L 220.89441 168.210142 
z
" clip-path="url(#pa877f7354e)" style="fill: #7aa881; stroke: #ffffff; stroke-width: 0.5; stroke-linejoin: miter"/>
   </g>
   <g id="patch_97">
    <path d="M 269.674087 1112.622467 
L 275.307443 1112.622467 
L 275.307443 102.157494 
L 269.674087 102.157494 
z
" clip-path="url(#pa877f7354e)" style="fill: #7aa881; stroke: #ffffff; stroke-width: 0.5; stroke-linejoin: miter"/>
   </g>
   <g id="patch_98">
    <path d="M 318.453764 1112.622467 
L 324.08712 1112.622467 
L 324.08712 173.128956 
L 318.453764 173.128956 
z
" clip-path="url(#pa877f7354e)" style="fill: #7aa881; stroke: #ffffff; stroke-width: 0.5; stroke-linejoin: miter"/>
   </g>
   <g id="patch_99">
    <path d="M 367.233441 1112.622467 
L 372.866797 1112.622467 
L 372.866797 104.968245 
L 367.233441 104.968245 
z
" clip-path="url(#pa877f7354e)" style="fill: #7aa881; stroke: #ffffff; stroke-width: 0.5; stroke-linejoin: miter"/>
   </g>
   <g id="patch_100">
    <path d="M 416.013118 1112.622467 
L 421.646474 1112.622467 
L 421.646474 97.941367 
L 416.013118 97.941367 
z
" clip-path="url(#pa877f7354e)" style="fill: #7aa881; stroke: #ffffff; stroke-width: 0.5; stroke-linejoin: miter"/>
   </g>
   <g id="patch_101">
    <path d="M 464.792795 1112.622467 
L 470.426151 1112.622467 
L 470.426151 106.37362 
L 464.792795 106.37362 
z
" clip-path="url(#pa877f7354e)" style="fill: #7aa881; stroke: #ffffff; stroke-width: 0.5; stroke-linejoin: miter"/>
   </g>
   <g id="patch_102">
    <path d="M 513.572472 1112.622467 
L 519.205828 1112.622467 
L 519.205828 121.130063 
L 513.572472 121.130063 
z
" clip-path="url(#pa877f7354e)" style="fill: #7aa881; stroke: #ffffff; stroke-width: 0.5; stroke-linejoin: miter"/>
   </g>
   <g id="patch_103">
    <path d="M 562.352149 1112.622467 
L 567.985505 1112.622467 
L 567.985505 95.833304 
L 562.352149 95.833304 
z
" clip-path="url(#pa877f7354e)" style="fill: #7aa881; stroke: #ffffff; stroke-width: 0.5; stroke-linejoin: miter"/>
   </g>
   <g id="patch_104">
    <path d="M 611.131826 1112.622467 
L 616.765182 1112.622467 
L 616.765182 107.076308 
L 611.131826 107.076308 
z
" clip-path="url(#pa877f7354e)" style="fill: #7aa881; stroke: #ffffff; stroke-width: 0.5; stroke-linejoin: miter"/>
   </g>
   <g id="patch_105">
    <path d="M 659.911503 1112.622467 
L 665.544859 1112.622467 
L 665.544859 103.562869 
L 659.911503 103.562869 
z
" clip-path="url(#pa877f7354e)" style="fill: #7aa881; stroke: #ffffff; stroke-width: 0.5; stroke-linejoin: miter"/>
   </g>
   <g id="patch_106">
    <path d="M 708.69118 1112.622467 
L 714.324536 1112.622467 
L 714.324536 95.833304 
L 708.69118 95.833304 
z
" clip-path="url(#pa877f7354e)" style="fill: #7aa881; stroke: #ffffff; stroke-width: 0.5; stroke-linejoin: miter"/>
   </g>
   <g id="patch_107">
    <path d="M 757.470857 1112.622467 
L 763.104213 1112.622467 
L 763.104213 85.995676 
L 757.470857 85.995676 
z
" clip-path="url(#pa877f7354e)" style="fill: #7aa881; stroke: #ffffff; stroke-width: 0.5; stroke-linejoin: miter"/>
   </g>
   <g id="patch_108">
    <path d="M 806.250534 1112.622467 
L 811.88389 1112.622467 
L 811.88389 96.535992 
L 806.250534 96.535992 
z
" clip-path="url(#pa877f7354e)" style="fill: #7aa881; stroke: #ffffff; stroke-width: 0.5; stroke-linejoin: miter"/>
   </g>
   <g id="patch_109">
    <path d="M 855.030211 1112.622467 
L 860.663567 1112.622467 
L 860.663567 93.022553 
L 855.030211 93.022553 
z
" clip-path="url(#pa877f7354e)" style="fill: #7aa881; stroke: #ffffff; stroke-width: 0.5; stroke-linejoin: miter"/>
   </g>
   <g id="patch_110">
    <path d="M 903.809888 1112.622467 
L 909.443244 1112.622467 
L 909.443244 90.91449 
L 903.809888 90.91449 
z
" clip-path="url(#pa877f7354e)" style="fill: #7aa881; stroke: #ffffff; stroke-width: 0.5; stroke-linejoin: miter"/>
   </g>
   <g id="patch_111">
    <path d="M 952.589565 1112.622467 
L 958.222921 1112.622467 
L 958.222921 89.509115 
L 952.589565 89.509115 
z
" clip-path="url(#pa877f7354e)" style="fill: #7aa881; stroke: #ffffff; stroke-width: 0.5; stroke-linejoin: miter"/>
   </g>
   <g id="patch_112">
    <path d="M 129.327988 1112.622467 
L 134.961344 1112.622467 
L 134.961344 227.235912 
L 129.327988 227.235912 
z
" clip-path="url(#pa877f7354e)" style="fill: #41704a; stroke: #ffffff; stroke-width: 0.5; stroke-linejoin: miter"/>
   </g>
   <g id="patch_113">
    <path d="M 178.107665 1112.622467 
L 183.741021 1112.622467 
L 183.741021 196.317651 
L 178.107665 196.317651 
z
" clip-path="url(#pa877f7354e)" style="fill: #41704a; stroke: #ffffff; stroke-width: 0.5; stroke-linejoin: miter"/>
   </g>
   <g id="patch_114">
    <path d="M 226.887342 1112.622467 
L 232.520698 1112.622467 
L 232.520698 167.507454 
L 226.887342 167.507454 
z
" clip-path="url(#pa877f7354e)" style="fill: #41704a; stroke: #ffffff; stroke-width: 0.5; stroke-linejoin: miter"/>
   </g>
   <g id="patch_115">
    <path d="M 275.667019 1112.622467 
L 281.300375 1112.622467 
L 281.300375 108.481684 
L 275.667019 108.481684 
z
" clip-path="url(#pa877f7354e)" style="fill: #41704a; stroke: #ffffff; stroke-width: 0.5; stroke-linejoin: miter"/>
   </g>
   <g id="patch_116">
    <path d="M 324.446696 1112.622467 
L 330.080052 1112.622467 
L 330.080052 159.075201 
L 324.446696 159.075201 
z
" clip-path="url(#pa877f7354e)" style="fill: #41704a; stroke: #ffffff; stroke-width: 0.5; stroke-linejoin: miter"/>
   </g>
   <g id="patch_117">
    <path d="M 373.226373 1112.622467 
L 378.859729 1112.622467 
L 378.859729 101.454806 
L 373.226373 101.454806 
z
" clip-path="url(#pa877f7354e)" style="fill: #41704a; stroke: #ffffff; stroke-width: 0.5; stroke-linejoin: miter"/>
   </g>
   <g id="patch_118">
    <path d="M 422.00605 1112.622467 
L 427.639406 1112.622467 
L 427.639406 99.346743 
L 422.00605 99.346743 
z
" clip-path="url(#pa877f7354e)" style="fill: #41704a; stroke: #ffffff; stroke-width: 0.5; stroke-linejoin: miter"/>
   </g>
   <g id="patch_119">
    <path d="M 470.785727 1112.622467 
L 476.419083 1112.622467 
L 476.419083 95.130616 
L 470.785727 95.130616 
z
" clip-path="url(#pa877f7354e)" style="fill: #41704a; stroke: #ffffff; stroke-width: 0.5; stroke-linejoin: miter"/>
   </g>
   <g id="patch_120">
    <path d="M 519.565404 1112.622467 
L 525.19876 1112.622467 
L 525.19876 116.211249 
L 519.565404 116.211249 
z
" clip-path="url(#pa877f7354e)" style="fill: #41704a; stroke: #ffffff; stroke-width: 0.5; stroke-linejoin: miter"/>
   </g>
   <g id="patch_121">
    <path d="M 568.345081 1112.622467 
L 573.978437 1112.622467 
L 573.978437 93.022553 
L 568.345081 93.022553 
z
" clip-path="url(#pa877f7354e)" style="fill: #41704a; stroke: #ffffff; stroke-width: 0.5; stroke-linejoin: miter"/>
   </g>
   <g id="patch_122">
    <path d="M 617.124758 1112.622467 
L 622.758114 1112.622467 
L 622.758114 107.076308 
L 617.124758 107.076308 
z
" clip-path="url(#pa877f7354e)" style="fill: #41704a; stroke: #ffffff; stroke-width: 0.5; stroke-linejoin: miter"/>
   </g>
   <g id="patch_123">
    <path d="M 665.904435 1112.622467 
L 671.537791 1112.622467 
L 671.537791 93.725241 
L 665.904435 93.725241 
z
" clip-path="url(#pa877f7354e)" style="fill: #41704a; stroke: #ffffff; stroke-width: 0.5; stroke-linejoin: miter"/>
   </g>
   <g id="patch_124">
    <path d="M 714.684112 1112.622467 
L 720.317467 1112.622467 
L 720.317467 93.725241 
L 714.684112 93.725241 
z
" clip-path="url(#pa877f7354e)" style="fill: #41704a; stroke: #ffffff; stroke-width: 0.5; stroke-linejoin: miter"/>
   </g>
   <g id="patch_125">
    <path d="M 763.463789 1112.622467 
L 769.097144 1112.622467 
L 769.097144 81.779549 
L 763.463789 81.779549 
z
" clip-path="url(#pa877f7354e)" style="fill: #41704a; stroke: #ffffff; stroke-width: 0.5; stroke-linejoin: miter"/>
   </g>
   <g id="patch_126">
    <path d="M 812.243466 1112.622467 
L 817.876821 1112.622467 
L 817.876821 90.91449 
L 812.243466 90.91449 
z
" clip-path="url(#pa877f7354e)" style="fill: #41704a; stroke: #ffffff; stroke-width: 0.5; stroke-linejoin: miter"/>
   </g>
   <g id="patch_127">
    <path d="M 861.023143 1112.622467 
L 866.656498 1112.622467 
L 866.656498 91.617178 
L 861.023143 91.617178 
z
" clip-path="url(#pa877f7354e)" style="fill: #41704a; stroke: #ffffff; stroke-width: 0.5; stroke-linejoin: miter"/>
   </g>
   <g id="patch_128">
    <path d="M 909.802819 1112.622467 
L 915.436175 1112.622467 
L 915.436175 85.995676 
L 909.802819 85.995676 
z
" clip-path="url(#pa877f7354e)" style="fill: #41704a; stroke: #ffffff; stroke-width: 0.5; stroke-linejoin: miter"/>
   </g>
   <g id="patch_129">
    <path d="M 958.582496 1112.622467 
L 964.215852 1112.622467 
L 964.215852 78.266111 
L 958.582496 78.266111 
z
" clip-path="url(#pa877f7354e)" style="fill: #41704a; stroke: #ffffff; stroke-width: 0.5; stroke-linejoin: miter"/>
   </g>
   <g id="text_28">
    <!-- BN=512 splitacc · GSM sweep, both BK settings -->
    <g style="fill: #1f2933" transform="translate(49.828125 17.077969) scale(0.13 -0.13)">
     <defs>
      <path id="DejaVuSans-Bold-42" d="M 2456 2859 
Q 2741 2859 2887 2984 
Q 3034 3109 3034 3353 
Q 3034 3594 2887 3720 
Q 2741 3847 2456 3847 
L 1791 3847 
L 1791 2859 
L 2456 2859 
z
M 2497 819 
Q 2859 819 3042 972 
Q 3225 1125 3225 1434 
Q 3225 1738 3044 1889 
Q 2863 2041 2497 2041 
L 1791 2041 
L 1791 819 
L 2497 819 
z
M 3616 2497 
Q 4003 2384 4215 2081 
Q 4428 1778 4428 1338 
Q 4428 663 3972 331 
Q 3516 0 2584 0 
L 588 0 
L 588 4666 
L 2394 4666 
Q 3366 4666 3802 4372 
Q 4238 4078 4238 3431 
Q 4238 3091 4078 2852 
Q 3919 2613 3616 2497 
z
" transform="scale(0.015625)"/>
      <path id="DejaVuSans-Bold-4e" d="M 588 4666 
L 1931 4666 
L 3628 1466 
L 3628 4666 
L 4769 4666 
L 4769 0 
L 3425 0 
L 1728 3200 
L 1728 0 
L 588 0 
L 588 4666 
z
" transform="scale(0.015625)"/>
      <path id="DejaVuSans-Bold-3d" d="M 678 3084 
L 4684 3084 
L 4684 2350 
L 678 2350 
L 678 3084 
z
M 678 1663 
L 4684 1663 
L 4684 922 
L 678 922 
L 678 1663 
z
" transform="scale(0.015625)"/>
      <path id="DejaVuSans-Bold-35" d="M 678 4666 
L 3669 4666 
L 3669 3781 
L 1638 3781 
L 1638 3059 
Q 1775 3097 1914 3117 
Q 2053 3138 2203 3138 
Q 3056 3138 3531 2711 
Q 4006 2284 4006 1522 
Q 4006 766 3489 337 
Q 2972 -91 2053 -91 
Q 1656 -91 1267 -14 
Q 878 63 494 219 
L 494 1166 
Q 875 947 1217 837 
Q 1559 728 1863 728 
Q 2300 728 2551 942 
Q 2803 1156 2803 1522 
Q 2803 1891 2551 2103 
Q 2300 2316 1863 2316 
Q 1603 2316 1309 2248 
Q 1016 2181 678 2041 
L 678 4666 
z
" transform="scale(0.015625)"/>
      <path id="DejaVuSans-Bold-31" d="M 750 831 
L 1813 831 
L 1813 3847 
L 722 3622 
L 722 4441 
L 1806 4666 
L 2950 4666 
L 2950 831 
L 4013 831 
L 4013 0 
L 750 0 
L 750 831 
z
" transform="scale(0.015625)"/>
      <path id="DejaVuSans-Bold-32" d="M 1844 884 
L 3897 884 
L 3897 0 
L 506 0 
L 506 884 
L 2209 2388 
Q 2438 2594 2547 2791 
Q 2656 2988 2656 3200 
Q 2656 3528 2436 3728 
Q 2216 3928 1850 3928 
Q 1569 3928 1234 3808 
Q 900 3688 519 3450 
L 519 4475 
Q 925 4609 1322 4679 
Q 1719 4750 2100 4750 
Q 2938 4750 3402 4381 
Q 3866 4013 3866 3353 
Q 3866 2972 3669 2642 
Q 3472 2313 2841 1759 
L 1844 884 
z
" transform="scale(0.015625)"/>
      <path id="DejaVuSans-Bold-20" transform="scale(0.015625)"/>
      <path id="DejaVuSans-Bold-73" d="M 3272 3391 
L 3272 2541 
Q 2913 2691 2578 2766 
Q 2244 2841 1947 2841 
Q 1628 2841 1473 2761 
Q 1319 2681 1319 2516 
Q 1319 2381 1436 2309 
Q 1553 2238 1856 2203 
L 2053 2175 
Q 2913 2066 3209 1816 
Q 3506 1566 3506 1031 
Q 3506 472 3093 190 
Q 2681 -91 1863 -91 
Q 1516 -91 1145 -36 
Q 775 19 384 128 
L 384 978 
Q 719 816 1070 734 
Q 1422 653 1784 653 
Q 2113 653 2278 743 
Q 2444 834 2444 1013 
Q 2444 1163 2330 1236 
Q 2216 1309 1875 1350 
L 1678 1375 
Q 931 1469 631 1722 
Q 331 1975 331 2491 
Q 331 3047 712 3315 
Q 1094 3584 1881 3584 
Q 2191 3584 2531 3537 
Q 2872 3491 3272 3391 
z
" transform="scale(0.015625)"/>
      <path id="DejaVuSans-Bold-70" d="M 1656 506 
L 1656 -1331 
L 538 -1331 
L 538 3500 
L 1656 3500 
L 1656 2988 
Q 1888 3294 2169 3439 
Q 2450 3584 2816 3584 
Q 3463 3584 3878 3070 
Q 4294 2556 4294 1747 
Q 4294 938 3878 423 
Q 3463 -91 2816 -91 
Q 2450 -91 2169 54 
Q 1888 200 1656 506 
z
M 2400 2772 
Q 2041 2772 1848 2508 
Q 1656 2244 1656 1747 
Q 1656 1250 1848 986 
Q 2041 722 2400 722 
Q 2759 722 2948 984 
Q 3138 1247 3138 1747 
Q 3138 2247 2948 2509 
Q 2759 2772 2400 2772 
z
" transform="scale(0.015625)"/>
      <path id="DejaVuSans-Bold-6c" d="M 538 4863 
L 1656 4863 
L 1656 0 
L 538 0 
L 538 4863 
z
" transform="scale(0.015625)"/>
      <path id="DejaVuSans-Bold-69" d="M 538 3500 
L 1656 3500 
L 1656 0 
L 538 0 
L 538 3500 
z
M 538 4863 
L 1656 4863 
L 1656 3950 
L 538 3950 
L 538 4863 
z
" transform="scale(0.015625)"/>
      <path id="DejaVuSans-Bold-74" d="M 1759 4494 
L 1759 3500 
L 2913 3500 
L 2913 2700 
L 1759 2700 
L 1759 1216 
Q 1759 972 1856 886 
Q 1953 800 2241 800 
L 2816 800 
L 2816 0 
L 1856 0 
Q 1194 0 917 276 
Q 641 553 641 1216 
L 641 2700 
L 84 2700 
L 84 3500 
L 641 3500 
L 641 4494 
L 1759 4494 
z
" transform="scale(0.015625)"/>
      <path id="DejaVuSans-Bold-61" d="M 2106 1575 
Q 1756 1575 1579 1456 
Q 1403 1338 1403 1106 
Q 1403 894 1545 773 
Q 1688 653 1941 653 
Q 2256 653 2472 879 
Q 2688 1106 2688 1447 
L 2688 1575 
L 2106 1575 
z
M 3816 1997 
L 3816 0 
L 2688 0 
L 2688 519 
Q 2463 200 2181 54 
Q 1900 -91 1497 -91 
Q 953 -91 614 226 
Q 275 544 275 1050 
Q 275 1666 698 1953 
Q 1122 2241 2028 2241 
L 2688 2241 
L 2688 2328 
Q 2688 2594 2478 2717 
Q 2269 2841 1825 2841 
Q 1466 2841 1156 2769 
Q 847 2697 581 2553 
L 581 3406 
Q 941 3494 1303 3539 
Q 1666 3584 2028 3584 
Q 2975 3584 3395 3211 
Q 3816 2838 3816 1997 
z
" transform="scale(0.015625)"/>
      <path id="DejaVuSans-Bold-63" d="M 3366 3391 
L 3366 2478 
Q 3138 2634 2908 2709 
Q 2678 2784 2431 2784 
Q 1963 2784 1702 2511 
Q 1441 2238 1441 1747 
Q 1441 1256 1702 982 
Q 1963 709 2431 709 
Q 2694 709 2930 787 
Q 3166 866 3366 1019 
L 3366 103 
Q 3103 6 2833 -42 
Q 2563 -91 2291 -91 
Q 1344 -91 809 395 
Q 275 881 275 1747 
Q 275 2613 809 3098 
Q 1344 3584 2291 3584 
Q 2566 3584 2833 3536 
Q 3100 3488 3366 3391 
z
" transform="scale(0.015625)"/>
      <path id="DejaVuSans-Bold-b7" d="M 653 2828 
L 1778 2828 
L 1778 1619 
L 653 1619 
L 653 2828 
z
" transform="scale(0.015625)"/>
      <path id="DejaVuSans-Bold-47" d="M 4781 347 
Q 4331 128 3847 18 
Q 3363 -91 2847 -91 
Q 1681 -91 1000 561 
Q 319 1213 319 2328 
Q 319 3456 1012 4103 
Q 1706 4750 2913 4750 
Q 3378 4750 3804 4662 
Q 4231 4575 4609 4403 
L 4609 3438 
Q 4219 3659 3833 3768 
Q 3447 3878 3059 3878 
Q 2341 3878 1952 3476 
Q 1563 3075 1563 2328 
Q 1563 1588 1938 1184 
Q 2313 781 3003 781 
Q 3191 781 3352 804 
Q 3513 828 3641 878 
L 3641 1784 
L 2906 1784 
L 2906 2591 
L 4781 2591 
L 4781 347 
z
" transform="scale(0.015625)"/>
      <path id="DejaVuSans-Bold-53" d="M 3834 4519 
L 3834 3531 
Q 3450 3703 3084 3790 
Q 2719 3878 2394 3878 
Q 1963 3878 1756 3759 
Q 1550 3641 1550 3391 
Q 1550 3203 1689 3098 
Q 1828 2994 2194 2919 
L 2706 2816 
Q 3484 2659 3812 2340 
Q 4141 2022 4141 1434 
Q 4141 663 3683 286 
Q 3225 -91 2284 -91 
Q 1841 -91 1394 -6 
Q 947 78 500 244 
L 500 1259 
Q 947 1022 1364 901 
Q 1781 781 2169 781 
Q 2563 781 2772 912 
Q 2981 1044 2981 1288 
Q 2981 1506 2839 1625 
Q 2697 1744 2272 1838 
L 1806 1941 
Q 1106 2091 782 2419 
Q 459 2747 459 3303 
Q 459 4000 909 4375 
Q 1359 4750 2203 4750 
Q 2588 4750 2994 4692 
Q 3400 4634 3834 4519 
z
" transform="scale(0.015625)"/>
      <path id="DejaVuSans-Bold-4d" d="M 588 4666 
L 2119 4666 
L 3181 2169 
L 4250 4666 
L 5778 4666 
L 5778 0 
L 4641 0 
L 4641 3413 
L 3566 897 
L 2803 897 
L 1728 3413 
L 1728 0 
L 588 0 
L 588 4666 
z
" transform="scale(0.015625)"/>
      <path id="DejaVuSans-Bold-77" d="M 225 3500 
L 1313 3500 
L 1900 1088 
L 2491 3500 
L 3425 3500 
L 4013 1113 
L 4603 3500 
L 5691 3500 
L 4769 0 
L 3547 0 
L 2956 2406 
L 2369 0 
L 1147 0 
L 225 3500 
z
" transform="scale(0.015625)"/>
      <path id="DejaVuSans-Bold-65" d="M 4031 1759 
L 4031 1441 
L 1416 1441 
Q 1456 1047 1700 850 
Q 1944 653 2381 653 
Q 2734 653 3104 758 
Q 3475 863 3866 1075 
L 3866 213 
Q 3469 63 3072 -14 
Q 2675 -91 2278 -91 
Q 1328 -91 801 392 
Q 275 875 275 1747 
Q 275 2603 792 3093 
Q 1309 3584 2216 3584 
Q 3041 3584 3536 3087 
Q 4031 2591 4031 1759 
z
M 2881 2131 
Q 2881 2450 2695 2645 
Q 2509 2841 2209 2841 
Q 1884 2841 1681 2658 
Q 1478 2475 1428 2131 
L 2881 2131 
z
" transform="scale(0.015625)"/>
      <path id="DejaVuSans-Bold-2c" d="M 653 1209 
L 1778 1209 
L 1778 256 
L 1006 -909 
L 341 -909 
L 653 256 
L 653 1209 
z
" transform="scale(0.015625)"/>
      <path id="DejaVuSans-Bold-62" d="M 2400 722 
Q 2759 722 2948 984 
Q 3138 1247 3138 1747 
Q 3138 2247 2948 2509 
Q 2759 2772 2400 2772 
Q 2041 2772 1848 2508 
Q 1656 2244 1656 1747 
Q 1656 1250 1848 986 
Q 2041 722 2400 722 
z
M 1656 2988 
Q 1888 3294 2169 3439 
Q 2450 3584 2816 3584 
Q 3463 3584 3878 3070 
Q 4294 2556 4294 1747 
Q 4294 938 3878 423 
Q 3463 -91 2816 -91 
Q 2450 -91 2169 54 
Q 1888 200 1656 506 
L 1656 0 
L 538 0 
L 538 4863 
L 1656 4863 
L 1656 2988 
z
" transform="scale(0.015625)"/>
      <path id="DejaVuSans-Bold-6f" d="M 2203 2784 
Q 1831 2784 1636 2517 
Q 1441 2250 1441 1747 
Q 1441 1244 1636 976 
Q 1831 709 2203 709 
Q 2569 709 2762 976 
Q 2956 1244 2956 1747 
Q 2956 2250 2762 2517 
Q 2569 2784 2203 2784 
z
M 2203 3584 
Q 3106 3584 3614 3096 
Q 4122 2609 4122 1747 
Q 4122 884 3614 396 
Q 3106 -91 2203 -91 
Q 1297 -91 786 396 
Q 275 884 275 1747 
Q 275 2609 786 3096 
Q 1297 3584 2203 3584 
z
" transform="scale(0.015625)"/>
      <path id="DejaVuSans-Bold-68" d="M 4056 2131 
L 4056 0 
L 2931 0 
L 2931 347 
L 2931 1625 
Q 2931 2084 2911 2256 
Q 2891 2428 2841 2509 
Q 2775 2619 2662 2680 
Q 2550 2741 2406 2741 
Q 2056 2741 1856 2470 
Q 1656 2200 1656 1722 
L 1656 0 
L 538 0 
L 538 4863 
L 1656 4863 
L 1656 2988 
Q 1909 3294 2193 3439 
Q 2478 3584 2822 3584 
Q 3428 3584 3742 3212 
Q 4056 2841 4056 2131 
z
" transform="scale(0.015625)"/>
      <path id="DejaVuSans-Bold-4b" d="M 588 4666 
L 1791 4666 
L 1791 2963 
L 3525 4666 
L 4922 4666 
L 2675 2456 
L 5153 0 
L 3647 0 
L 1791 1838 
L 1791 0 
L 588 0 
L 588 4666 
z
" transform="scale(0.015625)"/>
      <path id="DejaVuSans-Bold-6e" d="M 4056 2131 
L 4056 0 
L 2931 0 
L 2931 347 
L 2931 1631 
Q 2931 2084 2911 2256 
Q 2891 2428 2841 2509 
Q 2775 2619 2662 2680 
Q 2550 2741 2406 2741 
Q 2056 2741 1856 2470 
Q 1656 2200 1656 1722 
L 1656 0 
L 538 0 
L 538 3500 
L 1656 3500 
L 1656 2988 
Q 1909 3294 2193 3439 
Q 2478 3584 2822 3584 
Q 3428 3584 3742 3212 
Q 4056 2841 4056 2131 
z
" transform="scale(0.015625)"/>
      <path id="DejaVuSans-Bold-67" d="M 2919 594 
Q 2688 288 2409 144 
Q 2131 0 1766 0 
Q 1125 0 706 504 
Q 288 1009 288 1791 
Q 288 2575 706 3076 
Q 1125 3578 1766 3578 
Q 2131 3578 2409 3434 
Q 2688 3291 2919 2981 
L 2919 3500 
L 4044 3500 
L 4044 353 
Q 4044 -491 3511 -936 
Q 2978 -1381 1966 -1381 
Q 1638 -1381 1331 -1331 
Q 1025 -1281 716 -1178 
L 716 -306 
Q 1009 -475 1290 -558 
Q 1572 -641 1856 -641 
Q 2406 -641 2662 -400 
Q 2919 -159 2919 353 
L 2919 594 
z
M 2181 2772 
Q 1834 2772 1640 2515 
Q 1447 2259 1447 1791 
Q 1447 1309 1634 1061 
Q 1822 813 2181 813 
Q 2531 813 2725 1069 
Q 2919 1325 2919 1791 
Q 2919 2259 2725 2515 
Q 2531 2772 2181 2772 
z
" transform="scale(0.015625)"/>
     </defs>
     <use xlink:href="#DejaVuSans-Bold-42"/>
     <use xlink:href="#DejaVuSans-Bold-4e" transform="translate(76.220703 0)"/>
     <use xlink:href="#DejaVuSans-Bold-3d" transform="translate(159.912109 0)"/>
     <use xlink:href="#DejaVuSans-Bold-35" transform="translate(243.701172 0)"/>
     <use xlink:href="#DejaVuSans-Bold-31" transform="translate(313.28125 0)"/>
     <use xlink:href="#DejaVuSans-Bold-32" transform="translate(382.861328 0)"/>
     <use xlink:href="#DejaVuSans-Bold-20" transform="translate(452.441406 0)"/>
     <use xlink:href="#DejaVuSans-Bold-73" transform="translate(487.255859 0)"/>
     <use xlink:href="#DejaVuSans-Bold-70" transform="translate(546.777344 0)"/>
     <use xlink:href="#DejaVuSans-Bold-6c" transform="translate(618.359375 0)"/>
     <use xlink:href="#DejaVuSans-Bold-69" transform="translate(652.636719 0)"/>
     <use xlink:href="#DejaVuSans-Bold-74" transform="translate(686.914062 0)"/>
     <use xlink:href="#DejaVuSans-Bold-61" transform="translate(734.716797 0)"/>
     <use xlink:href="#DejaVuSans-Bold-63" transform="translate(802.197266 0)"/>
     <use xlink:href="#DejaVuSans-Bold-63" transform="translate(861.474609 0)"/>
     <use xlink:href="#DejaVuSans-Bold-20" transform="translate(920.751953 0)"/>
     <use xlink:href="#DejaVuSans-Bold-b7" transform="translate(955.566406 0)"/>
     <use xlink:href="#DejaVuSans-Bold-20" transform="translate(993.554688 0)"/>
     <use xlink:href="#DejaVuSans-Bold-47" transform="translate(1028.369141 0)"/>
     <use xlink:href="#DejaVuSans-Bold-53" transform="translate(1110.449219 0)"/>
     <use xlink:href="#DejaVuSans-Bold-4d" transform="translate(1182.470703 0)"/>
     <use xlink:href="#DejaVuSans-Bold-20" transform="translate(1281.982422 0)"/>
     <use xlink:href="#DejaVuSans-Bold-73" transform="translate(1316.796875 0)"/>
     <use xlink:href="#DejaVuSans-Bold-77" transform="translate(1376.318359 0)"/>
     <use xlink:href="#DejaVuSans-Bold-65" transform="translate(1468.701172 0)"/>
     <use xlink:href="#DejaVuSans-Bold-65" transform="translate(1536.523438 0)"/>
     <use xlink:href="#DejaVuSans-Bold-70" transform="translate(1604.345703 0)"/>
     <use xlink:href="#DejaVuSans-Bold-2c" transform="translate(1675.927734 0)"/>
     <use xlink:href="#DejaVuSans-Bold-20" transform="translate(1713.916016 0)"/>
     <use xlink:href="#DejaVuSans-Bold-62" transform="translate(1748.730469 0)"/>
     <use xlink:href="#DejaVuSans-Bold-6f" transform="translate(1820.3125 0)"/>
     <use xlink:href="#DejaVuSans-Bold-74" transform="translate(1889.013672 0)"/>
     <use xlink:href="#DejaVuSans-Bold-68" transform="translate(1936.816406 0)"/>
     <use xlink:href="#DejaVuSans-Bold-20" transform="translate(2008.007812 0)"/>
     <use xlink:href="#DejaVuSans-Bold-42" transform="translate(2042.822266 0)"/>
     <use xlink:href="#DejaVuSans-Bold-4b" transform="translate(2119.042969 0)"/>
     <use xlink:href="#DejaVuSans-Bold-20" transform="translate(2196.533203 0)"/>
     <use xlink:href="#DejaVuSans-Bold-73" transform="translate(2231.347656 0)"/>
     <use xlink:href="#DejaVuSans-Bold-65" transform="translate(2290.869141 0)"/>
     <use xlink:href="#DejaVuSans-Bold-74" transform="translate(2358.691406 0)"/>
     <use xlink:href="#DejaVuSans-Bold-74" transform="translate(2406.494141 0)"/>
     <use xlink:href="#DejaVuSans-Bold-69" transform="translate(2454.296875 0)"/>
     <use xlink:href="#DejaVuSans-Bold-6e" transform="translate(2488.574219 0)"/>
     <use xlink:href="#DejaVuSans-Bold-67" transform="translate(2559.765625 0)"/>
     <use xlink:href="#DejaVuSans-Bold-73" transform="translate(2631.347656 0)"/>
    </g>
   </g>
   <g id="legend_1">
    <g id="patch_130">
     <path d="M 265.119883 348.070299 
L 284.119883 348.070299 
L 284.119883 341.420299 
L 265.119883 341.420299 
z
" style="fill: #b7bfc9; stroke: #ffffff; stroke-width: 0.5; stroke-linejoin: miter"/>
    </g>
    <g id="text_29">
     <!-- torch.matmul (cuBLAS) -->
     <g transform="translate(291.719883 348.070299) scale(0.095 -0.095)">
      <defs>
       <path id="DejaVuSans-74" d="M 1172 4494 
L 1172 3500 
L 2356 3500 
L 2356 3053 
L 1172 3053 
L 1172 1153 
Q 1172 725 1289 603 
Q 1406 481 1766 481 
L 2356 481 
L 2356 0 
L 1766 0 
Q 1100 0 847 248 
Q 594 497 594 1153 
L 594 3053 
L 172 3053 
L 172 3500 
L 594 3500 
L 594 4494 
L 1172 4494 
z
" transform="scale(0.015625)"/>
       <path id="DejaVuSans-6f" d="M 1959 3097 
Q 1497 3097 1228 2736 
Q 959 2375 959 1747 
Q 959 1119 1226 758 
Q 1494 397 1959 397 
Q 2419 397 2687 759 
Q 2956 1122 2956 1747 
Q 2956 2369 2687 2733 
Q 2419 3097 1959 3097 
z
M 1959 3584 
Q 2709 3584 3137 3096 
Q 3566 2609 3566 1747 
Q 3566 888 3137 398 
Q 2709 -91 1959 -91 
Q 1206 -91 779 398 
Q 353 888 353 1747 
Q 353 2609 779 3096 
Q 1206 3584 1959 3584 
z
" transform="scale(0.015625)"/>
       <path id="DejaVuSans-63" d="M 3122 3366 
L 3122 2828 
Q 2878 2963 2633 3030 
Q 2388 3097 2138 3097 
Q 1578 3097 1268 2742 
Q 959 2388 959 1747 
Q 959 1106 1268 751 
Q 1578 397 2138 397 
Q 2388 397 2633 464 
Q 2878 531 3122 666 
L 3122 134 
Q 2881 22 2623 -34 
Q 2366 -91 2075 -91 
Q 1284 -91 818 406 
Q 353 903 353 1747 
Q 353 2603 823 3093 
Q 1294 3584 2113 3584 
Q 2378 3584 2631 3529 
Q 2884 3475 3122 3366 
z
" transform="scale(0.015625)"/>
       <path id="DejaVuSans-2e" d="M 684 794 
L 1344 794 
L 1344 0 
L 684 0 
L 684 794 
z
" transform="scale(0.015625)"/>
       <path id="DejaVuSans-6d" d="M 3328 2828 
Q 3544 3216 3844 3400 
Q 4144 3584 4550 3584 
Q 5097 3584 5394 3201 
Q 5691 2819 5691 2113 
L 5691 0 
L 5113 0 
L 5113 2094 
Q 5113 2597 4934 2840 
Q 4756 3084 4391 3084 
Q 3944 3084 3684 2787 
Q 3425 2491 3425 1978 
L 3425 0 
L 2847 0 
L 2847 2094 
Q 2847 2600 2669 2842 
Q 2491 3084 2119 3084 
Q 1678 3084 1418 2786 
Q 1159 2488 1159 1978 
L 1159 0 
L 581 0 
L 581 3500 
L 1159 3500 
L 1159 2956 
Q 1356 3278 1631 3431 
Q 1906 3584 2284 3584 
Q 2666 3584 2933 3390 
Q 3200 3197 3328 2828 
z
" transform="scale(0.015625)"/>
       <path id="DejaVuSans-6c" d="M 603 4863 
L 1178 4863 
L 1178 0 
L 603 0 
L 603 4863 
z
" transform="scale(0.015625)"/>
       <path id="DejaVuSans-42" d="M 1259 2228 
L 1259 519 
L 2272 519 
Q 2781 519 3026 730 
Q 3272 941 3272 1375 
Q 3272 1813 3026 2020 
Q 2781 2228 2272 2228 
L 1259 2228 
z
M 1259 4147 
L 1259 2741 
L 2194 2741 
Q 2656 2741 2882 2914 
Q 3109 3088 3109 3444 
Q 3109 3797 2882 3972 
Q 2656 4147 2194 4147 
L 1259 4147 
z
M 628 4666 
L 2241 4666 
Q 2963 4666 3353 4366 
Q 3744 4066 3744 3513 
Q 3744 3084 3544 2831 
Q 3344 2578 2956 2516 
Q 3422 2416 3680 2098 
Q 3938 1781 3938 1306 
Q 3938 681 3513 340 
Q 3088 0 2303 0 
L 628 0 
L 628 4666 
z
" transform="scale(0.015625)"/>
       <path id="DejaVuSans-41" d="M 2188 4044 
L 1331 1722 
L 3047 1722 
L 2188 4044 
z
M 1831 4666 
L 2547 4666 
L 4325 0 
L 3669 0 
L 3244 1197 
L 1141 1197 
L 716 0 
L 50 0 
L 1831 4666 
z
" transform="scale(0.015625)"/>
       <path id="DejaVuSans-53" d="M 3425 4513 
L 3425 3897 
Q 3066 4069 2747 4153 
Q 2428 4238 2131 4238 
Q 1616 4238 1336 4038 
Q 1056 3838 1056 3469 
Q 1056 3159 1242 3001 
Q 1428 2844 1947 2747 
L 2328 2669 
Q 3034 2534 3370 2195 
Q 3706 1856 3706 1288 
Q 3706 609 3251 259 
Q 2797 -91 1919 -91 
Q 1588 -91 1214 -16 
Q 841 59 441 206 
L 441 856 
Q 825 641 1194 531 
Q 1563 422 1919 422 
Q 2459 422 2753 634 
Q 3047 847 3047 1241 
Q 3047 1584 2836 1778 
Q 2625 1972 2144 2069 
L 1759 2144 
Q 1053 2284 737 2584 
Q 422 2884 422 3419 
Q 422 4038 858 4394 
Q 1294 4750 2059 4750 
Q 2388 4750 2728 4690 
Q 3069 4631 3425 4513 
z
" transform="scale(0.015625)"/>
      </defs>
      <use xlink:href="#DejaVuSans-74"/>
      <use xlink:href="#DejaVuSans-6f" transform="translate(39.208984 0)"/>
      <use xlink:href="#DejaVuSans-72" transform="translate(100.390625 0)"/>
      <use xlink:href="#DejaVuSans-63" transform="translate(139.253906 0)"/>
      <use xlink:href="#DejaVuSans-68" transform="translate(194.234375 0)"/>
      <use xlink:href="#DejaVuSans-2e" transform="translate(257.613281 0)"/>
      <use xlink:href="#DejaVuSans-6d" transform="translate(289.400391 0)"/>
      <use xlink:href="#DejaVuSans-61" transform="translate(386.8125 0)"/>
      <use xlink:href="#DejaVuSans-74" transform="translate(448.091797 0)"/>
      <use xlink:href="#DejaVuSans-6d" transform="translate(487.300781 0)"/>
      <use xlink:href="#DejaVuSans-75" transform="translate(584.712891 0)"/>
      <use xlink:href="#DejaVuSans-6c" transform="translate(648.091797 0)"/>
      <use xlink:href="#DejaVuSans-20" transform="translate(675.875 0)"/>
      <use xlink:href="#DejaVuSans-28" transform="translate(707.662109 0)"/>
      <use xlink:href="#DejaVuSans-63" transform="translate(746.675781 0)"/>
      <use xlink:href="#DejaVuSans-75" transform="translate(801.65625 0)"/>
      <use xlink:href="#DejaVuSans-42" transform="translate(865.035156 0)"/>
      <use xlink:href="#DejaVuSans-4c" transform="translate(933.638672 0)"/>
      <use xlink:href="#DejaVuSans-41" transform="translate(991.601562 0)"/>
      <use xlink:href="#DejaVuSans-53" transform="translate(1060.009766 0)"/>
      <use xlink:href="#DejaVuSans-29" transform="translate(1123.486328 0)"/>
     </g>
    </g>
    <g id="patch_131">
     <path d="M 265.119883 362.014518 
L 284.119883 362.014518 
L 284.119883 355.364518 
L 265.119883 355.364518 
z
" style="fill: #c3d3e2; stroke: #ffffff; stroke-width: 0.5; stroke-linejoin: miter"/>
    </g>
    <g id="text_30">
     <!-- BK=64  GSM=8 -->
     <g transform="translate(291.719883 362.014518) scale(0.095 -0.095)">
      <defs>
       <path id="DejaVuSans-47" d="M 3809 666 
L 3809 1919 
L 2778 1919 
L 2778 2438 
L 4434 2438 
L 4434 434 
Q 4069 175 3628 42 
Q 3188 -91 2688 -91 
Q 1594 -91 976 548 
Q 359 1188 359 2328 
Q 359 3472 976 4111 
Q 1594 4750 2688 4750 
Q 3144 4750 3555 4637 
Q 3966 4525 4313 4306 
L 4313 3634 
Q 3963 3931 3569 4081 
Q 3175 4231 2741 4231 
Q 1884 4231 1454 3753 
Q 1025 3275 1025 2328 
Q 1025 1384 1454 906 
Q 1884 428 2741 428 
Q 3075 428 3337 486 
Q 3600 544 3809 666 
z
" transform="scale(0.015625)"/>
      </defs>
      <use xlink:href="#DejaVuSans-42"/>
      <use xlink:href="#DejaVuSans-4b" transform="translate(68.603516 0)"/>
      <use xlink:href="#DejaVuSans-3d" transform="translate(134.179688 0)"/>
      <use xlink:href="#DejaVuSans-36" transform="translate(217.96875 0)"/>
      <use xlink:href="#DejaVuSans-34" transform="translate(281.591797 0)"/>
      <use xlink:href="#DejaVuSans-20" transform="translate(345.214844 0)"/>
      <use xlink:href="#DejaVuSans-20" transform="translate(377.001953 0)"/>
      <use xlink:href="#DejaVuSans-47" transform="translate(408.789062 0)"/>
      <use xlink:href="#DejaVuSans-53" transform="translate(486.279297 0)"/>
      <use xlink:href="#DejaVuSans-4d" transform="translate(549.755859 0)"/>
      <use xlink:href="#DejaVuSans-3d" transform="translate(636.035156 0)"/>
      <use xlink:href="#DejaVuSans-38" transform="translate(719.824219 0)"/>
     </g>
    </g>
    <g id="patch_132">
     <path d="M 421.155898 348.070299 
L 440.155898 348.070299 
L 440.155898 341.420299 
L 421.155898 341.420299 
z
" style="fill: #8babc8; stroke: #ffffff; stroke-width: 0.5; stroke-linejoin: miter"/>
    </g>
    <g id="text_31">
     <!-- BK=64  GSM=12 -->
     <g transform="translate(447.755898 348.070299) scale(0.095 -0.095)">
      <use xlink:href="#DejaVuSans-42"/>
      <use xlink:href="#DejaVuSans-4b" transform="translate(68.603516 0)"/>
      <use xlink:href="#DejaVuSans-3d" transform="translate(134.179688 0)"/>
      <use xlink:href="#DejaVuSans-36" transform="translate(217.96875 0)"/>
      <use xlink:href="#DejaVuSans-34" transform="translate(281.591797 0)"/>
      <use xlink:href="#DejaVuSans-20" transform="translate(345.214844 0)"/>
      <use xlink:href="#DejaVuSans-20" transform="translate(377.001953 0)"/>
      <use xlink:href="#DejaVuSans-47" transform="translate(408.789062 0)"/>
      <use xlink:href="#DejaVuSans-53" transform="translate(486.279297 0)"/>
      <use xlink:href="#DejaVuSans-4d" transform="translate(549.755859 0)"/>
      <use xlink:href="#DejaVuSans-3d" transform="translate(636.035156 0)"/>
      <use xlink:href="#DejaVuSans-31" transform="translate(719.824219 0)"/>
      <use xlink:href="#DejaVuSans-32" transform="translate(783.447266 0)"/>
     </g>
    </g>
    <g id="patch_133">
     <path d="M 421.155898 362.014518 
L 440.155898 362.014518 
L 440.155898 355.364518 
L 421.155898 355.364518 
z
" style="fill: #4f7396; stroke: #ffffff; stroke-width: 0.5; stroke-linejoin: miter"/>
    </g>
    <g id="text_32">
     <!-- BK=64  GSM=16 -->
     <g transform="translate(447.755898 362.014518) scale(0.095 -0.095)">
      <use xlink:href="#DejaVuSans-42"/>
      <use xlink:href="#DejaVuSans-4b" transform="translate(68.603516 0)"/>
      <use xlink:href="#DejaVuSans-3d" transform="translate(134.179688 0)"/>
      <use xlink:href="#DejaVuSans-36" transform="translate(217.96875 0)"/>
      <use xlink:href="#DejaVuSans-34" transform="translate(281.591797 0)"/>
      <use xlink:href="#DejaVuSans-20" transform="translate(345.214844 0)"/>
      <use xlink:href="#DejaVuSans-20" transform="translate(377.001953 0)"/>
      <use xlink:href="#DejaVuSans-47" transform="translate(408.789062 0)"/>
      <use xlink:href="#DejaVuSans-53" transform="translate(486.279297 0)"/>
      <use xlink:href="#DejaVuSans-4d" transform="translate(549.755859 0)"/>
      <use xlink:href="#DejaVuSans-3d" transform="translate(636.035156 0)"/>
      <use xlink:href="#DejaVuSans-31" transform="translate(719.824219 0)"/>
      <use xlink:href="#DejaVuSans-36" transform="translate(783.447266 0)"/>
     </g>
    </g>
    <g id="patch_134">
     <path d="M 547.229805 348.070299 
L 566.229805 348.070299 
L 566.229805 341.420299 
L 547.229805 341.420299 
z
" style="fill: #b3d2b7; stroke: #ffffff; stroke-width: 0.5; stroke-linejoin: miter"/>
    </g>
    <g id="text_33">
     <!-- BK=128  GSM=8 -->
     <g transform="translate(573.829805 348.070299) scale(0.095 -0.095)">
      <use xlink:href="#DejaVuSans-42"/>
      <use xlink:href="#DejaVuSans-4b" transform="translate(68.603516 0)"/>
      <use xlink:href="#DejaVuSans-3d" transform="translate(134.179688 0)"/>
      <use xlink:href="#DejaVuSans-31" transform="translate(217.96875 0)"/>
      <use xlink:href="#DejaVuSans-32" transform="translate(281.591797 0)"/>
      <use xlink:href="#DejaVuSans-38" transform="translate(345.214844 0)"/>
      <use xlink:href="#DejaVuSans-20" transform="translate(408.837891 0)"/>
      <use xlink:href="#DejaVuSans-20" transform="translate(440.625 0)"/>
      <use xlink:href="#DejaVuSans-47" transform="translate(472.412109 0)"/>
      <use xlink:href="#DejaVuSans-53" transform="translate(549.902344 0)"/>
      <use xlink:href="#DejaVuSans-4d" transform="translate(613.378906 0)"/>
      <use xlink:href="#DejaVuSans-3d" transform="translate(699.658203 0)"/>
      <use xlink:href="#DejaVuSans-38" transform="translate(783.447266 0)"/>
     </g>
    </g>
    <g id="patch_135">
     <path d="M 547.229805 362.014518 
L 566.229805 362.014518 
L 566.229805 355.364518 
L 547.229805 355.364518 
z
" style="fill: #7aa881; stroke: #ffffff; stroke-width: 0.5; stroke-linejoin: miter"/>
    </g>
    <g id="text_34">
     <!-- BK=128  GSM=12 -->
     <g transform="translate(573.829805 362.014518) scale(0.095 -0.095)">
      <use xlink:href="#DejaVuSans-42"/>
      <use xlink:href="#DejaVuSans-4b" transform="translate(68.603516 0)"/>
      <use xlink:href="#DejaVuSans-3d" transform="translate(134.179688 0)"/>
      <use xlink:href="#DejaVuSans-31" transform="translate(217.96875 0)"/>
      <use xlink:href="#DejaVuSans-32" transform="translate(281.591797 0)"/>
      <use xlink:href="#DejaVuSans-38" transform="translate(345.214844 0)"/>
      <use xlink:href="#DejaVuSans-20" transform="translate(408.837891 0)"/>
      <use xlink:href="#DejaVuSans-20" transform="translate(440.625 0)"/>
      <use xlink:href="#DejaVuSans-47" transform="translate(472.412109 0)"/>
      <use xlink:href="#DejaVuSans-53" transform="translate(549.902344 0)"/>
      <use xlink:href="#DejaVuSans-4d" transform="translate(613.378906 0)"/>
      <use xlink:href="#DejaVuSans-3d" transform="translate(699.658203 0)"/>
      <use xlink:href="#DejaVuSans-31" transform="translate(783.447266 0)"/>
      <use xlink:href="#DejaVuSans-32" transform="translate(847.070312 0)"/>
     </g>
    </g>
    <g id="patch_136">
     <path d="M 679.348086 348.070299 
L 698.348086 348.070299 
L 698.348086 341.420299 
L 679.348086 341.420299 
z
" style="fill: #41704a; stroke: #ffffff; stroke-width: 0.5; stroke-linejoin: miter"/>
    </g>
    <g id="text_35">
     <!-- BK=128  GSM=16 -->
     <g transform="translate(705.948086 348.070299) scale(0.095 -0.095)">
      <use xlink:href="#DejaVuSans-42"/>
      <use xlink:href="#DejaVuSans-4b" transform="translate(68.603516 0)"/>
      <use xlink:href="#DejaVuSans-3d" transform="translate(134.179688 0)"/>
      <use xlink:href="#DejaVuSans-31" transform="translate(217.96875 0)"/>
      <use xlink:href="#DejaVuSans-32" transform="translate(281.591797 0)"/>
      <use xlink:href="#DejaVuSans-38" transform="translate(345.214844 0)"/>
      <use xlink:href="#DejaVuSans-20" transform="translate(408.837891 0)"/>
      <use xlink:href="#DejaVuSans-20" transform="translate(440.625 0)"/>
      <use xlink:href="#DejaVuSans-47" transform="translate(472.412109 0)"/>
      <use xlink:href="#DejaVuSans-53" transform="translate(549.902344 0)"/>
      <use xlink:href="#DejaVuSans-4d" transform="translate(613.378906 0)"/>
      <use xlink:href="#DejaVuSans-3d" transform="translate(699.658203 0)"/>
      <use xlink:href="#DejaVuSans-31" transform="translate(783.447266 0)"/>
      <use xlink:href="#DejaVuSans-36" transform="translate(847.070312 0)"/>
     </g>
    </g>
   </g>
  </g>
 </g>
 <defs>
  <clipPath id="pa877f7354e">
   <rect x="49.828125" y="29.077969" width="957.93" height="261.39984"/>
  </clipPath>
 </defs>
</svg>
